<svg width="130" height="80" viewBox="0 0 130 80" fill="none" xmlns="http://www.w3.org/2000/svg">
<path d="M62.1018 0.286003C62.1018 0.430428 61.8996 0.574844 61.6685 0.574844C61.4374 0.574844 60.9464 0.892578 60.542 1.29696C60.1376 1.70135 59.5888 2.01907 59.3289 2.01907C59.0689 2.01907 58.549 2.33681 58.1735 2.74119C57.798 3.14558 57.307 3.4633 57.047 3.4633C56.8159 3.4633 56.6137 3.57884 56.6137 3.75215C56.6137 3.89657 56.4693 4.04099 56.296 4.04099C56.1227 4.04099 55.805 4.2143 55.6028 4.38761C54.7362 5.16749 54.3318 5.48522 54.1585 5.48522C53.9852 5.48522 53.5808 5.80295 52.7143 6.55395C52.5121 6.75614 52.1944 6.92945 52.0211 6.92945C51.8478 6.92945 51.7034 7.04499 51.7034 7.21829C51.7034 7.36272 51.5012 7.50714 51.2701 7.50714C51.0101 7.50714 50.5191 7.82487 50.1436 8.22926C49.7681 8.63364 49.3348 8.95137 49.1326 8.95137C48.9593 8.95137 48.8149 9.06691 48.8149 9.24021C48.8149 9.38464 48.6127 9.52906 48.3527 9.52906C48.1217 9.52906 47.7173 9.70237 47.5151 9.87567C46.5619 10.7422 46.2153 10.9733 45.9264 10.9733C45.782 10.9733 45.6376 11.0888 45.6376 11.2621C45.6376 11.4066 45.4643 11.551 45.2621 11.551C45.0599 11.551 44.5689 11.8687 44.1356 12.2731C43.7023 12.6775 43.2113 12.9952 43.038 12.9952C42.8936 12.9952 42.7491 13.1107 42.7491 13.284C42.7491 13.4285 42.5469 13.5729 42.3159 13.5729C42.0559 13.5729 41.5649 13.8906 41.1894 14.295C40.8139 14.6994 40.294 15.0171 40.034 15.0171C39.774 15.0171 39.5718 15.1327 39.5718 15.306C39.5718 15.4504 39.4274 15.5948 39.2541 15.5948C39.0808 15.5948 38.7631 15.7681 38.5609 15.9414C37.6077 16.808 37.2611 17.039 36.9722 17.039C36.8278 17.039 36.6834 17.1546 36.6834 17.3279C36.6834 17.4723 36.5101 17.6167 36.3079 17.6167C36.1057 17.6167 35.6147 17.9345 35.1814 18.3388C34.7481 18.7432 34.2282 19.061 34.026 19.061C33.5061 19.0898 32.6395 19.7831 32.6395 20.1875C32.6395 20.3608 32.3796 20.5052 32.0619 20.5052C31.7152 20.5052 31.1376 20.8229 30.7332 21.2273C30.3288 21.6317 29.8377 21.9494 29.6067 21.9494C29.3756 21.9494 29.1734 22.065 29.1734 22.2383C29.1734 22.3827 29.029 22.5271 28.8846 22.5271C28.5668 22.5271 28.1624 22.816 27.0071 23.8847C26.6316 24.2602 26.1116 24.549 25.8517 24.549C25.5917 24.549 25.0429 24.8668 24.6096 25.2711C24.1764 25.6755 23.6853 25.9933 23.4831 25.9933C23.281 25.9933 23.1076 26.1088 23.1076 26.2243C23.1076 26.3688 22.6455 26.7154 22.0967 27.0331C21.5479 27.3219 21.0857 27.6686 21.0857 27.7841C21.0857 27.9285 20.9413 28.0152 20.768 28.0152C20.5947 28.0152 20.277 28.1885 20.0748 28.3618C19.1216 29.2283 18.775 29.4594 18.4861 29.4594C18.3417 29.4594 18.1973 29.5749 18.1973 29.7482C18.1973 29.8927 17.9951 30.0371 17.7351 30.0371C17.4752 30.0371 16.9552 30.3548 16.5797 30.7592C16.2042 31.1636 15.7132 31.4813 15.4532 31.4813C15.2222 31.4813 15.02 31.5969 15.02 31.7702C15.02 31.9146 14.8755 32.059 14.7022 32.059C14.5289 32.059 14.2112 32.2323 14.009 32.4056C13.0558 33.2722 12.7092 33.5032 12.4204 33.5032C12.2759 33.5032 12.1315 33.6188 12.1315 33.7921C12.1315 33.9365 11.9582 34.0809 11.756 34.0809C11.5538 34.0809 11.0628 34.3987 10.6295 34.803C10.1962 35.2074 9.64744 35.5252 9.38748 35.5252C9.1564 35.5252 8.95421 35.6407 8.95421 35.814C8.95421 35.9584 8.80979 36.1028 8.66537 36.1028C8.37652 36.1028 8.02991 36.3339 7.07672 37.1716C6.87452 37.3738 6.55679 37.5471 6.38349 37.5471C6.21018 37.5471 6.06576 37.6626 6.06576 37.8359C6.06576 37.9803 5.89245 38.1248 5.69026 38.1248C5.48807 38.1248 4.99703 38.4425 4.56376 38.8469C4.13049 39.2513 3.63945 39.569 3.49503 39.569C3.32172 39.569 2.88846 39.8867 2.48407 40.2911C2.07969 40.6955 1.53088 41.0132 1.24204 41.0132C0.0288846 41.0132 0 41.7064 0 60.8569C0 72.844 0.0866537 79.1408 0.288846 79.1408C0.462153 79.1408 0.577691 79.343 0.577691 79.6319C0.577691 80.0362 0.895421 80.0651 3.40838 79.9207C4.96814 79.8341 6.58568 79.603 7.04783 79.4586C7.4811 79.2852 8.80979 79.1408 9.99406 79.1408C11.1783 79.1408 12.1315 79.0253 12.1315 78.8809C12.1315 78.7364 13.1425 78.5342 14.3845 78.4765C15.5977 78.3898 17.9084 78.101 19.4971 77.841C21.0857 77.5811 23.3387 77.2922 24.4941 77.2056C25.6206 77.1478 26.5738 76.9456 26.5738 76.8012C26.5738 76.6568 27.3248 76.5412 28.2491 76.5412C29.1445 76.5412 30.8198 76.339 31.9174 76.1079C33.0439 75.8769 34.6903 75.6747 35.6147 75.6747C36.5101 75.6747 37.2611 75.5303 37.2611 75.3858C37.2611 75.2125 38.272 75.097 39.7163 75.097C41.0738 75.097 42.1714 74.9814 42.1714 74.837C42.1714 74.7215 43.1824 74.5193 44.4533 74.4326C45.6954 74.346 46.9952 74.1438 47.3129 73.9705C47.6306 73.7972 48.9016 73.6528 50.0858 73.6528C51.3567 73.6528 52.281 73.5372 52.281 73.3639C52.281 73.1906 53.292 73.0751 54.7362 73.0751C56.1805 73.0751 57.1914 72.9595 57.1914 72.7862C57.1914 72.6129 57.8846 72.4974 58.7223 72.4974C59.5311 72.4974 61.0042 72.2952 61.9574 72.0641C62.9106 71.833 64.4414 71.6597 65.3657 71.6308C66.2612 71.6308 67.0122 71.5153 67.0122 71.3709C67.0122 71.2265 68.0809 71.0243 69.4096 70.9665C70.7094 70.8798 73.0779 70.591 74.6666 70.331C76.2552 70.0711 78.6238 69.7822 79.9524 69.6956C81.2523 69.6378 82.321 69.4356 82.321 69.2912C82.321 69.1468 83.2453 69.0312 84.3718 69.0312C85.4983 69.0312 86.6825 68.8868 87.0003 68.7135C87.318 68.5402 88.6178 68.338 89.8598 68.2513C91.1308 68.1647 92.1417 67.9625 92.1417 67.847C92.1417 67.7025 93.326 67.587 94.7413 67.587C96.2722 67.587 97.341 67.4715 97.341 67.2982C97.341 67.1249 98.0342 67.0093 98.8718 67.0093C99.7095 67.0093 101.154 66.8071 102.049 66.576C102.973 66.345 104.504 66.1428 105.429 66.1428C106.382 66.1428 107.162 66.0272 107.162 65.8539C107.162 65.6806 108.173 65.5651 109.588 65.5651C110.946 65.5651 112.13 65.4207 112.216 65.2762C112.303 65.1318 113.083 64.9874 113.892 64.9874C114.729 64.9874 116.174 64.7852 117.069 64.5541C117.993 64.323 119.524 64.1209 120.449 64.1209C121.402 64.1209 122.182 64.0053 122.182 63.832C122.182 63.6587 123.106 63.5432 124.348 63.5432C126.977 63.5432 128.767 63.0521 129.027 62.2434C129.114 61.9256 129.172 58.6328 129.143 54.9067C129.114 48.581 129.085 48.0899 128.536 47.5989C128.247 47.3101 127.785 47.079 127.525 47.079C127.092 47.079 126.861 46.9346 125.879 46.0102C124.983 45.1726 124.781 44.7104 124.781 43.4106C124.81 42.0242 125.272 41.0132 125.908 41.0132C126.081 41.0132 126.226 40.811 126.226 40.58C126.226 40.32 126.485 40.1467 126.948 40.1467C127.352 40.1467 127.67 40.0023 127.67 39.8578C127.67 39.6845 127.93 39.569 128.247 39.569C128.623 39.569 128.883 39.309 128.998 38.8469C129.258 37.7493 129.316 29.1128 129.056 28.304C128.825 27.5819 127.41 26.5709 126.63 26.5709C126.399 26.5709 126.226 26.4265 126.226 26.2821C126.226 26.1088 125.966 25.9933 125.648 25.9933C125.012 25.9933 122.962 25.0978 122.817 24.7512C122.759 24.6357 122.268 24.549 121.72 24.549C121.171 24.549 120.737 24.4046 120.737 24.2602C120.737 24.0869 120.564 23.9713 120.333 23.9713C119.842 23.9713 118.022 23.047 117.907 22.7293C117.849 22.6138 117.445 22.5271 116.982 22.5271C116.52 22.5271 116.116 22.4405 116.058 22.296C115.914 21.9783 113.863 21.0829 113.227 21.0829C112.91 21.0829 112.65 20.9385 112.65 20.794C112.65 20.6207 112.332 20.5052 111.957 20.5052C111.581 20.5052 111.206 20.4185 111.148 20.2741C111.003 19.9564 108.953 19.061 108.317 19.061C107.999 19.061 107.739 18.9165 107.739 18.7721C107.739 18.5988 107.566 18.4833 107.335 18.4833C106.844 18.4833 105.024 17.559 104.909 17.2412C104.851 17.1257 104.418 17.039 103.956 17.039C103.493 17.039 103.118 16.8946 103.118 16.7502C103.118 16.5769 102.8 16.4613 102.396 16.4613C101.991 16.4613 101.674 16.3458 101.674 16.1725C101.674 16.0281 101.211 15.8259 100.663 15.7104C100.114 15.6237 99.6517 15.4215 99.6517 15.2771C99.6517 15.1327 99.334 15.0171 98.9296 15.0171C98.5252 15.0171 98.2075 14.9016 98.2075 14.7572C98.2075 14.6127 97.7453 14.4105 97.1965 14.3239C96.6477 14.2084 96.1856 14.0062 96.1856 13.8617C96.1856 13.6884 95.8678 13.5729 95.4635 13.5729C95.0591 13.5729 94.7413 13.4285 94.7413 13.284C94.7413 13.1107 94.4814 12.9952 94.1348 12.9952C93.817 12.9952 93.3549 12.793 93.1238 12.5619C92.8638 12.3309 92.4306 12.1287 92.1128 12.1287C91.824 12.1287 91.564 11.9842 91.564 11.8398C91.564 11.6665 91.2463 11.551 90.8419 11.551C90.4375 11.551 90.1198 11.4066 90.1198 11.2621C90.1198 10.8289 88.0979 10.9155 87.6357 11.3777C87.0869 11.9554 87.1158 12.2153 87.7802 12.042C88.1845 11.9554 88.3578 12.0998 88.4734 12.6775C88.6467 13.4285 90.0043 14.4394 90.8708 14.4394C91.1019 14.4394 91.2752 14.555 91.2752 14.7283C91.2752 14.8727 91.6796 15.0171 92.1417 15.0171C92.6328 15.0171 93.0083 15.1327 93.0083 15.306C93.0083 15.4504 93.2682 15.5948 93.5571 15.5948C93.8748 15.5948 94.3081 15.797 94.568 16.0281C94.7991 16.2592 95.2613 16.4613 95.579 16.4613C95.9256 16.4613 96.1856 16.5769 96.1856 16.7502C96.1856 16.8946 96.5033 17.039 96.9077 17.039C97.3121 17.039 97.6298 17.1546 97.6298 17.3279C97.6298 17.4723 97.9475 17.6167 98.323 17.6167C98.7274 17.6167 99.2184 17.8189 99.4784 18.05C99.7095 18.2811 100.172 18.4833 100.489 18.4833C100.836 18.4833 101.096 18.5988 101.096 18.7721C101.096 18.9165 101.471 19.061 101.934 19.061C102.396 19.061 102.829 19.1476 102.887 19.2632C103.06 19.6675 104.88 20.5052 105.602 20.5052C105.977 20.5052 106.295 20.6207 106.295 20.7363C106.295 20.8518 106.96 21.1984 107.739 21.5161C108.548 21.8339 109.184 22.1805 109.184 22.296C109.184 22.4116 109.646 22.5271 110.195 22.5271C110.743 22.5271 111.206 22.6426 111.206 22.816C111.206 22.9604 111.523 23.1626 111.928 23.2781C112.332 23.3648 112.65 23.567 112.65 23.7114C112.65 23.8558 112.967 23.9713 113.372 23.9713C113.776 23.9713 114.094 24.0869 114.094 24.2602C114.094 24.4046 114.469 24.549 114.932 24.549C115.394 24.549 115.827 24.6357 115.885 24.7512C116.029 25.0978 118.08 25.9933 118.716 25.9933C119.033 25.9933 119.293 26.1088 119.293 26.2821C119.293 26.4265 119.611 26.5709 120.015 26.5709C120.42 26.5709 120.737 26.6865 120.737 26.8598C120.737 27.0042 121.055 27.2064 121.46 27.3219C122.817 27.6686 121.864 28.0152 119.553 28.0152C118.224 28.0152 117.271 28.1307 117.271 28.304C117.271 28.4773 116.376 28.5929 115.192 28.5929C114.036 28.6217 112.245 28.7951 111.206 29.0261C110.166 29.2572 108.375 29.4305 107.248 29.4594C106.035 29.4594 105.14 29.5749 105.14 29.7482C105.14 29.9216 103.956 30.0371 102.136 30.0371C100.46 30.0371 99.074 30.1526 99.0163 30.3259C98.9874 30.4704 97.8898 30.6148 96.6188 30.6437C95.3479 30.6726 93.6148 30.8747 92.7772 31.0769C91.9395 31.308 90.2065 31.4813 88.9644 31.4813C87.6068 31.4813 86.6537 31.5969 86.6537 31.7702C86.6537 31.9435 85.4694 32.059 83.6497 32.059C81.8877 32.059 80.5879 32.1745 80.5301 32.3479C80.4724 32.5212 79.2592 32.6656 77.8439 32.7234C76.3996 32.7522 75.0421 32.9255 74.811 33.07C74.5799 33.2144 72.9913 33.3877 71.2871 33.4455C69.554 33.5321 68.1675 33.6765 68.1675 33.7921C68.1675 33.9365 66.8966 34.1098 65.3657 34.1965C63.806 34.2542 60.9175 34.5431 58.9245 34.803C56.9315 35.063 54.043 35.3518 52.5121 35.4385C50.9524 35.4963 49.6814 35.6985 49.6814 35.8429C49.6814 35.9873 48.5838 36.1028 47.2551 36.1028C45.8976 36.1028 44.4533 36.2473 43.9912 36.4206C43.5579 36.5939 41.8537 36.7961 40.2362 36.8827C38.5898 36.9694 37.2611 37.1716 37.2611 37.316C37.2611 37.4315 35.7591 37.5471 33.9394 37.5471C32.1196 37.5471 30.6176 37.6626 30.6176 37.807C30.6176 37.9226 29.3178 38.1248 27.7003 38.2403C26.1116 38.3558 24.4652 38.558 24.0897 38.7313C23.6853 38.8758 22.3278 38.9913 21.0568 38.9913C19.8148 38.9913 18.775 39.1068 18.775 39.2513C18.775 39.4246 17.4463 39.5979 15.8287 39.6556C14.1823 39.7423 11.8716 39.9445 10.6873 40.1178C8.52094 40.4355 7.50998 40.3489 7.50998 39.829C7.50998 39.6845 7.76995 39.569 8.08768 39.569C8.40541 39.569 8.66537 39.4246 8.66537 39.2801C8.66537 39.1068 8.80979 38.9913 8.95421 38.9913C9.24306 38.9913 9.58967 38.7602 10.5429 37.8937C10.7451 37.7204 11.0628 37.5471 11.2361 37.5471C11.4094 37.5471 11.5538 37.4604 11.5538 37.316C11.5538 37.2005 12.016 36.8538 12.5648 36.565C13.1136 36.2473 13.5757 35.9007 13.5757 35.7562C13.5757 35.6407 13.7779 35.5252 14.0379 35.5252C14.2979 35.5252 14.8178 35.2074 15.1933 34.803C15.5688 34.3987 16.0598 34.0809 16.3198 34.0809C16.5508 34.0809 16.753 33.9365 16.753 33.7921C16.753 33.6188 16.9552 33.5032 17.1863 33.5032C17.4174 33.5032 17.6196 33.3877 17.6196 33.2433C17.6196 33.0989 17.9084 32.8678 18.2839 32.7522C18.6305 32.6367 19.1216 32.319 19.3815 32.0301C19.6415 31.7124 20.0459 31.4813 20.277 31.4813C20.508 31.4813 20.9702 31.1636 21.259 30.7592C21.5479 30.3548 22.0678 30.0371 22.3855 30.0371C22.7033 30.0371 23.2232 29.7194 23.512 29.315C23.8009 28.9106 24.263 28.5929 24.4941 28.5929C24.7252 28.5929 25.1296 28.3618 25.3895 28.0441C25.6495 27.7552 26.1405 27.4375 26.516 27.3219C26.8626 27.2064 27.1515 26.9753 27.1515 26.8309C27.1515 26.6865 27.3537 26.5709 27.5847 26.5709C27.8158 26.5709 28.018 26.4265 28.018 26.2821C28.018 26.1088 28.278 25.9933 28.5957 25.9933C28.9134 25.9933 29.1734 25.7911 29.1734 25.56C29.1734 25.3289 29.3756 25.1267 29.6067 25.1267C29.8377 25.1267 30.0399 24.9823 30.0399 24.8379C30.0399 24.6646 30.2999 24.549 30.6176 24.549C30.9354 24.549 31.1953 24.4335 31.1953 24.3179C31.1953 24.1735 31.6575 23.8269 32.2063 23.5092C32.7551 23.2203 33.2172 22.8737 33.2172 22.7582C33.2172 22.6138 33.3617 22.5271 33.535 22.5271C33.7083 22.5271 34.026 22.3538 34.2282 22.1516C35.1814 21.314 35.528 21.0829 35.8168 21.0829C35.9613 21.0829 36.1057 20.9385 36.1057 20.794C36.1057 20.6207 36.279 20.5052 36.4812 20.5052C36.6834 20.5052 37.1744 20.1875 37.6077 19.7831C38.041 19.3787 38.5898 19.061 38.8497 19.061C39.0808 19.061 39.283 18.9165 39.283 18.7721C39.283 18.5988 39.4274 18.4833 39.6007 18.4833C39.8029 18.4833 40.2362 18.1655 40.6117 17.7612C40.9872 17.3568 41.4782 17.039 41.7382 17.039C41.9693 17.039 42.1714 16.8946 42.1714 16.7502C42.1714 16.5769 42.3448 16.4613 42.5469 16.4613C42.7491 16.4613 43.2402 16.1436 43.6734 15.7392C44.1067 15.3349 44.6844 15.0171 44.9733 15.0171C45.2621 15.0171 45.7531 14.6994 46.042 14.295C46.3308 13.8906 46.7641 13.5729 46.9663 13.5729C47.1974 13.5729 47.7751 13.1974 48.2661 12.7064C48.7571 12.2442 49.4215 11.7821 49.7103 11.6954C50.028 11.5799 50.2591 11.4066 50.2591 11.2621C50.2591 11.1466 50.5769 10.9444 50.9812 10.8577C51.3856 10.7422 51.7034 10.54 51.7034 10.3956C51.7034 10.2223 51.9055 10.1068 52.1366 10.1068C52.3677 10.1068 52.5699 9.96233 52.5699 9.8179C52.5699 9.6446 52.7721 9.52906 53.0032 9.52906C53.2631 9.52906 53.8986 9.06691 54.4185 8.5181C54.9673 7.96929 55.6317 7.50714 55.8916 7.50714C56.1516 7.50714 56.7004 7.18941 57.1336 6.78503C57.5669 6.38065 58.058 6.06291 58.2601 6.06291C58.4623 6.06291 58.6356 5.94737 58.6356 5.83183C58.6356 5.68742 59.0978 5.3408 59.6466 5.02307C60.1954 4.73422 60.6576 4.38761 60.6576 4.27207C60.6576 4.12765 60.8598 4.04099 61.0908 4.04099C61.3219 4.04099 61.5241 3.89657 61.5241 3.75215C61.5241 3.57884 61.6685 3.4633 61.8129 3.4633C61.9863 3.4633 62.1018 3.63661 62.1018 3.86768C62.1018 4.18542 62.6795 4.61868 63.1128 4.61868C63.1416 4.61868 63.2572 4.2143 63.3727 3.69438C63.5171 3.00115 63.6327 2.85673 63.8926 3.11669C64.0948 3.31888 64.4703 3.4633 64.7592 3.4633C65.048 3.4633 65.2791 3.57884 65.2791 3.75215C65.2791 3.89657 65.5968 4.04099 65.9723 4.04099C66.3478 4.04099 66.7233 4.12765 66.7811 4.24319C66.9255 4.5898 68.9763 5.48522 69.6118 5.48522C69.9295 5.48522 70.1895 5.60076 70.1895 5.77407C70.1895 5.91849 70.0739 6.06291 69.9006 6.06291C69.7562 6.06291 69.6118 6.38065 69.6118 6.78503C69.6118 7.18941 69.7562 7.50714 69.9006 7.50714C70.0739 7.50714 70.1895 7.18941 70.1895 6.78503C70.1895 5.94737 71.1138 5.77407 71.807 6.49618C72.067 6.72726 72.558 6.92945 72.9624 6.92945C73.3379 6.92945 73.6556 7.04499 73.6556 7.21829C73.6556 7.36272 73.9156 7.50714 74.2622 7.50714C74.9843 7.50714 75.9953 8.40257 75.4465 8.60475C74.9843 8.74918 75.0132 9.18244 75.562 9.73125C75.9375 10.1356 76.053 10.1356 76.2841 9.78902C76.4285 9.55795 76.5441 9.21133 76.5441 9.00914C76.5441 8.60475 78.0461 8.86472 78.2194 9.29798C78.2771 9.41352 78.7104 9.52906 79.2014 9.52906C79.9236 9.52906 80.0102 9.44241 79.8658 8.95137C79.7503 8.57587 79.8369 8.31591 80.1258 8.20037C80.7034 7.96929 80.7323 7.50714 80.1546 7.50714C79.9236 7.50714 79.7214 7.42049 79.7214 7.27606C79.7214 6.98722 78.0461 6.06291 77.5261 6.06291C77.2951 6.06291 77.1218 5.91849 77.1218 5.77407C77.1218 5.60076 76.804 5.48522 76.3996 5.48522C75.9953 5.48522 75.6775 5.36968 75.6775 5.22526C75.6775 5.08084 75.2154 4.87865 74.6666 4.79199C74.1178 4.67645 73.6556 4.47427 73.6556 4.32984C73.6556 4.15653 73.1935 4.04099 72.6447 4.04099C72.0958 4.04099 71.6337 3.92545 71.6337 3.78104C71.6337 3.63661 71.316 3.43442 70.9116 3.34776C70.5072 3.23222 70.1895 3.03004 70.1895 2.88561C70.1895 2.7123 69.8717 2.59676 69.4674 2.59676C69.063 2.59676 68.7452 2.45235 68.7452 2.30792C68.7452 2.13461 68.4275 2.01907 68.0231 2.01907C67.6187 2.01907 67.301 1.87466 67.301 1.73023C67.301 1.55692 67.0988 1.44138 66.8677 1.44138C66.3478 1.44138 64.297 0.517082 64.1815 0.199348C64.0371 -0.118378 62.1018 -0.0317307 62.1018 0.286003ZM126.803 33.7921C126.803 37.3449 126.774 37.5471 126.226 37.5471C125.908 37.5471 125.648 37.6626 125.648 37.8359C125.648 37.9803 125.446 38.1248 125.215 38.1248C124.839 38.1248 124.146 38.7602 123.135 39.9734C122.933 40.2045 122.759 40.6666 122.759 41.0132C122.759 41.3309 122.644 41.5909 122.471 41.5909C122.297 41.5909 122.182 42.4574 122.182 43.6128C122.182 44.7682 122.297 45.6347 122.471 45.6347C122.644 45.6347 122.759 45.8947 122.759 46.2413C122.759 46.9057 124.55 48.7832 125.648 49.2742L126.37 49.6208L125.59 49.823C124.695 50.0541 124.724 50.0252 124.955 50.6607C125.215 51.3539 126.226 51.2383 126.226 50.5451C126.226 50.2274 126.37 49.9674 126.514 49.9674C126.688 49.9674 126.803 51.9316 126.803 55.2533V60.5103L124.579 60.9147C123.337 61.1457 121.315 61.3768 120.102 61.4346C118.86 61.5212 117.849 61.6946 117.849 61.839C117.849 61.9834 116.867 62.0989 115.654 62.0989C114.469 62.0989 113.256 62.2145 112.967 62.3878C112.679 62.5322 111.379 62.7344 110.079 62.8499C108.808 62.9655 107.739 63.1677 107.739 63.2832C107.739 63.4276 106.7 63.5432 105.429 63.5432C104.071 63.5432 103.118 63.6587 103.118 63.832C103.118 64.0053 102.251 64.1209 101.096 64.1209C99.9983 64.1209 98.8141 64.2653 98.4386 64.4097C97.7453 64.6985 93.9037 65.1896 90.2065 65.4495C89.0511 65.5362 88.0979 65.7384 88.0979 65.8828C88.0979 66.0272 87.1736 66.1428 86.0471 66.1428C84.9206 66.1428 83.7652 66.2872 83.4764 66.4316C83.1875 66.6049 81.7433 66.8071 80.3279 66.9227C78.8837 67.0093 77.6994 67.2115 77.6994 67.327C77.6994 67.4715 76.6018 67.587 75.2443 67.587C73.8867 67.587 72.7891 67.7025 72.7891 67.847C72.7891 67.9625 71.7203 68.1647 70.3917 68.2513C69.0919 68.338 67.6476 68.5402 67.2144 68.7135C66.7522 68.8868 65.5679 69.0312 64.5281 69.0312C63.4883 69.0312 62.6795 69.1468 62.6795 69.3201C62.6795 69.4934 61.7263 69.6089 60.3976 69.6089C59.1267 69.6089 58.0291 69.7245 57.9424 69.8689C57.8558 70.0133 56.6137 70.2155 55.1695 70.331C53.7253 70.4466 52.4832 70.6488 52.3966 70.7932C52.3099 70.9376 51.2123 71.0532 49.9414 71.0532C48.6127 71.0532 47.6595 71.1687 47.6595 71.342C47.6595 71.5153 46.8507 71.6308 45.8109 71.6308C44.7711 71.6308 43.5868 71.7753 43.1246 71.9486C42.6914 72.1219 41.2471 72.3241 39.9473 72.4107C38.6186 72.4974 37.5499 72.6996 37.5499 72.8151C37.5499 72.9595 36.4523 73.0751 35.0947 73.0751C33.6505 73.0751 32.6395 73.1906 32.6395 73.3639C32.6395 73.5372 31.8308 73.6528 30.7909 73.6528C29.7511 73.6528 28.5668 73.7972 28.1047 73.9705C27.6714 74.1438 26.2272 74.346 24.9274 74.4326C23.5987 74.5193 22.53 74.7215 22.53 74.837C22.53 74.9814 21.4323 75.097 20.0748 75.097C18.7172 75.097 17.6196 75.2125 17.6196 75.3569C17.6196 75.4725 16.5508 75.6747 15.2222 75.7613C13.9224 75.848 12.4781 76.0502 12.0449 76.2235C11.5827 76.3968 10.3984 76.5412 9.3586 76.5412C8.31875 76.5412 7.50998 76.6568 7.50998 76.8301C7.50998 77.0034 6.49902 77.1189 5.0548 77.1189H2.59961V60.3659V43.6128H4.18826C5.0548 43.6128 5.77691 43.4684 5.77691 43.324C5.77691 43.1507 6.87452 43.0351 8.49206 43.0351C9.99406 43.0351 11.2939 42.9196 11.3805 42.7752C11.4672 42.6308 13.0558 42.4286 14.8755 42.313C16.6953 42.1975 18.2839 41.9953 18.3706 41.8509C18.4572 41.7064 19.8148 41.5909 21.4035 41.5909C22.9921 41.5909 24.263 41.4754 24.263 41.3309C24.263 41.1576 25.5917 40.9843 27.2381 40.8977C28.8557 40.8399 31.7441 40.5511 33.6505 40.2911C35.5569 40.0311 38.3876 39.7423 39.9473 39.6556C41.4782 39.5979 42.7491 39.3957 42.7491 39.2513C42.7491 39.1068 43.7023 38.9913 44.8577 38.9913C45.9842 38.9913 47.9772 38.7891 49.2482 38.558C50.5191 38.327 52.3677 38.1536 53.3787 38.1248C54.3607 38.1248 55.1695 38.0092 55.1695 37.8359C55.1695 37.6626 56.3826 37.5471 58.2024 37.5471C59.8777 37.5471 61.2353 37.4315 61.2353 37.316C61.2353 37.1716 62.5639 36.9694 64.2104 36.8827C65.8279 36.7961 67.6187 36.565 68.1675 36.3917C68.7164 36.2473 70.1895 36.1028 71.4026 36.1028C72.6447 36.1028 73.6556 35.9873 73.6556 35.8429C73.6556 35.6985 74.9265 35.4963 76.4863 35.4096C80.3279 35.2363 86.2782 34.572 86.5381 34.2831C86.6537 34.1676 88.0979 34.0809 89.7443 34.0809C91.3618 34.0809 92.7194 33.9654 92.7194 33.821C92.7194 33.7054 93.9903 33.5032 95.5501 33.3877C99.8539 33.0989 104.793 32.5212 105.024 32.2612C105.14 32.1457 106.584 32.059 108.23 32.059C110.021 32.059 111.206 31.9435 111.206 31.7702C111.206 31.5969 112.043 31.4813 113.17 31.4813C114.238 31.4813 116.145 31.2791 117.416 31.048C118.687 30.817 120.477 30.6437 121.402 30.6148C122.297 30.6148 123.048 30.4704 123.048 30.3259C123.048 30.1526 123.857 30.0371 124.926 30.0371H126.803V33.7921Z" fill="#121110"/>
<path d="M123.626 32.059C123.626 32.4345 123.828 32.6367 124.204 32.6367C124.579 32.6367 124.781 32.4345 124.781 32.059C124.781 31.6835 124.579 31.4813 124.204 31.4813C123.828 31.4813 123.626 31.6835 123.626 32.059Z" fill="#121110"/>
<path d="M121.113 32.2611C120.911 32.3189 120.737 32.6366 120.737 32.9544C120.737 33.3588 120.939 33.5032 121.459 33.5032C122.21 33.5032 122.297 33.301 122.008 32.5211C121.835 32.0301 121.69 32.0012 121.113 32.2611Z" fill="#121110"/>
<path d="M113.228 33.0699C113.228 33.3876 113.43 33.5032 113.892 33.4454C114.238 33.3876 114.527 33.2143 114.527 33.0699C114.527 32.8966 114.238 32.7522 113.892 32.6944C113.43 32.6366 113.228 32.7522 113.228 33.0699Z" fill="#121110"/>
<path d="M110.051 33.5032C110.051 33.8787 110.253 34.0809 110.628 34.0809C111.004 34.0809 111.206 33.8787 111.206 33.5032C111.206 33.1277 111.004 32.9256 110.628 32.9256C110.253 32.9256 110.051 33.1277 110.051 33.5032Z" fill="#121110"/>
<path d="M115.827 33.5032C115.827 33.821 116.029 34.0809 116.26 34.0809C116.491 34.0809 116.694 33.821 116.694 33.5032C116.694 33.1855 116.491 32.9256 116.26 32.9256C116.029 32.9256 115.827 33.1855 115.827 33.5032Z" fill="#121110"/>
<path d="M106.295 34.0231C106.295 34.7452 106.497 34.9185 107.19 34.7452C108.028 34.5142 107.912 33.5032 107.017 33.5032C106.497 33.5032 106.295 33.6476 106.295 34.0231Z" fill="#121110"/>
<path d="M101.096 34.803C101.096 35.323 101.24 35.5251 101.673 35.5251C102.107 35.5251 102.251 35.323 102.251 34.803C102.251 34.2831 102.107 34.0809 101.673 34.0809C101.24 34.0809 101.096 34.2831 101.096 34.803Z" fill="#121110"/>
<path d="M118.715 34.8031C118.715 35.4674 119.235 35.7852 119.668 35.3519C119.87 35.1497 119.264 34.081 118.946 34.081C118.801 34.081 118.715 34.3987 118.715 34.8031Z" fill="#121110"/>
<path d="M124.521 34.9186C124.175 35.1497 124.203 35.2653 124.608 35.6985C125.041 36.1029 125.157 36.1318 125.388 35.7852C125.879 35.0053 125.301 34.4276 124.521 34.9186Z" fill="#121110"/>
<path d="M114.094 35.9006C114.094 36.305 114.671 36.9694 115.018 36.9694C115.134 36.9694 115.249 36.6516 115.249 36.2472C115.249 35.7273 115.105 35.5251 114.671 35.5251C114.354 35.5251 114.094 35.6984 114.094 35.9006Z" fill="#121110"/>
<path d="M118.138 36.825C118.138 37.3449 118.282 37.5471 118.715 37.5471C119.38 37.5471 119.466 37.085 118.889 36.5073C118.311 35.9296 118.138 35.9874 118.138 36.825Z" fill="#121110"/>
<path d="M121.315 36.5361C121.315 36.7672 121.518 36.9694 121.749 36.9694C121.98 36.9694 122.182 36.7672 122.182 36.5361C122.182 36.305 121.98 36.1028 121.749 36.1028C121.518 36.1028 121.315 36.305 121.315 36.5361Z" fill="#121110"/>
<path d="M104.36 36.8539C103.984 36.9405 103.695 37.1427 103.695 37.2871C103.695 37.4316 103.551 37.5471 103.378 37.5471C102.973 37.5471 102.251 38.2692 102.251 38.6736C102.251 38.8469 102.136 38.9913 101.962 38.9913C101.818 38.9913 101.673 39.3091 101.673 39.7134C101.673 40.1178 101.558 40.4355 101.385 40.4355C101.24 40.4355 101.096 40.811 101.096 41.2732C101.096 41.7642 101.24 42.2264 101.385 42.313C101.558 42.3997 101.673 42.8041 101.673 43.2085C101.673 43.584 101.789 43.9017 101.933 43.9017C102.078 43.9017 102.309 44.1617 102.396 44.4794C102.482 44.7971 102.771 45.0571 103.002 45.0571C103.233 45.0571 103.406 45.1726 103.406 45.317C103.406 45.4615 103.811 45.6637 104.273 45.7792C104.764 45.8947 105.14 46.0969 105.14 46.2413C105.14 46.4147 105.428 46.4724 105.804 46.3569C107.739 45.837 108.606 45.5192 108.606 45.2882C108.606 45.1726 108.866 45.0571 109.183 45.0571C109.53 45.0571 109.761 44.8549 109.761 44.5372C109.761 44.2772 109.963 43.7862 110.194 43.4973C110.772 42.7174 110.772 39.7423 110.194 39.1646C109.963 38.9336 109.761 38.6736 109.761 38.5581C109.761 38.2692 108.981 37.5471 108.663 37.5471C108.49 37.5471 108.317 37.4027 108.259 37.2582C108.144 36.9116 105.371 36.6517 104.36 36.8539ZM108.057 39.7423C108.606 40.811 108.548 42.5441 107.941 43.1796C107.277 43.8439 104.793 43.8728 104.129 43.2374C103.522 42.6019 103.522 39.569 104.129 39.569C104.36 39.569 104.562 39.4246 104.562 39.2802C104.562 39.1069 105.255 38.9913 106.093 38.9913C107.479 38.9913 107.681 39.078 108.057 39.7423Z" fill="#121110"/>
<path d="M109.762 37.1716C109.762 37.576 110.339 38.2981 110.339 37.8937C110.339 37.7204 110.542 37.5471 110.773 37.5471C111.004 37.5471 111.206 37.4027 111.206 37.2582C111.206 37.0849 110.888 36.9694 110.484 36.9694C110.079 36.9694 109.762 37.056 109.762 37.1716Z" fill="#121110"/>
<path d="M113.863 39.3091C113.921 39.4824 114.065 39.5979 114.181 39.5979C114.296 39.569 114.585 39.569 114.816 39.569C115.047 39.569 115.249 39.4246 115.249 39.2802C115.249 39.1069 114.903 38.9913 114.498 38.9913C114.094 38.9913 113.805 39.1357 113.863 39.3091Z" fill="#121110"/>
<path d="M118.022 39.4535C117.704 40.2911 118.195 40.6666 118.975 40.1756C119.322 39.9445 119.322 39.829 118.917 39.4535C118.34 38.8758 118.253 38.8758 118.022 39.4535Z" fill="#121110"/>
<path d="M120.737 39.2802C120.737 39.4246 120.939 39.569 121.171 39.569C121.402 39.569 121.69 39.569 121.806 39.5979C121.922 39.5979 122.066 39.4824 122.124 39.3091C122.182 39.1357 121.893 38.9913 121.488 38.9913C121.084 38.9913 120.737 39.1069 120.737 39.2802Z" fill="#121110"/>
<path d="M70.9693 40.3778C70.3628 40.9844 70.1895 41.4754 70.1895 42.3997C70.1895 43.0641 70.3339 43.6129 70.5072 43.6129C70.6805 43.6129 70.9982 43.8151 71.2293 44.0461C72.0669 44.8838 74.2333 44.3928 74.2333 43.3529C74.2333 43.1796 74.3777 43.0352 74.5221 43.0352C74.6954 43.0352 74.811 42.573 74.811 42.0242C74.811 41.4754 74.6954 41.0133 74.5221 41.0133C74.3777 41.0133 74.2333 40.8688 74.2333 40.6955C74.2333 40.1178 73.4245 39.569 72.5869 39.569C72.0381 39.569 71.4604 39.8579 70.9693 40.3778ZM73.6556 42.0242C73.6556 42.7175 73.5112 43.0352 73.2512 43.0352C73.0201 43.0352 72.7891 43.2085 72.7313 43.3818C72.5869 43.7573 72.2691 43.5262 71.4026 42.3997C70.8538 41.7065 71.4893 41.0421 72.7313 41.0133C73.5978 41.0133 73.6556 41.071 73.6556 42.0242Z" fill="#121110"/>
<path d="M112.419 42.804C111.899 43.3239 111.985 43.6128 112.65 43.6128C113.025 43.6128 113.227 43.4106 113.227 43.0351C113.227 42.3708 112.938 42.2841 112.419 42.804Z" fill="#121110"/>
<path d="M114.672 43.4684C114.672 43.9595 114.73 43.9884 115.365 43.7284C116.029 43.4684 115.943 43.0352 115.25 43.0352C114.932 43.0352 114.672 43.2374 114.672 43.4684Z" fill="#121110"/>
<path d="M118.715 45.2014C118.715 45.9813 118.888 46.0679 119.552 45.6636C119.899 45.4325 119.899 45.317 119.495 44.9415C118.859 44.306 118.715 44.3638 118.715 45.2014Z" fill="#121110"/>
<path d="M110.455 46.9635C110.542 47.2235 110.628 47.4834 110.628 47.5412C110.628 47.599 110.773 47.6567 110.917 47.6567C111.091 47.6567 111.206 47.3968 111.206 47.079C111.206 46.7324 111.004 46.5014 110.744 46.5014C110.426 46.5014 110.34 46.6458 110.455 46.9635Z" fill="#121110"/>
<path d="M14.3841 47.5989C13.9219 47.8877 13.5753 48.2921 13.5753 48.5521C13.5753 48.812 13.3731 49.1009 13.142 49.2164C12.9109 49.303 12.7088 49.6497 12.7088 49.9674C12.7088 50.2851 12.5932 50.5451 12.4199 50.5451C11.5534 50.5451 12.5643 54.0112 13.6908 54.9355C14.0086 55.2244 14.4418 55.571 14.644 55.7443C14.8462 55.8887 15.2506 56.0331 15.5972 56.0331C15.9149 56.0331 16.1749 56.1487 16.1749 56.322C16.1749 56.4664 16.6371 56.6108 17.1859 56.6108C17.7347 56.6108 18.1968 56.4664 18.1968 56.322C18.1968 56.1487 18.4568 56.0331 18.8034 56.0331C19.41 56.0331 21.0853 54.5889 21.0853 54.0401C21.0853 53.8668 21.2297 53.7224 21.3741 53.7224C21.5474 53.7224 21.663 52.8558 21.663 51.7005C21.663 50.5451 21.5474 49.6785 21.3741 49.6785C21.2297 49.6785 21.0853 49.4186 21.0853 49.1009C21.0853 48.7831 20.9408 48.5232 20.7675 48.5232C20.5942 48.5232 20.2765 48.3499 20.0743 48.1477C19.8432 47.9744 19.4677 47.6277 19.2367 47.4256C18.6012 46.9056 15.3372 47.0212 14.3841 47.5989ZM18.5723 49.5052C18.8323 49.7074 19.0634 50.0252 19.0634 50.2274C19.0634 50.4007 19.2078 50.5451 19.3522 50.5451C19.5255 50.5451 19.641 51.0072 19.641 51.556C19.641 52.1049 19.5544 52.567 19.41 52.567C19.2944 52.567 19.0634 52.8558 18.9189 53.2025C18.5145 54.0979 16.1749 54.3001 15.3661 53.5202C14.4418 52.6537 14.3552 51.5272 15.0773 50.2274C15.655 49.1875 15.7994 49.1009 16.8681 49.1009C17.5325 49.1009 18.2835 49.303 18.5723 49.5052Z" fill="#121110"/>
<path d="M121.488 47.8588C121.141 48.2054 121.315 49.1008 121.748 49.1008C121.979 49.1008 122.181 48.8409 122.181 48.552C122.181 47.9454 121.806 47.5699 121.488 47.8588Z" fill="#121110"/>
<path d="M116 48.4076C115.74 49.0431 115.769 49.1008 116.26 49.1008C116.491 49.1008 116.693 48.8409 116.693 48.5231C116.693 47.8299 116.26 47.7433 116 48.4076Z" fill="#121110"/>
<path d="M112.649 49.1009C112.649 49.4186 112.794 49.6786 112.938 49.6786C113.112 49.6786 113.227 49.4186 113.227 49.1009C113.227 48.7832 113.112 48.5232 112.938 48.5232C112.794 48.5232 112.649 48.7832 112.649 49.1009Z" fill="#121110"/>
<path d="M104.966 49.5341C104.879 49.7652 104.879 50.0829 104.995 50.2562C105.313 50.7762 105.717 50.574 105.717 49.823C105.717 49.0431 105.226 48.8409 104.966 49.5341Z" fill="#121110"/>
<path d="M108.606 49.8231C108.606 50.343 108.751 50.5452 109.184 50.5452C109.617 50.5452 109.762 50.343 109.762 49.8231C109.762 49.3031 109.617 49.1009 109.184 49.1009C108.751 49.1009 108.606 49.3031 108.606 49.8231Z" fill="#121110"/>
<path d="M42.6917 51.9027C42.0851 51.9605 41.5941 52.1338 41.5941 52.3071C41.5941 52.4515 41.4497 52.5671 41.2763 52.5671C40.9875 52.5671 40.7564 52.7404 39.8032 53.6358C39.1389 54.2713 38.7056 54.849 38.7056 55.1667C38.7056 55.3111 38.5901 55.4555 38.4168 55.4555C38.2435 55.4555 38.1279 56.3221 38.1279 57.4775C38.1279 58.6328 38.2435 59.4994 38.4168 59.4994C38.5901 59.4994 38.7056 59.7305 38.7056 59.9904C38.7345 60.6259 39.37 61.5213 39.8321 61.5213C40.0054 61.5213 40.1498 61.6657 40.1498 61.839C40.1498 62.3012 41.0453 62.9366 41.6807 62.9655C41.9407 62.9655 42.1718 63.0811 42.1718 63.2544C42.1718 63.4277 43.0383 63.5432 44.1937 63.5432C45.3491 63.5432 46.2156 63.4277 46.2156 63.2544C46.2156 63.0811 46.3889 62.9655 46.62 62.9655C47.1977 62.9655 49.1041 61.1169 49.1041 60.5681C49.1041 60.3081 49.2485 60.0771 49.3929 60.0771C49.5662 60.0771 49.6818 59.0661 49.6818 57.6219C49.6818 56.1777 49.5662 55.1667 49.3929 55.1667C49.2485 55.1667 49.1041 54.9067 49.1041 54.589C49.1041 54.2713 48.9019 54.0113 48.6708 54.0113C48.4397 54.0113 48.2375 53.8669 48.2375 53.6936C48.2375 53.2025 47.4576 52.5671 46.8511 52.5671C46.5333 52.5671 46.2156 52.4515 46.1578 52.3071C46.0423 51.9894 44.0781 51.7583 42.6917 51.9027ZM46.2445 55.4267C46.9377 56.1488 47.0821 56.4954 47.0821 57.6796C47.0533 59.0661 46.5911 60.0771 45.9556 60.0771C45.7823 60.0771 45.6379 60.1926 45.6379 60.3659C45.6379 60.7992 42.4895 60.7125 42.0562 60.2793C40.5542 58.7195 40.2943 57.0442 41.4497 55.9177C41.854 55.5133 42.1718 55.0512 42.1718 54.8778C42.1718 54.7045 42.865 54.589 43.7893 54.589C45.1758 54.589 45.4935 54.7045 46.2445 55.4267Z" fill="#121110"/>
<path d="M120.044 52.4515C119.841 52.9714 120.044 53.4336 120.477 53.4336C120.621 53.4336 120.737 53.1159 120.737 52.7115C120.737 51.9027 120.304 51.7294 120.044 52.4515Z" fill="#121110"/>
<path d="M122.557 52.4227C122.037 53.0004 122.095 53.1448 122.76 53.1448C123.135 53.1448 123.337 52.9426 123.337 52.5671C123.337 51.9027 123.048 51.845 122.557 52.4227Z" fill="#121110"/>
<path d="M87.3179 53.3469C86.9424 53.4046 86.6535 53.6068 86.6535 53.7512C86.6535 53.8957 86.5091 54.0112 86.3358 54.0112C85.9603 54.0112 85.2093 54.7333 85.2093 55.1088C85.2093 55.2821 85.036 55.4554 84.8627 55.5421C84.6027 55.5999 84.4872 56.2931 84.5161 57.6507C84.5161 59.4993 84.6027 59.7592 85.4115 60.5969C85.8736 61.1168 86.5091 61.5212 86.769 61.5212C87.029 61.5212 87.2312 61.6367 87.2312 61.81C87.2312 61.9545 87.8955 62.0989 88.6754 62.0989C89.4842 62.0989 90.1197 61.9545 90.1197 61.81C90.1197 61.6367 90.3218 61.5212 90.5818 61.5212C91.3617 61.5212 92.7193 59.9037 92.7193 58.9793C92.7193 58.4883 92.8637 58.055 93.037 57.9973C93.297 57.9106 93.297 57.7373 93.037 57.2752C92.8637 56.9285 92.7193 56.3797 92.7193 56.062C92.7193 55.7154 92.6037 55.4554 92.4304 55.4554C92.286 55.4554 92.1416 55.2532 92.1416 55.0222C92.1416 54.7911 91.9394 54.5889 91.7083 54.5889C91.4772 54.5889 91.275 54.5022 91.275 54.3578C91.275 54.2423 90.8707 53.9245 90.3796 53.6357C89.542 53.1736 88.6754 53.0869 87.3179 53.3469ZM90.0619 55.802C90.6107 56.0909 90.6973 56.3509 90.6973 57.824C90.6973 59.1238 90.6107 59.4993 90.2641 59.4993C90.033 59.4993 89.8308 59.6148 89.8308 59.7881C89.8308 59.9325 89.3687 60.077 88.8198 60.077C87.78 60.077 86.6535 59.2682 86.6535 58.5172C86.6535 58.2861 86.4802 58.0262 86.3069 57.9395C86.018 57.7951 86.018 57.7373 86.3069 57.5929C86.4802 57.5062 86.6535 57.1596 86.6535 56.7841C86.6535 56.4086 86.9712 55.9754 87.4623 55.6865C88.2422 55.1955 88.8487 55.2244 90.0619 55.802Z" fill="#121110"/>
<path d="M114.585 53.3469C114.239 53.6646 114.354 54.0112 114.816 54.0112C115.047 54.0112 115.25 53.809 115.25 53.578C115.25 53.1158 114.903 53.0003 114.585 53.3469Z" fill="#121110"/>
<path d="M107.162 54.5889C107.162 55.2821 107.335 55.311 107.913 54.7622C108.462 54.1845 108.433 54.0112 107.74 54.0112C107.364 54.0112 107.162 54.2134 107.162 54.5889Z" fill="#121110"/>
<path d="M110.628 54.5889C110.628 54.9644 110.83 55.1666 111.206 55.1666C111.581 55.1666 111.783 54.9644 111.783 54.5889C111.783 54.2134 111.581 54.0112 111.206 54.0112C110.83 54.0112 110.628 54.2134 110.628 54.5889Z" fill="#121110"/>
<path d="M119.293 56.0331C119.293 56.3509 119.495 56.6108 119.726 56.6108C119.957 56.6108 120.16 56.3509 120.16 56.0331C120.16 55.7154 119.957 55.4555 119.726 55.4555C119.495 55.4555 119.293 55.7154 119.293 56.0331Z" fill="#121110"/>
<path d="M124.203 56.7554C124.203 57.5353 124.232 57.5641 124.896 57.3042C125.59 57.0442 125.474 56.0333 124.781 56.0333C124.348 56.0333 124.203 56.2354 124.203 56.7554Z" fill="#121110"/>
<path d="M116.116 58.0551C116.116 58.4306 116.318 58.6328 116.694 58.6328C117.069 58.6328 117.272 58.4306 117.272 58.0551C117.272 57.6796 117.069 57.4774 116.694 57.4774C116.318 57.4774 116.116 57.6796 116.116 58.0551Z" fill="#121110"/>
<path d="M105.457 58.5173C105.111 58.9216 105.111 59.0083 105.457 59.2394C106.122 59.6438 106.295 59.5571 106.295 58.7772C106.295 57.9396 106.035 57.8818 105.457 58.5173Z" fill="#121110"/>
<path d="M112.968 58.5173C112.621 58.9216 112.621 59.0083 112.968 59.2394C113.632 59.6438 113.806 59.5571 113.806 58.7772C113.806 57.9396 113.546 57.8818 112.968 58.5173Z" fill="#121110"/>
<path d="M121.488 58.4883C121.199 59.2393 121.286 59.4993 121.748 59.4993C122.239 59.4993 122.297 58.9793 121.921 58.4017C121.719 58.0839 121.632 58.1128 121.488 58.4883Z" fill="#121110"/>
<path d="M109.184 61.5212C109.184 61.8967 109.386 62.0989 109.761 62.0989C110.137 62.0989 110.339 61.8967 110.339 61.5212C110.339 61.1457 110.137 60.9435 109.761 60.9435C109.386 60.9435 109.184 61.1457 109.184 61.5212Z" fill="#121110"/>
<path d="M21.7495 4.35874C21.8361 4.73424 22.0094 5.60078 22.125 6.26512L22.2983 7.47827L23.1071 6.64062C23.5692 6.14958 24.1469 5.77408 24.4357 5.77408C25.1001 5.77408 24.7824 5.48524 22.9915 4.44539L21.5762 3.63663L21.7495 4.35874Z" fill="#121110"/>
<path d="M65.5677 5.19633C65.5677 5.34075 65.3655 5.48518 65.1344 5.48518C64.9034 5.48518 64.7012 5.60071 64.7012 5.77402C64.7012 5.91844 65.0189 6.06287 65.4233 6.06287C65.9432 6.06287 66.1454 5.91844 66.1454 5.48518C66.1454 5.16745 66.0299 4.90748 65.8566 4.90748C65.7121 4.90748 65.5677 5.02302 65.5677 5.19633Z" fill="#121110"/>
<path d="M60.3688 6.3517C60.0799 6.52501 60.0511 6.64054 60.311 6.64054C60.4843 6.64054 60.6576 6.84274 60.6576 7.07381C60.6576 7.30489 60.7443 7.50708 60.8309 7.50708C61.062 7.50708 61.7841 6.58277 61.813 6.26504C61.813 5.9762 60.8887 6.00508 60.3688 6.3517Z" fill="#121110"/>
<path d="M58.0586 7.21823C58.0586 7.36266 58.3186 7.50708 58.6363 7.50708C58.954 7.50708 59.214 7.36266 59.214 7.21823C59.214 7.04493 58.954 6.92939 58.6363 6.92939C58.3186 6.92939 58.0586 7.04493 58.0586 7.21823Z" fill="#121110"/>
<path d="M63.3724 7.39161C63.4591 7.65157 63.5457 7.91153 63.5457 7.9693C63.5457 8.02707 63.8057 8.08484 64.1234 8.08484C64.4989 8.08484 64.7011 7.88265 64.7011 7.50715C64.7011 7.07388 64.4989 6.92946 63.9501 6.92946C63.3724 6.92946 63.228 7.045 63.3724 7.39161Z" fill="#121110"/>
<path d="M71.547 8.28702C71.1715 8.63363 71.3448 9.52905 71.7781 9.52905C72.038 9.52905 72.2113 9.26909 72.2113 8.80694C72.2113 8.11371 71.9225 7.88263 71.547 8.28702Z" fill="#121110"/>
<path d="M82.0324 8.57591C82.0324 8.7781 81.7147 8.95141 81.3392 8.95141C80.9637 8.95141 80.5593 9.1536 80.4726 9.41356C80.3571 9.67352 80.3282 9.9046 80.3571 9.93348C80.4149 9.96237 80.877 10.1934 81.3969 10.4534C81.9457 10.7423 82.8701 10.9733 83.4766 10.9733C84.1121 10.9733 84.632 11.1178 84.6898 11.3199C84.7764 11.5799 84.9786 11.551 85.3541 11.1755C85.7007 10.8289 86.1051 10.7134 86.5384 10.8C86.9428 10.9156 87.2316 10.8578 87.2316 10.6845C87.2316 10.5401 86.9139 10.3956 86.5095 10.3956C86.0185 10.3956 85.6719 10.1646 85.4697 9.70241C85.123 8.98029 83.8521 8.54703 83.0145 8.86476C82.7545 8.95141 82.4368 8.86476 82.2924 8.63368C82.1191 8.34483 82.0324 8.34483 82.0324 8.57591Z" fill="#121110"/>
<path d="M55.1699 9.529C55.1699 9.84673 55.3143 10.1067 55.4588 10.1067C55.6321 10.1067 55.7476 9.96227 55.7476 9.81784C55.7476 9.64454 55.9498 9.529 56.1809 9.529C56.412 9.529 56.6141 9.38458 56.6141 9.24015C56.6141 9.06685 56.2964 8.95131 55.892 8.95131C55.3721 8.95131 55.1699 9.09573 55.1699 9.529Z" fill="#121110"/>
<path d="M57.1914 9.529C57.1914 9.96227 57.3936 10.1067 57.9135 10.1067C58.4334 10.1067 58.6356 9.96227 58.6356 9.529C58.6356 9.09573 58.4334 8.95131 57.9135 8.95131C57.3936 8.95131 57.1914 9.09573 57.1914 9.529Z" fill="#121110"/>
<path d="M61.5244 9.78903C61.5244 9.93346 61.7266 10.1356 61.9866 10.2223C62.622 10.4823 62.6798 10.4534 62.6798 9.96234C62.6798 9.73127 62.4198 9.52907 62.1021 9.52907C61.7844 9.52907 61.5244 9.64461 61.5244 9.78903Z" fill="#121110"/>
<path d="M63.488 10.3955C63.0259 10.8577 62.6793 11.3776 62.6793 11.522C62.6793 11.6953 62.5637 11.8397 62.3904 11.8397C62.246 11.8397 62.1016 12.3597 62.1016 12.9951C62.1016 13.6306 62.246 14.1505 62.3904 14.1505C62.5637 14.1505 62.6793 14.2949 62.6793 14.4682C62.6793 14.9015 63.8058 15.8836 64.3257 15.8836C64.5279 15.8836 64.7012 15.9991 64.7012 16.1724C64.7012 16.6346 67.1852 16.4902 68.3117 15.9702C68.8605 15.7103 69.3805 15.2481 69.496 14.9593C69.5827 14.6704 69.7849 14.4394 69.9293 14.4394C70.0737 14.4394 70.1892 13.775 70.1892 12.9951C70.1892 12.1864 70.0737 11.5509 69.9004 11.5509C69.756 11.5509 69.6115 11.3487 69.6115 11.1176C69.6115 10.8577 69.2938 10.5111 68.8894 10.3378C68.485 10.1644 68.1673 9.90448 68.1673 9.76006C68.1673 9.64452 67.3008 9.52898 66.2321 9.52898C64.4412 9.55787 64.1813 9.64452 63.488 10.3955ZM66.7231 11.2621C66.7231 11.4065 67.0408 11.5509 67.4452 11.5509C67.9074 11.5509 68.1673 11.7242 68.1673 11.9842C68.1673 12.2152 68.3117 12.4174 68.4562 12.4174C68.6295 12.4174 68.745 12.6774 68.745 12.9951C68.745 13.3129 68.6295 13.5728 68.4562 13.5728C68.3117 13.5728 68.1673 13.775 68.1673 14.0061C68.1673 14.2661 67.9074 14.4394 67.4741 14.4394C67.0986 14.4394 66.6942 14.6127 66.6076 14.786C66.4631 15.0748 66.4054 15.0748 66.2609 14.786C66.1743 14.6127 65.8566 14.4394 65.5677 14.4394C64.4412 14.4394 64.1235 14.1216 64.1235 12.9951C64.1235 11.8686 64.4412 11.5509 65.5966 11.5509C65.8854 11.5509 66.1454 11.4065 66.1454 11.2621C66.1454 11.0887 66.2898 10.9732 66.4342 10.9732C66.6076 10.9732 66.7231 11.0887 66.7231 11.2621Z" fill="#121110"/>
<path d="M79.7207 11.6954C79.7207 12.4464 79.9229 12.533 80.7028 12.2442C81.2805 12.0131 81.3094 11.5509 80.7317 11.5509C80.5006 11.5509 80.2984 11.4065 80.2984 11.2621C80.2984 11.0888 80.1829 10.9732 80.0095 10.9732C79.8651 10.9732 79.7207 11.291 79.7207 11.6954Z" fill="#121110"/>
<path d="M72.9625 12.3886C72.7315 12.7352 73.0492 13.5729 73.3958 13.5729C73.5402 13.5729 73.6558 13.2551 73.6558 12.8508C73.6558 12.1286 73.2514 11.8687 72.9625 12.3886Z" fill="#121110"/>
<path d="M76.9196 12.8508C76.3997 13.4285 76.4575 13.5729 77.1218 13.5729C77.4973 13.5729 77.6995 13.3707 77.6995 12.9952C77.6995 12.3308 77.4107 12.2731 76.9196 12.8508Z" fill="#121110"/>
<path d="M84.6318 14.0062C84.6318 14.2373 84.7763 14.4395 84.9207 14.4395C85.094 14.4395 85.2095 14.2373 85.2095 14.0062C85.2095 13.7751 85.094 13.5729 84.9207 13.5729C84.7763 13.5729 84.6318 13.7751 84.6318 14.0062Z" fill="#121110"/>
<path d="M75.6777 16.3169C75.6777 16.7213 75.8222 17.0391 75.9666 17.0391C76.1399 17.0391 76.2554 16.7213 76.2554 16.3169C76.2554 15.9126 76.1399 15.5948 75.9666 15.5948C75.8222 15.5948 75.6777 15.9126 75.6777 16.3169Z" fill="#121110"/>
<path d="M91.9392 16.3169C91.4193 16.8946 91.477 17.0391 92.1414 17.0391C92.5169 17.0391 92.7191 16.8369 92.7191 16.4614C92.7191 15.797 92.4302 15.7393 91.9392 16.3169Z" fill="#121110"/>
<path d="M88.6758 16.6058C88.6758 16.8369 88.8202 17.0391 88.9646 17.0391C89.1379 17.0391 89.2535 16.8369 89.2535 16.6058C89.2535 16.3747 89.1379 16.1725 88.9646 16.1725C88.8202 16.1725 88.6758 16.3747 88.6758 16.6058Z" fill="#121110"/>
<path d="M72.2109 17.039C72.2109 17.7322 72.3842 17.7611 72.9619 17.2123C73.5107 16.6346 73.4819 16.4613 72.7886 16.4613C72.4131 16.4613 72.2109 16.6635 72.2109 17.039Z" fill="#121110"/>
<path d="M69.6113 18.31C69.6113 18.7144 69.7558 19.061 69.9002 19.061C70.0735 19.061 70.189 18.8588 70.189 18.6278C70.189 18.3967 70.189 18.1078 70.2179 17.9923C70.2179 17.8768 70.1024 17.7323 69.9291 17.6746C69.7558 17.6168 69.6113 17.9057 69.6113 18.31Z" fill="#121110"/>
<path d="M50.2598 18.7721C50.2598 18.9165 50.0576 19.0609 49.7976 19.0609C49.5665 19.0609 48.96 19.4364 48.4978 19.8986C47.7468 20.6496 47.6602 20.9384 47.6602 22.5271C47.6602 24.0869 47.7468 24.3757 48.5267 25.1267C49.0177 25.6177 49.6821 25.9932 49.9709 25.9932C50.2887 25.9932 50.5486 26.1088 50.5486 26.2821C50.5486 26.4554 51.3285 26.5709 52.2817 26.5709C53.2349 26.5709 54.0148 26.4554 54.0148 26.2821C54.0148 26.1088 54.2747 25.9932 54.5924 25.9932C55.0835 25.9932 55.7478 25.4444 56.8454 24.1446C57.2498 23.6247 57.3076 21.0829 56.9032 21.0829C56.7588 21.0829 56.6144 20.8807 56.6144 20.6496C56.6144 20.4185 56.3544 19.9564 56.0367 19.6386C55.7189 19.3209 55.2568 19.0609 55.0257 19.0609C54.7946 19.0609 54.5924 18.9165 54.5924 18.7721C54.5924 18.5988 53.6681 18.4832 52.4261 18.4832C51.1841 18.4832 50.2598 18.5988 50.2598 18.7721ZM54.448 21.2273C55.1701 21.9205 55.4301 23.1048 54.8813 23.1048C54.7369 23.1048 54.5924 23.307 54.5924 23.538C54.5924 23.7691 54.3903 23.9713 54.1592 23.9713C53.9281 23.9713 53.7259 24.0869 53.7259 24.2602C53.7259 24.4046 53.1482 24.549 52.4261 24.549C51.704 24.549 51.1263 24.4335 51.1263 24.289C51.1263 24.1446 50.8375 23.9713 50.4908 23.9135C49.9132 23.8269 49.8265 23.6247 49.7398 22.4404C49.6821 21.3717 49.7398 21.0829 50.0865 21.0829C50.3464 21.0829 50.5486 20.9384 50.5486 20.794C50.5486 20.6207 51.2707 20.5052 52.1373 20.5052C53.466 20.5052 53.8703 20.6207 54.448 21.2273Z" fill="#121110"/>
<path d="M95.6074 18.7144C95.6074 18.83 95.7518 19.0899 95.954 19.2921C96.474 19.812 96.7628 19.7254 96.7628 19.061C96.7628 18.6855 96.5606 18.4833 96.1851 18.4833C95.8674 18.4833 95.6074 18.5989 95.6074 18.7144Z" fill="#121110"/>
<path d="M88.6758 19.783C88.6758 20.1874 88.8202 20.5051 88.9646 20.5051C89.1379 20.5051 89.2535 20.1874 89.2535 19.783C89.2535 19.3786 89.1379 19.0609 88.9646 19.0609C88.8202 19.0609 88.6758 19.3786 88.6758 19.783Z" fill="#121110"/>
<path d="M73.8003 20.0431C73.4826 20.2741 73.0493 20.5052 72.8471 20.5052C72.0672 20.5052 71.5762 21.4006 71.5762 22.7871C71.5762 23.9136 71.7206 24.3758 72.3561 25.0979C73.1071 25.9355 73.3092 25.9933 75.129 25.9933C76.8332 25.9933 77.1798 25.9066 77.8152 25.2712C78.2196 24.8668 78.6818 24.5491 78.8551 24.5491C79.3172 24.5491 79.2017 22.3538 78.6529 21.4006C78.364 20.9096 77.9308 20.5052 77.6419 20.5052C77.382 20.5052 77.122 20.3897 77.0642 20.2453C77.0354 20.1008 76.3999 19.8986 75.6778 19.7831C74.7246 19.6387 74.2336 19.7253 73.8003 20.0431ZM76.2555 21.5739C77.4975 22.4116 77.873 22.9026 77.4686 23.0471C77.2953 23.1048 77.122 23.2781 77.122 23.4514C77.122 24.058 76.2266 24.5491 75.1001 24.5491C73.8869 24.5491 73.0782 24.058 73.0782 23.307C73.0782 22.4405 73.4826 21.8917 74.3491 21.4873C75.5045 20.9963 75.4178 20.9963 76.2555 21.5739Z" fill="#121110"/>
<path d="M92.7192 20.794C92.7192 20.9385 92.4881 21.0829 92.1993 21.0829C91.3905 21.0829 90.6973 22.1227 90.6973 23.3648C90.6973 24.4335 90.7839 24.549 92.1993 25.2423C93.2102 25.7333 93.7879 25.9066 93.9901 25.7044C94.1345 25.56 94.4811 25.4156 94.7411 25.4156C95.3766 25.4156 96.763 23.8269 96.763 23.1048C96.763 22.7871 96.6475 22.5271 96.4742 22.5271C96.3298 22.5271 96.1853 22.3827 96.1853 22.2094C96.1853 21.805 95.4632 21.0829 95.0588 21.0829C94.8855 21.0829 94.7411 20.9385 94.7411 20.794C94.7411 20.6207 94.279 20.5052 93.7301 20.5052C93.1813 20.5052 92.7192 20.6207 92.7192 20.794ZM94.9144 22.3538C95.7521 23.1915 95.0299 24.549 93.759 24.549C92.4015 24.549 91.6793 23.307 92.517 22.3827C92.9791 21.8339 94.3656 21.8339 94.9144 22.3538Z" fill="#121110"/>
<path d="M81.7432 21.805C81.7432 22.3827 81.8876 22.5271 82.4653 22.5271C83.3029 22.5271 83.5051 21.545 82.7252 21.2562C81.9454 20.9673 81.7432 21.054 81.7432 21.805Z" fill="#121110"/>
<path d="M101.674 21.5162C101.674 21.8339 101.876 21.9495 102.338 21.8917C102.685 21.8339 102.974 21.6606 102.974 21.5162C102.974 21.3429 102.685 21.1985 102.338 21.1407C101.876 21.0829 101.674 21.1985 101.674 21.5162Z" fill="#121110"/>
<path d="M69.6113 21.9494C69.6113 22.3249 69.8135 22.5271 70.189 22.5271C70.5645 22.5271 70.7667 22.3249 70.7667 21.9494C70.7667 21.5739 70.5645 21.3717 70.189 21.3717C69.8135 21.3717 69.6113 21.5739 69.6113 21.9494Z" fill="#121110"/>
<path d="M99.1895 22.4115C99.2762 22.6715 99.3628 22.9314 99.3628 22.9892C99.3628 23.047 99.565 23.1047 99.7961 23.1047C100.027 23.1047 100.229 22.8448 100.229 22.527C100.229 22.1227 100.027 21.9494 99.6228 21.9494C99.1895 21.9494 99.074 22.0649 99.1895 22.4115Z" fill="#121110"/>
<path d="M86.0762 22.9604C86.0762 23.1914 86.1339 23.3936 86.1917 23.3936C86.2495 23.3936 86.5094 23.4803 86.7694 23.5669C87.116 23.6825 87.2316 23.5669 87.2316 23.1337C87.2316 22.7293 87.0582 22.5271 86.6539 22.5271C86.3361 22.5271 86.0762 22.7293 86.0762 22.9604Z" fill="#121110"/>
<path d="M109.963 23.5959C109.501 24.0292 109.79 24.5491 110.483 24.5491C111.321 24.5491 111.378 24.3758 110.801 23.7981C110.338 23.3359 110.223 23.307 109.963 23.5959Z" fill="#121110"/>
<path d="M103.118 24.2313C103.118 24.3757 103.32 24.5779 103.58 24.6646C104.216 24.9245 104.274 24.8956 104.274 24.4046C104.274 24.1735 104.014 23.9713 103.696 23.9713C103.378 23.9713 103.118 24.0869 103.118 24.2313Z" fill="#121110"/>
<path d="M105.717 24.2602C105.717 24.4046 105.919 24.549 106.15 24.549C106.381 24.549 106.67 24.549 106.786 24.5779C106.901 24.5779 107.045 24.4623 107.103 24.289C107.161 24.1157 106.872 23.9713 106.468 23.9713C106.063 23.9713 105.717 24.0868 105.717 24.2602Z" fill="#121110"/>
<path d="M81.7432 25.0979C81.7432 25.8778 82.2342 26.1088 82.7541 25.5889C83.3896 24.9535 83.274 24.5491 82.4653 24.5491C81.9454 24.5491 81.7432 24.6935 81.7432 25.0979Z" fill="#121110"/>
<path d="M32.7836 25.329C32.4658 25.4156 32.0903 25.5889 31.9459 25.7334C31.7726 25.8778 31.4837 25.9933 31.2527 25.9933C30.415 25.9933 29.9529 26.8887 29.924 28.5929C29.8951 30.0372 30.0106 30.3838 30.5883 30.8748C30.9638 31.2214 31.4549 31.4814 31.6859 31.4814C31.8881 31.4814 32.0614 31.5969 32.0614 31.7702C32.0614 31.9147 32.6391 32.0591 33.3612 32.0591C34.0834 32.0591 34.661 31.9147 34.661 31.7702C34.661 31.5969 34.8632 31.4814 35.1232 31.4814C35.3832 31.4814 35.9897 31.077 36.4519 30.6149C38.1272 28.824 37.4051 26.6577 34.7188 25.6178C34.0545 25.3579 33.4768 25.1557 33.419 25.1557C33.3901 25.1846 33.1013 25.2423 32.7836 25.329ZM35.0654 27.6109C35.5565 28.073 35.6431 28.7951 35.3543 29.575C35.2099 29.9216 34.7766 30.0372 33.5923 30.0372C31.3682 30.0372 30.5594 29.0551 31.6859 27.7264C32.3214 27.0043 34.4011 26.9176 35.0654 27.6109Z" fill="#121110"/>
<path d="M97.6304 25.3867C97.6304 25.5311 97.5437 25.8488 97.4571 26.1088C97.3415 26.4265 97.4282 26.5709 97.7459 26.5709C98.0348 26.5709 98.2081 26.311 98.2081 25.8488C98.2081 25.4444 98.0925 25.1267 97.9192 25.1267C97.7748 25.1267 97.6304 25.2422 97.6304 25.3867Z" fill="#121110"/>
<path d="M111.697 25.8199C111.004 26.3398 111.091 26.5709 111.928 26.5709C112.679 26.5709 112.795 26.3687 112.419 25.791C112.275 25.56 112.102 25.56 111.697 25.8199Z" fill="#121110"/>
<path d="M90.6973 26.571C90.6973 27.0043 90.8995 27.1487 91.4483 27.1487C92.026 27.1487 92.1704 27.0331 92.026 26.6865C91.9393 26.4266 91.8526 26.1666 91.8526 26.1088C91.8526 26.0511 91.5927 25.9933 91.275 25.9933C90.8995 25.9933 90.6973 26.1955 90.6973 26.571Z" fill="#121110"/>
<path d="M115.827 26.542C115.827 27.2352 116.203 27.4952 116.809 27.2641C117.589 26.9753 117.387 25.9932 116.549 25.9932C116.029 25.9932 115.827 26.1376 115.827 26.542Z" fill="#121110"/>
<path d="M85.7871 27.293C85.7871 27.7552 85.9604 28.0151 86.2204 28.0151C86.4803 28.0151 86.6536 27.7552 86.6536 27.293C86.6536 26.8309 86.4803 26.5709 86.2204 26.5709C85.9604 26.5709 85.7871 26.8309 85.7871 27.293Z" fill="#121110"/>
<path d="M100.865 27.0331C100.981 27.6397 101.501 27.6975 101.616 27.062C101.674 26.7732 101.529 26.571 101.241 26.571C100.952 26.571 100.807 26.7443 100.865 27.0331Z" fill="#121110"/>
<path d="M105.053 27.1486C104.88 27.8708 105.255 28.1307 105.919 27.7552C106.208 27.5819 106.266 27.4375 106.093 27.4375C105.891 27.4375 105.717 27.2353 105.717 27.0042C105.717 26.3688 105.226 26.4843 105.053 27.1486Z" fill="#121110"/>
<path d="M68.9181 27.4086C68.6293 27.8708 69.0625 28.5929 69.6402 28.5929C70.0446 28.5929 70.189 28.3907 70.189 27.8708C70.189 27.3509 70.0446 27.1487 69.6402 27.1487C69.3225 27.1487 69.0048 27.2642 68.9181 27.4086Z" fill="#121110"/>
<path d="M108.49 27.4085C108.375 27.5529 108.404 27.8995 108.49 28.1595C108.635 28.535 108.721 28.5639 108.924 28.2462C109.068 28.044 109.183 27.6974 109.183 27.4952C109.183 27.0908 108.721 27.033 108.49 27.4085Z" fill="#121110"/>
<path d="M82.6094 28.0152C82.6094 28.3907 82.8116 28.5929 83.1871 28.5929C83.5626 28.5929 83.7648 28.3907 83.7648 28.0152C83.7648 27.6397 83.5626 27.4375 83.1871 27.4375C82.8116 27.4375 82.6094 27.6397 82.6094 28.0152Z" fill="#121110"/>
<path d="M73.6562 28.7661C73.6562 29.1705 73.8007 29.4593 73.974 29.4016C74.1473 29.3438 74.2628 29.1994 74.2628 29.0838C74.2339 28.9683 74.2339 28.6795 74.2339 28.4484C74.2339 28.2173 74.1184 28.0151 73.9451 28.0151C73.8007 28.0151 73.6562 28.3617 73.6562 28.7661Z" fill="#121110"/>
<path d="M78.5664 28.5928C78.5664 28.9683 78.7686 29.1705 79.1441 29.1705C79.5196 29.1705 79.7218 28.9683 79.7218 28.5928C79.7218 28.2173 79.5196 28.0152 79.1441 28.0152C78.7686 28.0152 78.5664 28.2173 78.5664 28.5928Z" fill="#121110"/>
<path d="M97.0527 28.1885C97.0527 28.3906 97.8326 29.1705 98.0348 29.1705C98.1215 29.1705 98.2081 28.9106 98.2081 28.5928C98.2081 28.2173 98.0059 28.0152 97.6304 28.0152C97.3127 28.0152 97.0527 28.1018 97.0527 28.1885Z" fill="#121110"/>
<path d="M87.9821 28.8528C87.751 29.1995 88.0687 30.0371 88.4153 30.0371C88.5598 30.0371 88.6753 29.7194 88.6753 29.315C88.6753 28.5929 88.2709 28.3329 87.9821 28.8528Z" fill="#121110"/>
<path d="M93.4998 29.3728C93.0954 29.7483 93.3265 30.0371 94.0197 30.0371C94.4818 30.0371 94.7418 29.8638 94.7418 29.6038C94.7418 29.1706 93.8464 28.9973 93.4998 29.3728Z" fill="#121110"/>
<path d="M85.209 30.037C85.209 30.7302 85.6423 30.8169 85.9022 30.1526C86.1622 29.5171 86.1333 29.4593 85.6423 29.4593C85.4112 29.4593 85.209 29.7193 85.209 30.037Z" fill="#121110"/>
<path d="M78.5664 30.7592C78.5664 31.2791 78.7108 31.4813 79.1441 31.4813C79.5774 31.4813 79.7218 31.2791 79.7218 30.7592C79.7218 30.2393 79.5774 30.0371 79.1441 30.0371C78.7108 30.0371 78.5664 30.2393 78.5664 30.7592Z" fill="#121110"/>
<path d="M82.3787 30.6725C82.5231 31.5968 83.1875 31.6835 83.1875 30.7881C83.1875 30.297 83.043 30.0371 82.7253 30.0371C82.4365 30.0371 82.3209 30.2393 82.3787 30.6725Z" fill="#121110"/>
<path d="M69.6113 31.7413C69.6113 32.0879 70.449 32.4056 70.7956 32.1746C71.3155 31.8857 71.0556 31.4813 70.3334 31.4813C69.9291 31.4813 69.6113 31.5969 69.6113 31.7413Z" fill="#121110"/>
<path d="M75.0996 31.9146C75.0996 32.4056 75.1574 32.4345 75.7928 32.1746C76.4572 31.9146 76.3705 31.4813 75.6773 31.4813C75.3596 31.4813 75.0996 31.6835 75.0996 31.9146Z" fill="#121110"/>
<path d="M66.1455 32.7811C66.1455 33.561 66.1744 33.5899 66.8387 33.3299C67.532 33.07 67.4164 32.059 66.7232 32.059C66.2899 32.059 66.1455 32.2612 66.1455 32.7811Z" fill="#121110"/>
</svg>
