<svg width="32" height="48" viewBox="0 0 32 48" fill="none" xmlns="http://www.w3.org/2000/svg">
<path d="M14.4 0.75H17.6C25.1387 0.75 31.25 6.86131 31.25 14.4V33.6C31.25 41.1387 25.1387 47.25 17.6 47.25H14.4C6.86131 47.25 0.75 41.1387 0.75 33.6V14.4C0.75 6.86131 6.86131 0.75 14.4 0.75Z" stroke="#121110" stroke-width="1.5" stroke-linecap="round" stroke-linejoin="round"/>
<path d="M19.1988 14.3999C19.1988 15.2486 18.8617 16.0625 18.2616 16.6626C17.6615 17.2627 16.8475 17.5999 15.9988 17.5999C15.1501 17.5999 14.3362 17.2627 13.7361 16.6626C13.136 16.0625 12.7988 15.2486 12.7988 14.3999V11.1999C12.7988 10.3512 13.136 9.53725 13.7361 8.93714C14.3362 8.33702 15.1501 7.99988 15.9988 7.99988C16.8475 7.99988 17.6615 8.33702 18.2616 8.93714C18.8617 9.53725 19.1988 10.3512 19.1988 11.1999V14.3999Z" stroke="#121110" stroke-width="1.5" stroke-linecap="round" stroke-linejoin="round"/>
</svg>
