<svg width="303" height="305" viewBox="0 0 303 305" fill="none" xmlns="http://www.w3.org/2000/svg">
<path d="M96.4545 58.5409C97.0455 59.0368 97.0693 59.3085 96.5733 59.8996C96.0526 60.5201 96.1012 60.7623 96.84 61.3822C97.5788 62.0022 97.6273 62.2444 97.1314 62.8354C96.6107 63.456 96.6888 63.7229 97.8403 64.9913C98.9918 66.2597 99.0699 66.5267 98.5492 67.1472C98.078 67.7087 98.1018 67.9805 98.6928 68.4764C99.2839 68.9723 99.3076 69.2441 98.8117 69.8351C98.291 70.4557 98.3395 70.6979 99.0783 71.3178C99.8171 71.9377 99.8657 72.1799 99.345 72.8005C98.849 73.3915 98.8728 73.6632 99.4638 74.1592C100.084 74.6799 100.079 74.9269 99.4587 75.6656C98.8388 76.4044 98.833 76.6514 99.4536 77.1721C100.045 77.668 100.068 77.9398 99.5725 78.5308C99.0765 79.1218 99.1003 79.3936 99.6913 79.8895C100.282 80.3855 100.306 80.6572 99.835 81.2187C99.3639 81.7801 99.3924 82.1062 99.9386 82.7156C100.539 83.3203 100.572 83.7007 100.111 84.3709C99.6539 85.0954 99.6824 85.4215 100.214 85.8678C100.805 86.3638 100.775 86.6402 99.8611 88.0893C98.9473 89.5383 98.9168 89.8148 99.5374 90.3356C100.099 90.8067 100.123 91.0785 99.6267 91.6695C99.1307 92.2605 99.1545 92.5323 99.7455 93.0282C100.337 93.5241 100.36 93.7959 99.8644 94.3869C99.3685 94.9779 99.3923 95.2497 99.9833 95.7456C100.604 96.2663 100.598 96.5133 99.9782 97.2521C99.3583 97.9908 99.3525 98.2378 99.9731 98.7585C100.564 99.2545 100.588 99.5262 100.092 100.117C99.596 100.708 99.6198 100.98 100.181 101.451C100.743 101.922 100.771 102.248 100.339 102.943C99.8528 103.643 99.886 104.023 100.457 104.603C101.151 105.337 101.136 105.475 99.9703 106.864L98.7552 108.312L100.203 109.527C101.592 110.692 101.631 110.826 101.1 111.639C100.663 112.28 100.647 112.719 101.07 113.175C101.862 114.092 100.756 115.53 99.8693 114.786C99.426 114.414 99.1047 114.497 98.6583 115.029C98.1376 115.65 97.8907 115.644 97.1519 115.024C96.2949 114.305 96.2405 114.31 95.0255 115.758C93.8849 117.117 93.7266 117.186 93.0764 116.64C92.5149 116.169 92.1888 116.197 91.5795 116.744C90.9748 117.344 90.5944 117.377 89.8947 116.891C89.1997 116.459 88.8736 116.487 88.4025 117.049C87.9313 117.61 87.6596 117.634 87.0686 117.138C86.448 116.618 86.2058 116.666 85.5859 117.405C84.966 118.144 84.7238 118.192 84.1032 117.671C83.4235 117.101 83.29 117.14 82.1246 118.529C80.9591 119.918 80.8256 119.957 80.1459 119.387C79.5549 118.891 79.2832 118.915 78.812 119.476C78.3409 120.038 78.0148 120.066 77.2903 119.609C76.6201 119.148 76.2397 119.181 75.6598 119.752C75.0257 120.328 74.6996 120.356 74.1381 119.885C73.488 119.34 73.3297 119.408 72.189 120.768C71.0236 122.156 70.8901 122.195 70.2104 121.625C69.6194 121.129 69.3476 121.153 68.8517 121.744C68.3558 122.335 68.084 122.359 67.5225 121.888C66.9611 121.417 66.635 121.445 66.0256 121.991C65.421 122.592 65.0405 122.625 64.3408 122.139C63.5276 121.607 63.3941 121.646 62.2287 123.035C61.088 124.395 60.9545 124.434 60.2749 123.864C59.6543 123.343 59.4121 123.391 58.7922 124.13C58.1722 124.869 57.9301 124.918 57.3095 124.397C56.7185 123.901 56.4467 123.925 55.9508 124.516C55.4548 125.107 55.1831 125.13 54.6216 124.659C54.001 124.139 53.7341 124.217 52.4657 125.368C51.1973 126.52 50.9303 126.598 50.3098 126.077C49.7187 125.581 49.4765 125.63 48.8566 126.369C48.2367 127.107 47.9945 127.156 47.4035 126.66C46.7829 126.139 46.5159 126.217 45.2476 127.369C44.0784 128.402 43.6827 128.574 43.2394 128.202C42.7666 127.805 42.4795 127.967 41.3141 129.356C40.1238 130.774 40.0094 131.031 40.5413 131.477C40.9846 131.849 40.9588 132.18 40.5124 132.712C39.9917 133.332 40.0403 133.575 40.779 134.195C41.5769 134.864 41.5912 135.027 40.9217 135.825C40.2026 136.682 40.2073 136.736 41.6554 137.951C43.0443 139.117 43.0833 139.25 42.513 139.93C41.9923 140.551 42.0409 140.793 42.7796 141.413C43.5184 142.033 43.567 142.275 43.0711 142.866C42.5999 143.427 42.6285 143.753 43.1747 144.363C43.7161 144.918 43.8085 145.348 43.4708 145.87C43.138 146.447 43.2551 146.847 44.3428 148.012C45.4647 149.255 45.5428 149.522 45.0221 150.143C44.551 150.705 44.5747 150.976 45.1658 151.472C45.7568 151.968 45.7806 152.24 45.2846 152.831C44.7143 153.511 44.7534 153.644 46.1423 154.81C47.5312 155.975 47.5703 156.108 46.9999 156.788C46.4792 157.409 46.5278 157.651 47.2666 158.271C48.0054 158.891 48.0539 159.133 47.5332 159.754C47.0373 160.345 47.061 160.616 47.6521 161.112C48.2727 161.633 48.2669 161.88 47.647 162.619C46.9031 163.505 46.9326 163.53 48.5284 164.869C50.0651 166.158 50.1289 166.262 49.5338 166.972C49.0379 167.563 49.0617 167.834 49.6527 168.33C50.2437 168.826 50.2675 169.098 49.7964 169.66C49.3252 170.221 49.3538 170.547 49.8999 171.156C50.4414 171.712 50.5338 172.142 50.1961 172.664C49.8136 173.3 49.9556 173.671 51.0432 174.835C52.1652 176.079 52.2681 176.316 51.7474 176.937C51.2762 177.498 51.3 177.77 51.891 178.266C52.4821 178.762 52.5059 179.034 52.0099 179.625C51.4892 180.245 51.5378 180.487 52.2765 181.107C53.0153 181.727 53.0639 181.969 52.568 182.56C52.1216 183.092 52.1254 183.448 52.5238 183.933C52.9766 184.414 52.9603 184.854 52.5482 185.465C51.9922 186.307 52.0312 186.441 53.4202 187.606C54.7795 188.747 54.8186 188.88 54.2483 189.56C53.7275 190.181 53.7761 190.423 54.5149 191.043C55.2537 191.663 55.3023 191.905 54.7815 192.526C54.2856 193.117 54.3094 193.388 54.9004 193.884C55.521 194.405 55.5152 194.652 54.8953 195.391C54.2258 196.189 54.24 196.352 55.0379 197.021C55.7767 197.641 55.8253 197.883 55.3046 198.504C54.7342 199.184 54.8028 199.342 55.9849 200.334C57.1965 201.35 57.2651 201.509 56.7339 202.322C56.2474 203.022 56.2807 203.402 56.8517 203.982C57.4275 204.616 57.456 204.942 56.9849 205.504C56.4889 206.095 56.5375 206.337 57.2763 206.957C58.0151 207.577 58.0636 207.819 57.5429 208.439C56.9726 209.119 57.0116 209.253 58.4006 210.418C59.7599 211.559 59.8286 211.717 59.283 212.367C58.7127 213.047 58.7813 213.205 60.1254 214.484C61.3808 215.688 61.5428 215.975 61.1852 216.582C60.7779 217.247 60.9647 217.505 63.4803 219.968C65.9959 222.431 66.1827 222.689 65.7755 223.354C65.3434 224.049 65.4616 224.148 70.7951 228.775L76.3012 233.496L75.6813 234.235C75.0862 234.944 75.1205 235.023 77.2778 236.833C79.435 238.643 79.5189 238.663 80.114 237.954L80.734 237.215L85.9646 241.604C92.2591 246.886 93.5651 247.73 94.2098 246.962C94.5818 246.518 94.8878 246.574 95.6857 247.243C97.9021 249.103 99.7068 250.013 100.153 249.481C100.624 248.92 102.138 249.636 104.355 251.496C105.507 252.463 105.675 252.503 106.245 251.823C106.84 251.114 106.924 251.134 109.081 252.944C111.209 254.73 111.323 254.775 111.893 254.095C112.414 253.474 112.665 253.534 114.287 254.543C115.741 255.511 116.16 255.611 116.532 255.168C116.855 254.783 117.265 254.775 117.905 255.212C118.575 255.673 118.956 255.64 119.56 255.04C120.269 254.375 120.407 254.39 121.796 255.556C123.156 256.697 123.294 256.712 123.864 256.032C124.434 255.352 124.573 255.368 125.932 256.508C127.321 257.674 127.459 257.689 128.193 256.995C128.772 256.424 129.153 256.391 129.853 256.877C130.548 257.309 130.874 257.281 131.345 256.719C131.816 256.158 132.088 256.134 132.679 256.63C133.27 257.126 133.541 257.102 134.037 256.511C134.558 255.891 134.805 255.896 135.544 256.516C136.283 257.136 136.53 257.142 137.05 256.521C137.546 255.93 137.818 255.907 138.409 256.403C139 256.898 139.272 256.875 139.768 256.284C140.264 255.693 140.535 255.669 141.126 256.165C141.747 256.686 141.989 256.637 142.609 255.898C143.279 255.1 143.442 255.086 144.24 255.756C144.978 256.375 145.225 256.381 145.721 255.79C146.168 255.258 146.518 255.2 147.095 255.533C147.731 255.916 147.993 255.783 149.099 254.646C150.229 253.479 150.412 253.381 151.092 253.951C151.683 254.447 151.925 254.399 152.545 253.66C153.165 252.921 153.407 252.872 153.998 253.368C154.618 253.889 154.856 253.786 156.099 252.664C157.264 251.577 157.635 251.435 158.271 251.817C158.793 252.155 159.223 252.062 159.778 251.521C160.387 250.975 160.714 250.946 161.275 251.417C161.925 251.963 162.083 251.894 163.224 250.535C164.39 249.146 164.523 249.107 165.203 249.677C165.823 250.198 166.065 250.149 166.685 249.411C167.355 248.613 167.518 248.598 168.316 249.268C169.055 249.888 169.302 249.894 169.822 249.273C170.318 248.682 170.59 248.658 171.181 249.154C171.802 249.675 172.044 249.626 172.664 248.888C173.284 248.149 173.526 248.1 174.146 248.621C174.737 249.117 175.009 249.093 175.505 248.502C176.001 247.911 176.273 247.887 176.864 248.383C177.455 248.879 177.727 248.855 178.223 248.264C178.743 247.644 178.99 247.65 179.729 248.269C180.468 248.889 180.715 248.895 181.235 248.275C181.731 247.684 182.003 247.66 182.594 248.156C183.185 248.652 183.457 248.628 183.928 248.066C184.399 247.505 184.725 247.476 185.42 247.908C186.12 248.395 186.5 248.362 187.105 247.761C187.814 247.097 187.952 247.112 189.341 248.277C190.7 249.418 190.838 249.433 191.409 248.754C191.979 248.074 192.117 248.089 193.506 249.255C194.866 250.395 195.033 250.435 195.579 249.785C196.1 249.165 196.351 249.225 197.919 250.238L199.688 251.37L201.135 250.066C202.279 249.062 202.675 248.891 203.118 249.263C203.532 249.61 203.853 249.527 204.299 248.995C204.795 248.404 204.772 248.132 204.181 247.636C203.56 247.116 203.566 246.869 204.186 246.13C204.855 245.332 204.841 245.169 204.043 244.499C203.304 243.879 203.256 243.637 203.776 243.017C204.372 242.307 204.337 242.228 202.18 240.418C200.023 238.608 199.988 238.529 200.584 237.82C201.079 237.229 201.056 236.957 200.465 236.461C199.874 235.965 199.85 235.693 200.321 235.132C200.792 234.57 200.764 234.244 200.188 233.61C199.617 233.03 199.584 232.65 200.07 231.95C200.502 231.255 200.474 230.929 199.912 230.458C199.351 229.987 199.327 229.715 199.823 229.124C200.319 228.533 200.295 228.261 199.733 227.79C199.172 227.319 199.143 226.993 199.6 226.268C200.012 225.657 200.029 225.218 199.605 224.762C199.241 224.355 199.198 223.866 199.487 223.403C199.824 222.881 199.732 222.451 199.19 221.896C198.644 221.286 198.616 220.96 199.087 220.399C199.558 219.837 199.534 219.565 198.943 219.069C198.263 218.499 198.279 218.361 199.444 216.972C200.61 215.583 200.625 215.445 199.945 214.874C199.325 214.354 199.33 214.107 199.95 213.368C200.62 212.57 200.606 212.407 199.808 211.738C199.069 211.118 199.02 210.875 199.541 210.255C200.037 209.664 200.013 209.392 199.422 208.896C198.802 208.375 198.807 208.128 199.427 207.39C200.047 206.651 200.053 206.404 199.432 205.883C198.841 205.387 198.818 205.116 199.313 204.525C199.809 203.933 199.786 203.662 199.224 203.191C198.604 202.67 198.634 202.393 199.548 200.944C200.462 199.495 200.492 199.219 199.872 198.698C199.31 198.227 199.286 197.955 199.782 197.364C200.278 196.773 200.254 196.501 199.663 196.005C199.043 195.485 199.049 195.238 199.669 194.499C200.338 193.701 200.324 193.538 199.526 192.869C198.787 192.249 198.739 192.006 199.259 191.386C199.755 190.795 199.731 190.523 199.14 190.027C198.549 189.531 198.526 189.259 198.997 188.698C199.517 188.077 199.439 187.81 198.288 186.542L196.984 185.095L198.199 183.647C199.34 182.288 199.473 182.249 200.153 182.819C200.773 183.34 201.016 183.291 201.635 182.553C202.255 181.814 202.498 181.765 203.118 182.286C203.798 182.856 203.931 182.817 205.097 181.428C206.312 179.98 206.366 179.976 207.223 180.695C207.962 181.315 208.209 181.32 208.73 180.7C209.226 180.109 209.497 180.085 210.088 180.581C210.679 181.077 210.951 181.053 211.447 180.462C211.943 179.871 212.215 179.847 212.806 180.343C213.426 180.864 213.668 180.815 214.288 180.077C214.908 179.338 215.15 179.289 215.771 179.81C216.362 180.306 216.634 180.282 217.13 179.691C217.651 179.07 217.897 179.076 218.636 179.696C219.375 180.316 219.622 180.322 220.143 179.701C220.639 179.11 220.91 179.086 221.501 179.582C222.092 180.078 222.364 180.055 222.835 179.493C223.356 178.872 223.633 178.903 225.082 179.817C226.531 180.731 226.807 180.761 227.328 180.141C227.824 179.549 228.071 179.555 228.81 180.175C229.548 180.795 229.795 180.801 230.316 180.18C230.812 179.589 231.084 179.565 231.675 180.061C232.266 180.557 232.537 180.534 233.009 179.972C233.529 179.352 233.806 179.382 235.255 180.296C236.704 181.21 236.98 181.24 237.501 180.62C237.997 180.029 238.244 180.034 238.983 180.654C239.722 181.274 239.969 181.28 240.464 180.689C240.936 180.127 241.262 180.099 241.957 180.531C242.597 180.968 243.037 180.984 243.493 180.561C244.003 180.133 244.418 180.179 245.753 181.048C247.173 181.937 247.449 181.967 247.97 181.347C248.441 180.785 248.713 180.761 249.304 181.257C249.895 181.753 250.167 181.729 250.663 181.138C251.158 180.547 251.43 180.524 251.992 180.995C252.583 181.491 252.85 181.413 253.87 180.557C254.504 179.981 255.397 178.917 255.854 178.192C256.52 177.039 256.55 176.762 255.959 176.266C255.398 175.795 255.374 175.524 255.87 174.933C256.44 174.253 256.401 174.119 255.012 172.954C253.653 171.813 253.584 171.655 254.13 171.005C254.601 170.443 254.572 170.117 253.997 169.483C253.426 168.903 253.392 168.523 253.879 167.823C254.311 167.128 254.282 166.802 253.721 166.331C253.159 165.86 253.136 165.588 253.632 164.997C254.152 164.376 254.104 164.134 253.365 163.514C252.626 162.894 252.578 162.652 253.073 162.061C253.52 161.529 253.516 161.174 253.088 160.663C252.665 160.208 252.681 159.768 253.118 159.127C253.55 158.432 253.522 158.106 252.96 157.635C252.399 157.164 252.375 156.892 252.871 156.301C253.367 155.71 253.343 155.439 252.752 154.943C252.161 154.447 252.137 154.175 252.633 153.584C253.129 152.993 253.105 152.721 252.544 152.25C251.982 151.779 251.954 151.453 252.411 150.728C252.872 150.058 252.839 149.678 252.238 149.073C251.692 148.464 251.664 148.138 252.135 147.576C252.606 147.015 252.582 146.743 251.991 146.247C251.311 145.677 251.327 145.538 252.467 144.179C253.633 142.79 253.648 142.652 252.954 141.918C252.442 141.388 252.35 140.958 252.687 140.436C252.976 139.972 252.933 139.483 252.569 139.077C252.145 138.621 252.162 138.182 252.599 137.541C253.031 136.846 253.002 136.52 252.441 136.049C251.879 135.578 251.855 135.306 252.326 134.744C252.798 134.183 252.769 133.857 252.223 133.248C251.681 132.692 251.589 132.262 251.927 131.74C252.284 131.134 252.142 130.763 251.227 129.693C250.228 128.603 250.175 128.306 250.671 127.715C251.167 127.124 251.118 126.882 250.38 126.262C249.641 125.642 249.592 125.4 250.113 124.779C250.609 124.188 250.585 123.917 250.024 123.445C249.462 122.974 249.434 122.648 249.89 121.924C250.352 121.254 250.319 120.873 249.748 120.293C249.172 119.659 249.144 119.333 249.615 118.772C250.086 118.21 250.062 117.938 249.471 117.442C248.88 116.946 248.856 116.675 249.352 116.084C249.873 115.463 249.824 115.221 249.086 114.601C248.347 113.981 248.298 113.739 248.794 113.148C249.315 112.527 249.237 112.26 248.085 110.992C246.934 109.724 246.856 109.457 247.376 108.836C247.847 108.274 247.824 108.003 247.233 107.507C246.642 107.011 246.618 106.739 247.114 106.148C247.635 105.528 247.586 105.285 246.847 104.665C246.108 104.046 246.06 103.803 246.581 103.183C247.151 102.503 247.112 102.37 245.723 101.204C244.363 100.063 244.295 99.9052 244.84 99.255C245.312 98.6936 245.283 98.3675 244.707 97.7333C244.136 97.1535 244.103 96.773 244.589 96.0733C245.121 95.2601 245.082 95.1266 243.693 93.9612C242.333 92.8205 242.294 92.687 242.865 92.0073C243.46 91.2981 243.396 91.1942 241.859 89.9047C240.323 88.6153 240.259 88.5114 240.854 87.8021C241.399 87.152 241.355 86.9642 240.351 86.1211C238.282 84.3853 237.314 83.0188 237.785 82.4573C238.306 81.8367 236.963 80.2565 233.18 77.0826C230.579 74.9005 230.55 74.8757 231.17 74.1369L231.79 73.3981L220.117 63.6034L208.444 53.8087L207.824 54.5475C207.204 55.2863 207.175 55.2615 204.574 53.0794C200.762 49.8806 199.002 48.8572 198.481 49.4777C198.109 49.921 197.596 49.6921 194.906 47.7369C191.866 45.5384 191.753 45.4936 191.182 46.1733C190.637 46.8234 190.469 46.7833 188.962 45.5187C187.425 44.2293 187.312 44.1844 186.717 44.8937C186.196 45.5143 185.949 45.5085 185.21 44.8886C184.471 44.2687 184.225 44.2629 183.729 44.8539C183.208 45.4745 182.931 45.4439 181.482 44.5302C180.033 43.6164 179.757 43.5859 179.236 44.2064C178.74 44.7975 178.493 44.7917 177.754 44.1718C177.016 43.5519 176.769 43.5461 176.248 44.1667C175.752 44.7577 175.48 44.7815 174.889 44.2855C174.298 43.7896 174.026 43.8134 173.53 44.4044C173.035 44.9954 172.763 45.0192 172.172 44.5233C171.581 44.0273 171.309 44.0511 170.838 44.6126C170.367 45.1741 170.041 45.2026 169.316 44.7457C168.646 44.2841 168.266 44.3174 167.686 44.8884C167.052 45.4641 166.725 45.4926 166.164 45.0215C165.602 44.5504 165.331 44.5741 164.835 45.1652C164.339 45.7562 164.067 45.78 163.476 45.2841C162.855 44.7633 162.613 44.8119 161.993 45.5507C161.373 46.2895 161.131 46.338 160.511 45.8173C159.92 45.3214 159.648 45.3451 159.152 45.9362C158.656 46.5272 158.384 46.551 157.823 46.0798C157.202 45.5591 156.935 45.6372 155.667 46.7887C154.399 47.9402 154.132 48.0183 153.511 47.4976C152.92 47.0017 152.678 47.0502 152.058 47.789C151.438 48.5278 151.196 48.5764 150.605 48.0805C149.984 47.5597 149.717 47.6378 148.474 48.7598C147.309 49.8474 146.909 49.9646 146.332 49.6317C145.869 49.3437 145.379 49.3865 144.973 49.7506C144.567 50.1147 144.078 50.1575 143.614 49.8695C143.092 49.5318 142.662 49.6242 142.132 50.1361C141.498 50.7118 141.172 50.7404 140.61 50.2692C139.96 49.7237 139.802 49.7923 138.661 51.1517C137.52 52.511 137.362 52.5797 136.712 52.0341C136.15 51.563 135.824 51.5915 135.215 52.1377C134.66 52.6791 134.23 52.7715 133.678 52.4091C133.131 52.101 132.78 52.1591 132.333 52.691C131.862 53.2525 131.591 53.2763 131.029 52.8051C130.409 52.2844 130.142 52.3625 128.873 53.514C127.605 54.6655 127.338 54.7436 126.717 54.2229C126.126 53.727 125.884 53.7755 125.264 54.5143C124.595 55.3122 124.432 55.3265 123.634 54.657C122.895 54.037 122.648 54.0313 122.127 54.6518C121.631 55.2429 121.36 55.2667 120.769 54.7707C120.148 54.25 119.906 54.2986 119.286 55.0374C118.666 55.7761 118.424 55.8247 117.803 55.304C117.212 54.808 116.94 54.8318 116.444 55.4228C115.948 56.0139 115.677 56.0377 115.086 55.5417C114.495 55.0458 114.223 55.0696 113.727 55.6606C113.206 56.2812 112.959 56.2754 112.221 55.6555C111.482 55.0356 111.235 55.0298 110.739 55.6208C110.218 56.2414 109.942 56.2108 108.493 55.2971C107.044 54.3833 106.767 54.3528 106.246 54.9733C105.75 55.5644 105.503 55.5586 104.765 54.9387C104.026 54.3188 103.779 54.313 103.258 54.9336C102.762 55.5246 102.491 55.5484 101.9 55.0524C101.308 54.5565 101.037 54.5803 100.541 55.1713C100.045 55.7623 99.7731 55.7861 99.1821 55.2902C98.4729 54.6951 98.3689 54.7589 97.0795 56.2956C95.7901 57.8323 95.7452 57.9457 96.4545 58.5409ZM110.731 65.2326C112.18 66.1464 112.457 66.1769 112.977 65.5564C113.473 64.9653 113.72 64.9711 114.459 65.591C115.198 66.2109 115.445 66.2167 115.965 65.5961C116.461 65.0051 116.733 64.9813 117.324 65.4773C117.945 65.998 118.187 65.9494 118.807 65.2106C119.427 64.4719 119.669 64.4233 120.289 64.944C120.88 65.4399 121.152 65.4162 121.648 64.8251C122.169 64.2046 122.416 64.2103 123.155 64.8302C123.893 65.4502 124.14 65.4559 124.661 64.8354C125.157 64.2443 125.429 64.2206 126.02 64.7165C126.64 65.2372 126.883 65.1886 127.502 64.4499C128.122 63.7111 128.365 63.6625 128.985 64.1832C129.665 64.7536 129.798 64.7145 130.964 63.3256C132.179 61.8776 132.233 61.8728 133.09 62.5919C133.888 63.2614 134.051 63.2471 134.721 62.4493C135.341 61.7105 135.583 61.6619 136.203 62.1826C136.794 62.6786 137.066 62.6548 137.562 62.0637C138.058 61.4727 138.33 61.4489 138.921 61.9449C139.6 62.5152 139.734 62.4761 140.899 61.0872C142.04 59.7279 142.198 59.6592 142.848 60.2048C143.41 60.6759 143.736 60.6474 144.37 60.0716C144.9 59.5597 145.33 59.4674 145.853 59.805C146.43 60.1379 146.83 60.0207 147.995 58.9331C149.238 57.8111 149.505 57.733 150.126 58.2537C150.717 58.7497 150.959 58.7011 151.579 57.9623C152.199 57.2235 152.441 57.175 153.061 57.6957C153.653 58.1916 153.924 58.1679 154.42 57.5768C154.916 56.9858 155.188 56.962 155.749 57.4332C156.37 57.9539 156.637 57.8758 157.905 56.7243C159.174 55.5728 159.441 55.4947 160.061 56.0154C160.652 56.5113 160.894 56.4627 161.514 55.724C162.134 54.9852 162.376 54.9366 162.997 55.4573C163.588 55.9533 163.86 55.9295 164.356 55.3385C164.852 54.7474 165.123 54.7237 165.685 55.1948C166.246 55.6659 166.572 55.6374 167.207 55.0617C167.737 54.5498 168.167 54.4574 168.689 54.795C169.153 55.0831 169.642 55.0403 170.048 54.6762C170.504 54.2529 170.943 54.2692 171.554 54.6813C172.279 55.1381 172.605 55.1096 173.076 54.5481C173.547 53.9867 173.819 53.9629 174.41 54.4588C175.001 54.9548 175.273 54.931 175.769 54.34C176.265 53.7489 176.537 53.7251 177.128 54.2211C177.719 54.717 177.99 54.6932 178.486 54.1022C179.007 53.4816 179.254 53.4874 179.993 54.1073C180.732 54.7272 180.978 54.733 181.474 54.142C181.995 53.5214 182.272 53.552 183.721 54.4657C185.17 55.3795 185.446 55.41 185.967 54.7895C186.537 54.1098 186.621 54.1298 188.926 56.064C191.261 58.0229 191.29 58.0477 191.91 57.3089C192.505 56.5997 192.589 56.6197 194.717 58.4051C197.643 60.8599 198.934 61.541 199.48 60.8909C199.852 60.4476 200.399 60.7557 203.803 63.3603C208.902 67.1858 218.979 75.6415 223.337 79.751C226.345 82.5272 226.744 83.0126 226.372 83.4558C225.826 84.106 226.721 85.2599 229.499 87.5907C231.479 89.2521 231.513 89.3313 230.918 90.0405C230.323 90.7497 230.387 90.8537 231.924 92.1431C233.46 93.4325 233.524 93.5365 232.929 94.2457C232.334 94.955 232.398 95.0589 233.934 96.3483C235.53 97.6873 235.56 97.7121 234.816 98.5987C234.097 99.4557 234.102 99.51 235.55 100.725C236.939 101.89 236.978 102.024 236.407 102.704C235.887 103.324 235.935 103.566 236.674 104.186C237.413 104.806 237.461 105.048 236.94 105.669C236.445 106.26 236.468 106.532 237.059 107.028C237.65 107.524 237.674 107.795 237.203 108.357C236.682 108.977 236.76 109.244 237.912 110.513C239.063 111.781 239.142 112.048 238.621 112.669C238.125 113.26 238.173 113.502 238.912 114.122C239.651 114.742 239.7 114.984 239.179 115.605C238.683 116.196 238.707 116.467 239.298 116.963C239.889 117.459 239.913 117.731 239.441 118.292C238.97 118.854 238.999 119.18 239.545 119.789C240.086 120.344 240.179 120.774 239.841 121.297C239.553 121.76 239.596 122.249 239.96 122.656C240.383 123.111 240.367 123.551 239.955 124.162C239.399 125.005 239.438 125.138 240.797 126.279C242.157 127.42 242.196 127.553 241.664 128.366C241.228 129.007 241.211 129.446 241.635 129.902C241.999 130.309 242.041 130.798 241.753 131.261C241.416 131.783 241.508 132.213 242.05 132.768C242.596 133.378 242.624 133.704 242.153 134.265C241.682 134.827 241.706 135.099 242.297 135.595C242.888 136.09 242.912 136.362 242.416 136.953C241.92 137.544 241.944 137.816 242.505 138.287C243.067 138.758 243.095 139.084 242.663 139.779C242.177 140.479 242.21 140.86 242.781 141.439C243.357 142.074 243.385 142.4 242.914 142.961C242.443 143.523 242.467 143.794 243.028 144.265C243.649 144.786 243.618 145.063 242.729 146.482C241.86 147.818 241.814 148.233 242.242 148.743C242.606 149.149 242.649 149.638 242.361 150.101C242.028 150.678 242.086 151.029 242.618 151.475C243.209 151.971 243.204 152.218 242.584 152.957C241.964 153.696 241.958 153.943 242.579 154.464C243.17 154.96 243.193 155.231 242.697 155.822C242.202 156.413 242.225 156.685 242.787 157.156C243.348 157.627 243.377 157.953 242.945 158.648C242.458 159.348 242.492 159.729 243.092 160.333C243.638 160.943 243.667 161.269 243.196 161.83C242.725 162.392 242.748 162.663 243.339 163.159C243.93 163.655 243.954 163.927 243.458 164.518C242.962 165.109 242.986 165.381 243.577 165.877C244.168 166.373 244.192 166.644 243.696 167.235C243.2 167.826 243.224 168.098 243.815 168.594C244.435 169.115 244.43 169.362 243.81 170.101C243.19 170.839 242.948 170.888 242.327 170.367C241.736 169.871 241.464 169.895 240.968 170.486C240.472 171.077 240.201 171.101 239.61 170.605C239.019 170.109 238.747 170.133 238.251 170.724C237.73 171.344 237.483 171.339 236.744 170.719C236.006 170.099 235.759 170.093 235.263 170.684C234.742 171.305 234.466 171.274 233.017 170.36C231.567 169.447 231.291 169.416 230.77 170.037C230.299 170.598 230.027 170.622 229.436 170.126C228.845 169.63 228.574 169.654 228.078 170.245C227.557 170.865 227.31 170.86 226.571 170.24C225.832 169.62 225.585 169.614 225.065 170.235C224.569 170.826 224.297 170.849 223.706 170.353C223.115 169.857 222.843 169.881 222.372 170.443C221.851 171.063 221.575 171.033 220.126 170.119C218.677 169.205 218.4 169.175 217.88 169.795C217.384 170.386 217.137 170.38 216.398 169.761C215.6 169.091 215.437 169.105 214.767 169.903C214.148 170.642 213.905 170.691 213.285 170.17C212.694 169.674 212.422 169.698 211.926 170.289C211.43 170.88 211.158 170.904 210.567 170.408C209.976 169.912 209.705 169.935 209.209 170.526C208.713 171.117 208.441 171.141 207.879 170.67C207.318 170.199 206.992 170.228 206.383 170.774C205.827 171.315 205.397 171.408 204.875 171.07C204.269 170.712 203.898 170.854 202.828 171.769C201.738 172.768 201.441 172.822 200.85 172.326C200.259 171.83 200.017 171.878 199.397 172.617C198.777 173.356 198.535 173.404 197.914 172.884C197.323 172.388 197.052 172.412 196.556 173.003C196.035 173.623 195.788 173.617 195.049 172.997C194.31 172.378 194.262 172.135 194.783 171.515C195.353 170.835 195.314 170.702 193.925 169.536C192.566 168.395 192.497 168.237 193.042 167.587C193.563 166.966 193.46 166.729 192.186 165.307C191.01 164.068 190.808 163.648 191.18 163.205C191.552 162.761 191.351 162.341 190.175 161.102C188.901 159.68 188.798 159.443 189.318 158.822C189.889 158.142 189.854 158.063 187.549 156.129C185.244 154.195 185.185 154.145 185.805 153.407L186.4 152.697L182.692 149.435C179.132 146.296 179.038 146.167 179.495 145.443L179.952 144.718L169.757 136.163C160.034 128.005 159.566 127.663 159.12 128.195C158.5 128.934 157.169 128.119 151.909 123.705L147.713 120.184L147.093 120.923C146.473 121.662 146.443 121.637 143.961 119.554C141.479 117.471 141.449 117.446 140.829 118.185C140.284 118.835 140.091 118.825 139.204 118.081C136.988 116.221 135.183 115.311 134.737 115.843C134.266 116.404 132.752 115.688 130.654 113.927C129.679 113.109 129.486 113.099 128.94 113.749C128.42 114.369 128.173 114.364 127.434 113.744C126.695 113.124 126.448 113.118 125.928 113.739C125.357 114.418 125.219 114.403 123.83 113.237C122.471 112.097 122.303 112.057 121.757 112.707C121.286 113.268 120.96 113.297 120.236 112.84C119.565 112.378 119.185 112.412 118.605 112.983C117.971 113.558 117.645 113.587 117.083 113.116C116.522 112.645 116.25 112.668 115.754 113.259C115.258 113.85 114.987 113.874 114.396 113.378C113.805 112.882 113.533 112.906 113.037 113.497C112.442 114.206 112.328 114.162 110.792 112.872C109.255 111.583 109.191 111.479 109.786 110.77C110.282 110.179 110.258 109.907 109.667 109.411C109.076 108.915 109.052 108.643 109.548 108.052C110.044 107.461 110.021 107.189 109.459 106.718C108.839 106.198 108.899 105.946 109.788 104.526C110.657 103.191 110.732 102.801 110.245 102.241C109.822 101.785 109.838 101.346 110.275 100.705C110.707 100.01 110.678 99.6839 110.117 99.2128C109.555 98.7416 109.532 98.4699 110.027 97.8789C110.523 97.2878 110.5 97.0161 109.938 96.545C109.377 96.0738 109.348 95.7477 109.805 95.0232C110.217 94.4121 110.233 93.9726 109.781 93.492C109.382 93.0065 109.378 92.6509 109.825 92.119C110.321 91.528 110.272 91.2858 109.533 90.6658C108.676 89.9467 108.672 89.8924 109.887 88.4444C111.052 87.0555 111.067 86.9172 110.388 86.3469C109.797 85.8509 109.773 85.5792 110.269 84.9882C110.765 84.3971 110.741 84.1254 110.15 83.6295C109.529 83.1087 109.535 82.8618 110.155 82.123C110.825 81.3251 110.81 81.1621 110.012 80.4926C109.274 79.8726 109.225 79.6304 109.746 79.0099C110.242 78.4188 110.218 78.1471 109.627 77.6512C109.006 77.1304 109.012 76.8835 109.632 76.1447C110.252 75.4059 110.258 75.159 109.637 74.6382C109.046 74.1423 109.022 73.8706 109.518 73.2795C110.014 72.6885 109.99 72.4168 109.399 71.9208C108.808 71.4249 108.785 71.1532 109.281 70.5621C109.801 69.9415 109.753 69.6994 109.014 69.0794C108.216 68.4099 108.202 68.2469 108.871 67.449C109.491 66.7102 109.497 66.4633 108.876 65.9425C108.344 65.4962 108.262 65.1749 108.609 64.7611C108.981 64.3179 109.4 64.4181 110.731 65.2326ZM52.9031 134.749C53.2502 134.336 53.5811 134.361 54.113 134.808C54.704 135.304 54.9758 135.28 55.4717 134.689C55.9677 134.098 56.2394 134.074 56.8304 134.57C57.451 135.091 57.6932 135.042 58.3131 134.303C58.933 133.565 59.1752 133.516 59.7958 134.037C60.4755 134.607 60.609 134.568 61.7744 133.179C62.9399 131.79 63.0734 131.751 63.753 132.321C64.3441 132.817 64.6158 132.794 65.087 132.232C65.5581 131.671 65.8842 131.642 66.5792 132.074C67.2789 132.561 67.6593 132.527 68.2639 131.927C68.8733 131.381 69.1994 131.352 69.7609 131.823C70.411 132.369 70.5693 132.3 71.71 130.941C72.8506 129.581 73.0089 129.513 73.659 130.058C74.2205 130.529 74.5466 130.501 75.1808 129.925C75.711 129.413 76.1411 129.321 76.6635 129.659C77.2402 129.991 77.5911 129.933 78.0375 129.401C78.5334 128.81 78.7803 128.816 79.5191 129.436C80.3761 130.155 80.4305 130.15 81.6455 128.702C82.7862 127.343 82.9445 127.274 83.5946 127.82C84.1561 128.291 84.4822 128.263 85.1163 127.687C85.6466 127.175 86.0766 127.083 86.599 127.42C87.1758 127.753 87.5267 127.695 87.973 127.163C88.4442 126.602 88.7159 126.578 89.2774 127.049C89.8388 127.52 90.1649 127.492 90.7991 126.916C91.379 126.345 91.7594 126.312 92.4296 126.773C93.2723 127.329 93.4058 127.29 94.5712 125.901C95.7119 124.542 95.8454 124.503 96.5251 125.073C97.1161 125.569 97.3878 125.545 97.8838 124.954C98.4045 124.334 98.6514 124.339 99.3902 124.959C100.188 125.629 100.351 125.615 101.021 124.817C101.641 124.078 101.883 124.029 102.503 124.55C103.094 125.046 103.366 125.022 103.862 124.431C104.358 123.84 104.63 123.816 105.221 124.312C105.812 124.808 106.084 124.785 106.579 124.194C107.075 123.602 107.347 123.579 107.909 124.05C108.47 124.521 108.796 124.492 109.43 123.917C109.961 123.405 110.391 123.312 110.913 123.65C111.49 123.983 111.89 123.866 113.055 122.778L114.477 121.504L115.925 122.719C117.254 123.835 117.422 123.875 117.968 123.225C118.439 122.663 118.765 122.635 119.46 123.067C120.101 123.503 120.54 123.52 120.996 123.097C121.402 122.732 121.891 122.69 122.355 122.978C122.818 123.266 123.307 123.223 123.713 122.859C124.248 122.401 124.638 122.477 126.147 123.44C127.714 124.453 127.965 124.513 128.486 123.892C129.057 123.213 129.17 123.258 131.298 125.043C133.425 126.828 133.539 126.873 134.109 126.194C134.605 125.602 134.882 125.633 136.212 126.448C137.055 127.004 138.193 127.808 138.725 128.254C139.523 128.924 139.829 128.979 140.201 128.536C140.747 127.886 142.447 128.859 146.319 132.108C148.919 134.29 148.949 134.315 149.569 133.576L150.189 132.837L162.6 143.252L175.012 153.666L174.392 154.405C173.797 155.114 173.831 155.193 175.663 156.731C178.766 159.334 180.025 160.895 179.505 161.515C179.158 161.929 179.359 162.349 180.535 163.588C181.809 165.01 181.912 165.248 181.392 165.868C180.821 166.548 180.885 166.652 183.013 168.437C185.141 170.223 185.204 170.326 184.634 171.006C184.113 171.627 184.216 171.864 185.338 173.108C186.426 174.272 186.568 174.643 186.185 175.279C185.848 175.801 185.94 176.231 186.482 176.786C187.028 177.396 187.056 177.722 186.585 178.283C186.089 178.874 186.138 179.117 186.877 179.737C187.615 180.356 187.664 180.599 187.143 181.219C186.573 181.899 186.641 182.057 187.853 183.074C189.065 184.091 189.133 184.249 188.563 184.928C188.042 185.549 188.091 185.791 188.83 186.411C189.627 187.081 189.642 187.244 188.972 188.042C188.352 188.78 188.347 189.027 188.967 189.548C189.558 190.044 189.582 190.316 189.086 190.907C188.565 191.527 188.614 191.77 189.353 192.389C190.091 193.009 190.14 193.252 189.619 193.872C189.123 194.463 189.147 194.735 189.738 195.231C190.359 195.752 190.353 195.999 189.733 196.737C189.113 197.476 189.107 197.723 189.728 198.244C190.319 198.74 190.343 199.011 189.847 199.603C189.351 200.194 189.375 200.465 189.966 200.961C190.557 201.457 190.58 201.729 190.085 202.32C189.589 202.911 189.612 203.183 190.174 203.654C190.794 204.175 190.764 204.451 189.85 205.9C188.936 207.349 188.906 207.626 189.526 208.146C190.117 208.642 190.112 208.889 189.492 209.628C188.872 210.367 188.866 210.614 189.487 211.134C190.078 211.63 190.101 211.902 189.605 212.493C189.11 213.084 189.133 213.356 189.695 213.827C190.256 214.298 190.285 214.624 189.853 215.319C189.366 216.019 189.4 216.399 189.971 216.979C190.665 217.713 190.649 217.851 189.484 219.24C188.343 220.599 188.328 220.737 189.008 221.308C189.599 221.804 189.622 222.075 189.151 222.637C188.68 223.198 188.709 223.525 189.255 224.134C189.855 224.739 189.889 225.119 189.427 225.789C188.97 226.514 188.999 226.84 189.56 227.311C190.122 227.782 190.145 228.054 189.649 228.645C189.154 229.236 189.177 229.508 189.768 230.003C190.359 230.499 190.383 230.771 189.912 231.333C189.441 231.894 189.469 232.22 190.045 232.854C190.616 233.434 190.649 233.815 190.188 234.485C189.731 235.209 189.759 235.535 190.321 236.007C190.971 236.552 190.931 236.72 189.815 238.05L188.575 239.527L186.964 238.327C185.442 237.2 185.274 237.16 184.565 237.824C183.931 238.4 183.605 238.429 183.044 237.958C182.482 237.486 182.21 237.51 181.714 238.101C181.219 238.692 180.947 238.716 180.356 238.22C179.765 237.724 179.493 237.748 178.997 238.339C178.476 238.96 178.229 238.954 177.491 238.334C176.752 237.714 176.505 237.708 175.984 238.329C175.488 238.92 175.216 238.944 174.625 238.448C174.005 237.927 173.763 237.976 173.143 238.714C172.523 239.453 172.281 239.502 171.66 238.981C171.069 238.485 170.797 238.509 170.301 239.1C169.781 239.72 169.534 239.715 168.795 239.095C167.997 238.425 167.834 238.439 167.164 239.237C166.545 239.976 166.302 240.025 165.682 239.504C165.002 238.934 164.844 239.002 163.827 240.214C162.81 241.425 162.652 241.494 161.973 240.924C161.352 240.403 161.11 240.452 160.49 241.19C159.87 241.929 159.628 241.978 159.037 241.482C158.416 240.961 158.149 241.039 156.881 242.191C155.612 243.342 155.345 243.42 154.725 242.9C154.134 242.404 153.892 242.452 153.272 243.191C152.652 243.93 152.41 243.978 151.789 243.458C151.109 242.887 150.976 242.926 149.81 244.315C148.645 245.704 148.511 245.743 147.832 245.173C147.211 244.652 146.969 244.701 146.349 245.44C145.68 246.237 145.517 246.252 144.719 245.582C143.98 244.962 143.733 244.957 143.237 245.548C142.791 246.079 142.44 246.138 141.863 245.805C141.341 245.467 140.911 245.559 140.38 246.071C139.746 246.647 139.42 246.676 138.859 246.204C138.297 245.733 138.025 245.757 137.529 246.348C137.033 246.939 136.762 246.963 136.171 246.467C135.58 245.971 135.308 245.995 134.812 246.586C134.291 247.206 134.044 247.201 133.305 246.581C132.567 245.961 132.32 245.955 131.799 246.576C131.303 247.167 131.031 247.19 130.44 246.695C129.849 246.199 129.578 246.222 129.106 246.784C128.586 247.404 128.309 247.374 126.86 246.46C125.411 245.546 125.135 245.516 124.614 246.136C124.118 246.727 123.871 246.722 123.132 246.102C122.393 245.482 122.146 245.476 121.651 246.067C121.08 246.747 120.912 246.707 119.42 245.605C117.986 244.553 117.705 244.468 117.145 244.955C116.635 245.383 116.22 245.337 114.884 244.468C113.637 243.674 113.163 243.578 112.816 243.992C112.345 244.554 110.861 243.862 108.585 241.953C107.462 241.01 107.295 240.97 106.724 241.65C106.104 242.389 106.075 242.364 103.74 240.405C101.465 238.496 101.351 238.451 100.781 239.131C100.235 239.781 100.092 239.711 97.609 237.929C96.18 236.932 94.303 235.508 93.446 234.789C92.1162 233.673 91.8349 233.588 91.4382 234.061C90.9919 234.593 90.6468 234.404 87.3808 231.815C85.4647 230.257 82.3322 227.629 80.461 225.958C77.3734 223.216 77.1274 222.909 77.549 222.406C77.9705 221.904 77.7837 221.647 76.1288 220.258C75.0945 219.39 73.7209 218.086 73.0269 217.353C71.9937 216.184 71.9155 215.917 72.4115 215.326C72.9818 214.646 72.9179 214.542 70.7902 212.757C68.633 210.947 68.5986 210.868 69.169 210.188C69.7393 209.508 69.6707 209.35 68.2971 208.046C67.0416 206.842 66.9092 206.579 67.3164 205.914C67.6245 205.367 67.5665 205.016 67.0345 204.57C66.473 204.098 66.4493 203.827 66.9204 203.265C67.4411 202.645 67.363 202.378 66.2115 201.109C65.06 199.841 64.9819 199.574 65.5026 198.953C65.9986 198.362 65.95 198.12 65.2112 197.5C64.4724 196.88 64.4239 196.638 64.9446 196.018C65.4405 195.426 65.4167 195.155 64.8553 194.684C64.2938 194.212 64.2653 193.886 64.7221 193.162C65.1838 192.492 65.1505 192.111 64.5499 191.507C64.0037 190.897 63.9752 190.571 64.4463 190.01C64.9919 189.36 64.9233 189.201 63.5639 188.061C62.175 186.895 62.1359 186.762 62.7062 186.082C63.2022 185.491 63.1784 185.219 62.6169 184.748C62.0554 184.277 62.0269 183.951 62.4838 183.226C62.9454 182.556 62.9121 182.176 62.3116 181.571C61.7654 180.962 61.7369 180.636 62.208 180.074C62.6791 179.513 62.6554 179.241 62.0643 178.745C61.4733 178.249 61.4495 177.977 61.9455 177.386C62.5158 176.707 62.4767 176.573 61.1174 175.432C59.7284 174.267 59.6894 174.134 60.2454 173.291C60.7071 172.621 60.6738 172.24 60.0732 171.636C59.527 171.026 59.4985 170.7 59.9696 170.139C60.4408 169.577 60.417 169.305 59.826 168.809C59.2349 168.313 59.2112 168.042 59.7071 167.451C60.2774 166.771 60.2384 166.638 58.8494 165.472C57.4901 164.331 57.4215 164.173 57.967 163.523C58.4381 162.962 58.4096 162.635 57.8339 162.001C57.322 161.471 57.2296 161.041 57.592 160.489C57.9001 159.942 57.842 159.591 57.3101 159.145C56.7191 158.649 56.7249 158.402 57.3448 157.663C58.0887 156.776 58.0591 156.752 56.4633 155.413C54.9267 154.123 54.8628 154.019 55.4579 153.31C55.9539 152.719 55.9301 152.447 55.3391 151.951C54.748 151.455 54.7242 151.184 55.1954 150.622C55.6665 150.061 55.638 149.735 55.0623 149.1C54.5504 148.57 54.458 148.14 54.7956 147.618C55.1285 147.041 55.0113 146.64 53.9237 145.476C52.8018 144.232 52.7236 143.965 53.2444 143.345C53.7403 142.754 53.6917 142.512 52.9529 141.892C52.2141 141.272 52.1656 141.03 52.6863 140.409C53.2566 139.729 53.188 139.571 52.0355 138.604C50.4693 137.29 50.4112 136.939 51.5603 135.99C52.0457 135.591 52.6551 135.045 52.9031 134.749Z" fill="#FB8F2C"/>
<path d="M119.81 75.1172C120.431 75.638 120.425 75.8849 119.805 76.6237C119.061 77.5103 119.091 77.5351 120.686 78.8741C122.223 80.1635 122.287 80.2674 121.692 80.9767L121.072 81.7155L124.175 84.3191L127.278 86.9228L126.658 87.6616L126.038 88.4003L132.244 93.6077L138.449 98.8149L139.069 98.0762L139.689 97.3374L142.792 99.941L145.895 102.545L146.515 101.806C147.11 101.097 147.224 101.141 148.76 102.431C150.267 103.696 150.435 103.736 150.981 103.085C151.501 102.465 151.753 102.525 153.375 103.533C154.799 104.477 155.248 104.602 155.62 104.158C155.992 103.715 156.441 103.84 157.865 104.783C159.487 105.791 159.739 105.852 160.259 105.231C160.805 104.581 160.973 104.621 162.332 105.762C163.691 106.902 163.859 106.942 164.405 106.292C164.975 105.613 165.143 105.653 166.636 106.754C168.069 107.806 168.351 107.891 168.911 107.404C169.47 106.917 169.86 106.992 171.196 107.861C172.615 108.75 172.867 108.81 173.388 108.19C173.933 107.54 174.101 107.58 175.608 108.844C177.145 110.134 177.258 110.179 177.853 109.469C178.449 108.76 178.478 108.785 181.537 111.201C184.508 113.542 184.68 113.637 185.314 113.061L185.949 112.485L193.78 119.056C201.197 125.28 201.557 125.632 201.11 126.164C200.515 126.873 201.524 128.072 206.163 131.965L209.798 135.015L209.178 135.754L208.558 136.493L211.661 139.096C214.764 141.7 214.764 141.7 214.169 142.409C213.599 143.089 213.667 143.247 215.011 144.526C216.296 145.755 216.429 146.018 216.046 146.653C215.713 147.23 215.83 147.631 216.918 148.795C218.04 150.039 218.118 150.306 217.597 150.926C217.052 151.576 217.121 151.735 218.45 152.85C219.839 154.016 219.878 154.149 219.347 154.963C218.91 155.603 218.894 156.043 219.317 156.499C219.681 156.905 219.724 157.394 219.436 157.857C219.029 158.523 219.127 158.706 221.161 160.362C222.368 161.325 223.531 162.099 223.694 162.085C223.912 162.066 225.141 160.781 226.48 159.185C228.816 156.462 228.885 156.319 228.309 155.684C227.911 155.199 227.907 154.843 228.354 154.312C228.85 153.72 228.801 153.478 228.062 152.858C227.323 152.238 227.275 151.996 227.796 151.376C228.291 150.785 228.268 150.513 227.677 150.017C227.086 149.521 227.062 149.249 227.533 148.688C228.054 148.067 227.951 147.83 226.676 146.408C225.348 144.991 225.274 144.778 225.82 144.128C226.365 143.478 226.326 143.344 224.79 142.055C223.253 140.766 223.189 140.662 223.784 139.952C224.379 139.243 224.345 139.164 222.188 137.354C220.06 135.568 219.996 135.465 220.566 134.785C221.137 134.105 221.073 134.001 218.084 131.141C215.426 128.608 215.082 128.118 215.454 127.675C215.999 127.025 213.686 124.68 206.978 119.052L202.308 115.134L202.928 114.395L203.548 113.656L200.298 110.928L197.047 108.201L196.427 108.94L195.807 109.678L191.581 106.133C186.439 101.818 185.02 100.929 184.425 101.638C184.077 102.052 183.599 101.902 182.179 101.013C180.553 99.9506 180.331 99.9153 179.785 100.565C179.215 101.245 179.131 101.225 176.826 99.2909C174.521 97.3568 174.437 97.3367 173.867 98.0164C173.346 98.637 173.094 98.5769 171.645 97.6631C170.31 96.7942 169.92 96.7188 169.523 97.1916C169.126 97.6645 168.82 97.6091 168.141 97.0388C167.402 96.4189 167.155 96.4131 166.659 97.0041C166.113 97.6542 165.891 97.6189 164.265 96.5564C162.643 95.5482 162.392 95.4881 161.871 96.1087C161.325 96.7588 161.158 96.7187 159.798 95.5781C158.439 94.4374 158.271 94.3973 157.725 95.0475C157.155 95.7272 156.987 95.6871 155.465 94.5607C154.09 93.5583 153.779 93.4486 153.244 93.9061C152.585 94.5114 151.219 93.919 148.855 91.9353C147.732 90.993 147.564 90.9529 146.994 91.6326L146.374 92.3714L138.691 85.9243L131.007 79.4771L131.627 78.7383C132.198 78.0586 132.129 77.9004 130.977 76.9333C128.701 75.0239 127.792 73.707 128.288 73.116C128.635 72.7023 128.552 72.3809 128.02 71.9346C127.488 71.4882 127.157 71.4624 126.81 71.8761C126.463 72.2899 126.053 72.2984 125.412 71.8615C124.742 71.3999 124.362 71.4332 123.782 72.0042C123.148 72.5799 122.822 72.6084 122.26 72.1373C121.61 71.5918 121.452 71.6604 120.311 73.0198C119.146 74.4087 119.13 74.5469 119.81 75.1172Z" fill="#FB8F2C"/>
<path d="M69.4904 144.689C70.1997 145.284 70.1548 145.398 68.8902 146.905L67.5512 148.501L68.8847 149.972C69.613 150.785 71.0019 151.95 71.9877 152.576C73.5845 153.614 73.8066 153.649 74.3521 152.999C74.8481 152.408 75.095 152.413 75.8338 153.033C76.5726 153.653 76.8195 153.659 77.3155 153.068C77.8362 152.447 78.1127 152.478 79.5617 153.392C80.8382 154.211 81.3121 154.307 81.6592 153.893C82.1056 153.361 83.8807 154.246 86.1266 156.131C86.9245 156.8 87.2306 156.856 87.6025 156.412C88.3216 155.555 90.0213 156.83 101.62 166.714C111.711 175.332 111.741 175.357 111.309 176.052C110.901 176.718 111.088 176.975 113.604 179.438C116.119 181.902 116.306 182.159 115.899 182.825C115.516 183.461 115.674 183.693 117.668 185.518C119.81 187.466 119.874 187.57 119.303 188.25C118.708 188.959 118.772 189.063 120.457 190.476C122.141 191.89 122.205 191.994 121.61 192.703C121.064 193.353 121.108 193.541 122.083 194.359C124.211 196.145 125.15 197.486 124.679 198.048C124.282 198.521 124.621 198.956 127.309 201.514C130.298 204.374 130.362 204.478 129.791 205.158L129.196 205.867L134.516 210.331L139.835 214.794L139.215 215.533C138.595 216.272 138.625 216.296 140.959 218.255C143.294 220.214 143.323 220.239 143.943 219.5L144.563 218.761L149.144 222.605L153.724 226.448L154.344 225.71C154.889 225.059 155.057 225.1 156.727 226.35C158.279 227.501 158.561 227.586 159.12 227.099C159.631 226.671 160.045 226.717 161.381 227.586C162.801 228.475 163.077 228.505 163.598 227.885C164.069 227.323 164.341 227.299 164.932 227.795C165.523 228.291 165.794 228.267 166.29 227.676C166.811 227.056 167.058 227.062 167.797 227.682C168.536 228.301 168.783 228.307 169.303 227.687C169.799 227.096 170.071 227.072 170.662 227.568C171.283 228.089 171.525 228.04 172.145 227.301C172.765 226.562 173.007 226.514 173.627 227.035C174.218 227.53 174.49 227.507 174.986 226.916C175.482 226.325 175.754 226.301 176.345 226.797C177.054 227.392 177.158 227.328 178.447 225.791C179.737 224.255 179.782 224.141 179.072 223.546C178.481 223.05 178.458 222.778 178.954 222.187C179.449 221.596 179.426 221.325 178.835 220.829C178.244 220.333 178.22 220.061 178.716 219.47C179.286 218.79 179.247 218.657 177.858 217.491C176.469 216.326 176.331 216.311 175.761 216.99C175.24 217.611 174.993 217.605 174.254 216.985C173.456 216.316 173.293 216.33 172.624 217.128C172.004 217.867 171.762 217.915 171.141 217.395C170.55 216.899 170.278 216.922 169.782 217.513C169.286 218.104 169.015 218.128 168.424 217.632C167.833 217.136 167.561 217.16 167.065 217.751C166.544 218.372 166.297 218.366 165.558 217.746C164.82 217.126 164.573 217.12 164.077 217.711C163.556 218.332 163.304 218.272 161.855 217.358C160.579 216.539 160.105 216.443 159.758 216.857C159.411 217.271 158.966 217.2 157.779 216.455C156.936 215.899 155.798 215.095 155.266 214.649C154.468 213.979 154.162 213.924 153.79 214.367C153.195 215.076 151.809 214.267 147.554 210.696C143.299 207.125 142.261 205.902 142.856 205.192C143.252 204.72 143.09 204.433 141.761 203.317C140.933 202.622 139.205 201.021 137.945 199.762C135.788 197.651 135.695 197.522 136.241 196.872C136.811 196.192 136.747 196.088 134.472 194.179C132.137 192.22 132.107 192.195 132.727 191.456C133.347 190.718 133.318 190.693 130.983 188.734C128.678 186.8 128.644 186.721 129.239 186.011C129.809 185.332 129.745 185.228 127.603 183.279C125.609 181.455 125.452 181.222 125.834 180.586C126.316 179.832 125.495 178.59 123.279 176.73C122.304 175.912 122.26 175.724 122.806 175.074L123.426 174.335L120.175 171.607L116.924 168.88L117.544 168.141L118.164 167.402L107.23 158.227L96.2959 149.053L95.676 149.791L95.0561 150.53L91.2144 147.307L87.3727 144.083L86.7776 144.792C86.2568 145.413 86.0051 145.353 84.3835 144.345C82.7572 143.282 82.535 143.247 81.9895 143.897C81.444 144.547 81.2762 144.507 79.9168 143.366C78.5279 142.201 78.3896 142.186 77.8193 142.865C77.2986 143.486 77.0516 143.48 76.3129 142.86C75.5741 142.24 75.3271 142.234 74.8064 142.855C74.3105 143.446 74.0387 143.47 73.4477 142.974C72.8271 142.453 72.5849 142.502 71.965 143.24C71.3451 143.979 71.1029 144.028 70.4823 143.507C69.9504 143.061 69.6195 143.035 69.2476 143.478C68.8756 143.921 68.9585 144.243 69.4904 144.689Z" fill="#FB8F2C"/>
<path d="M281.927 131.936C282.386 132.169 283.421 132.736 284.2 133.188L285.59 134.052L285.427 132.506C285.322 131.611 285.433 130.698 285.681 130.402C286.252 129.723 285.683 129.8 283.082 130.739L281.04 131.493L281.927 131.936Z" fill="#FB8F2C"/>
</svg>
