<svg width="181" height="80" viewBox="0 0 181 80" fill="none" xmlns="http://www.w3.org/2000/svg">
<path d="M81.8526 0.0240631C75.8536 0.1203 73.6401 0.248627 73.4476 0.537346C73.3193 0.761909 72.1965 0.954391 70.5604 1.05063C69.0847 1.11479 67.8015 1.30727 67.6732 1.49975C67.5449 1.69223 66.4221 1.91679 65.1388 1.98096C63.7273 2.07719 62.6366 2.30176 62.3479 2.5584C62.0912 2.84712 61.193 3.00752 59.8456 3.00752C58.2416 3.00752 57.7925 3.10376 57.7925 3.48872C57.7925 3.87369 57.3754 3.96992 55.8677 3.96992C54.3599 3.96992 53.9429 4.06617 53.9429 4.45113C53.9429 4.80401 53.5258 4.93233 52.2105 4.93233C50.9594 4.93233 50.4461 5.06065 50.2857 5.41354C50.1574 5.73434 49.6441 5.89474 48.6496 5.89474C47.591 5.89474 47.206 6.02306 47.206 6.37594C47.206 6.72882 46.8211 6.85715 45.7624 6.85715C44.7038 6.85715 44.3188 6.98547 44.3188 7.33835C44.3188 7.69123 43.9338 7.81955 42.8752 7.81955C41.8165 7.81955 41.4316 7.94787 41.4316 8.30075C41.4316 8.65363 41.0787 8.78196 40.1484 8.78196C39.218 8.78196 38.8652 8.91028 38.8652 9.26316C38.8652 9.58396 38.5123 9.74436 37.7424 9.74436C36.9724 9.74436 36.6195 9.90476 36.6195 10.2256C36.6195 10.5464 36.2987 10.7068 35.6571 10.7068C35.0155 10.7068 34.6947 10.8672 34.6947 11.188C34.6947 11.5088 34.3739 11.6692 33.7323 11.6692C33.0907 11.6692 32.7699 11.8296 32.7699 12.1504C32.7699 12.4712 32.4491 12.6316 31.8075 12.6316C31.1659 12.6316 30.8451 12.792 30.8451 13.1128C30.8451 13.4657 30.4922 13.594 29.5619 13.594C28.6316 13.594 28.2787 13.7223 28.2787 14.0752C28.2787 14.3318 27.99 14.5564 27.6371 14.5564C27.2842 14.5564 26.9955 14.781 26.9955 15.0376C26.9955 15.3584 26.6747 15.5188 26.0331 15.5188C25.3915 15.5188 25.0707 15.6792 25.0707 16C25.0707 16.3208 24.7499 16.4812 24.1083 16.4812C23.4667 16.4812 23.1459 16.6416 23.1459 16.9624C23.1459 17.219 22.9213 17.4436 22.6647 17.4436C22.408 17.4436 22.1835 17.6682 22.1835 17.9248C22.1835 18.2456 21.8627 18.406 21.2211 18.406C20.5794 18.406 20.2586 18.5664 20.2586 18.8872C20.2586 19.208 19.9378 19.3684 19.2962 19.3684C18.6546 19.3684 18.3338 19.5288 18.3338 19.8496C18.3338 20.1063 18.1093 20.3308 17.8526 20.3308C17.596 20.3308 17.3714 20.5554 17.3714 20.812C17.3714 21.0687 17.1469 21.2932 16.8902 21.2932C16.6336 21.2932 16.409 21.5178 16.409 21.7744C16.409 22.0952 16.0882 22.2556 15.4466 22.2556C14.805 22.2556 14.4842 22.416 14.4842 22.7368C14.4842 22.9935 14.2596 23.218 14.003 23.218C13.7464 23.218 13.5218 23.4426 13.5218 23.6992C13.5218 23.9559 13.2972 24.1805 13.0406 24.1805C12.784 24.1805 12.5594 24.405 12.5594 24.6617C12.5594 24.9183 12.3348 25.1429 12.0782 25.1429C11.8216 25.1429 11.597 25.3674 11.597 25.6241C11.597 25.8807 11.3724 26.1053 11.1158 26.1053C10.8591 26.1053 10.6346 26.3298 10.6346 26.5865C10.6346 26.8431 10.41 27.0677 10.1534 27.0677C9.89674 27.0677 9.67218 27.2922 9.67218 27.5489C9.67218 27.8055 9.44762 28.0301 9.19098 28.0301C8.93434 28.0301 8.70977 28.2546 8.70977 28.5113C8.70977 28.7679 8.48521 28.9925 8.22857 28.9925C7.97193 28.9925 7.74737 29.217 7.74737 29.4737C7.74737 29.7303 7.52281 29.9549 7.26617 29.9549C7.00952 29.9549 6.78496 30.1795 6.78496 30.4361C6.78496 30.6927 6.5604 30.9173 6.30376 30.9173C6.04712 30.9173 5.82256 31.1419 5.82256 31.3985C5.82256 31.6551 5.59799 31.8797 5.34135 31.8797C5.08471 31.8797 4.86015 32.1684 4.86015 32.5213C4.86015 32.8742 4.63559 33.1629 4.37895 33.1629C4.09023 33.1629 3.89774 33.4516 3.89774 33.9649C3.89774 34.4782 3.70526 34.7669 3.41654 34.7669C3.09574 34.7669 2.93534 35.0877 2.93534 35.7293C2.93534 36.3709 2.77494 36.6917 2.45414 36.6917C2.13333 36.6917 1.97293 37.0125 1.97293 37.6541C1.97293 38.2957 1.81253 38.6165 1.49173 38.6165C1.13885 38.6165 1.01053 39.0015 1.01053 40.0602C1.01053 41.1188 0.882205 41.5038 0.529323 41.5038C-0.176441 41.5038 -0.176441 48.0481 0.529323 48.7539C0.785965 49.0426 1.01053 49.7484 1.01053 50.3579C1.01053 50.9674 1.13885 51.4486 1.33133 51.4486C1.49173 51.4486 1.71629 51.8015 1.84461 52.2506C1.94085 52.6998 2.22957 53.0526 2.48622 53.0526C2.77494 53.0526 2.93534 53.4055 2.93534 54.015C2.93534 54.6566 3.09574 54.9774 3.41654 54.9774C3.67318 54.9774 3.89774 55.202 3.89774 55.4586C3.89774 55.7153 4.12231 55.9398 4.37895 55.9398C4.63559 55.9398 4.86015 56.1644 4.86015 56.4211C4.86015 56.6777 5.08471 56.9023 5.34135 56.9023C5.59799 56.9023 5.82256 57.1268 5.82256 57.3835C5.82256 57.6401 6.04712 57.8647 6.30376 57.8647C6.5604 57.8647 6.78496 58.0892 6.78496 58.3459C6.78496 58.6025 7.00952 58.8271 7.26617 58.8271C7.52281 58.8271 7.74737 59.0516 7.74737 59.3083C7.74737 59.5649 7.97193 59.7895 8.22857 59.7895C8.48521 59.7895 8.70977 60.014 8.70977 60.2707C8.70977 60.5273 8.93434 60.7519 9.19098 60.7519C9.44762 60.7519 9.67218 60.9444 9.67218 61.201C9.67218 61.4576 10.0892 61.7464 10.6346 61.8747C11.1479 62.003 11.597 62.2276 11.597 62.388C11.597 62.5484 11.8216 62.6767 12.0782 62.6767C12.3348 62.6767 12.5594 62.8692 12.5594 63.1258C12.5594 63.3825 12.9764 63.6712 13.5218 63.7995C14.0351 63.9278 14.4842 64.1203 14.4842 64.2807C14.4842 64.4411 14.9333 64.6336 15.4466 64.7619C15.992 64.8902 16.409 65.0827 16.409 65.2431C16.409 65.4035 16.8581 65.596 17.3714 65.7243C17.8847 65.8526 18.3338 66.0451 18.3338 66.2055C18.3338 66.3659 18.7509 66.5584 19.2962 66.6867C19.8095 66.815 20.2586 67.0075 20.2586 67.1679C20.2586 67.3283 20.6757 67.5208 21.2211 67.6491C21.7343 67.7774 22.1835 67.9699 22.1835 68.1303C22.1835 68.2907 22.6326 68.4832 23.1459 68.6115C23.6912 68.7399 24.1083 68.9323 24.1083 69.0607C24.1083 69.2211 24.7178 69.4135 25.4236 69.5098C26.1614 69.606 26.8672 69.8306 26.9955 70.0551C27.1238 70.2476 27.7654 70.4722 28.4712 70.6005C29.1449 70.6967 29.8185 70.9213 29.9148 71.0817C30.011 71.2421 30.7168 71.4667 31.4546 71.5629C32.1604 71.6591 32.7699 71.8516 32.7699 72.012C32.7699 72.1404 33.4115 72.3649 34.2135 72.4932C35.0155 72.5895 35.6571 72.814 35.6571 72.9424C35.6571 73.0707 36.5233 73.2952 37.582 73.4236C38.6406 73.5519 39.5068 73.7764 39.5068 73.9048C39.5068 74.0331 40.3729 74.2576 41.4316 74.386C42.4902 74.5143 43.3564 74.7388 43.3564 74.8672C43.3564 75.0276 44.2867 75.2521 45.4416 75.3484C46.5965 75.4767 47.5268 75.7013 47.5268 75.8296C47.5268 75.99 48.7459 76.1825 50.2536 76.3108C51.7614 76.4391 52.9804 76.6637 52.9804 76.792C52.9804 76.9524 54.3599 77.1449 56.0281 77.2732C57.6962 77.4015 59.0757 77.6261 59.0757 77.7544C59.0757 77.8827 60.9043 78.1073 63.182 78.2356C65.4276 78.3639 67.3203 78.5885 67.4165 78.7489C67.5128 78.8772 70.8812 79.1018 74.8912 79.2301C78.9013 79.3584 82.1734 79.583 82.1734 79.7434C82.1734 79.8717 86.0872 80 90.8351 80C95.615 80 99.4967 79.8717 99.4967 79.7434C99.4967 79.583 102.48 79.3584 106.137 79.2301C109.794 79.1018 112.874 78.9093 112.97 78.7489C113.067 78.5885 114.991 78.3639 117.301 78.2356C119.579 78.1073 121.536 77.9148 121.632 77.7544C121.728 77.6261 123.044 77.4015 124.616 77.2732C126.155 77.1449 127.407 76.9203 127.407 76.792C127.407 76.6637 128.722 76.4391 130.294 76.3108C131.898 76.1825 133.181 75.9579 133.181 75.8296C133.181 75.7013 134.047 75.4767 135.106 75.3484C136.164 75.2201 137.031 74.9955 137.031 74.8672C137.031 74.7388 137.897 74.5143 138.955 74.386C140.014 74.2576 140.88 74.0331 140.88 73.9048C140.88 73.7764 141.746 73.5519 142.805 73.4236C143.864 73.2952 144.73 73.0707 144.73 72.9424C144.73 72.782 145.371 72.5574 146.173 72.4291C146.975 72.3328 147.617 72.1083 147.617 71.9799C147.617 71.8516 148.227 71.6591 148.932 71.5629C149.67 71.4667 150.376 71.2421 150.472 71.0817C150.568 70.9213 151.242 70.6967 151.916 70.6005C152.622 70.4722 153.263 70.2476 153.391 70.0551C153.52 69.8306 154.226 69.606 154.963 69.5098C155.669 69.4135 156.279 69.2211 156.279 69.0607C156.279 68.9323 156.728 68.7399 157.241 68.6115C157.786 68.4832 158.204 68.2907 158.204 68.1303C158.204 67.9699 158.653 67.7774 159.166 67.6491C159.711 67.5208 160.128 67.3283 160.128 67.1679C160.128 67.0075 160.577 66.783 161.155 66.6867C161.7 66.5584 162.374 66.2376 162.631 66.013C162.855 65.7564 163.24 65.5639 163.497 65.5639C163.721 65.5639 163.978 65.3393 164.106 65.0827C164.202 64.8261 164.62 64.6015 165.069 64.6015C165.486 64.6015 165.903 64.3769 166.031 64.1203C166.127 63.8637 166.416 63.6391 166.705 63.6391C166.961 63.6391 167.186 63.5108 167.186 63.3183C167.186 63.1579 167.539 62.9333 167.956 62.805C168.405 62.7088 168.822 62.4201 168.918 62.1634C169.015 61.9068 169.303 61.7143 169.592 61.7143C169.849 61.7143 170.073 61.586 170.073 61.3935C170.073 61.2331 170.426 61.0085 170.875 60.8802C171.324 60.784 171.677 60.4952 171.677 60.2386C171.677 59.982 171.806 59.7895 171.966 59.7895C172.447 59.7895 176.425 55.7153 176.65 54.9774C176.746 54.6246 177.003 54.3358 177.163 54.3358C177.323 54.3358 177.452 54.1113 177.452 53.8546C177.452 53.5659 177.644 53.2772 177.901 53.181C178.157 53.0847 178.478 52.5714 178.574 52.0581C178.703 51.5449 178.895 51.1278 179.056 51.1278C179.216 51.1278 179.441 50.3258 179.537 49.3634C179.665 48.401 179.89 47.599 180.05 47.599C180.211 47.599 180.339 46.4441 180.339 45.0326C180.339 43.6211 180.211 42.4662 180.05 42.4662C179.89 42.4662 179.665 41.6 179.537 40.5414C179.409 39.4827 179.184 38.6165 179.056 38.6165C178.895 38.6165 178.703 38.1674 178.574 37.6541C178.446 37.1088 178.222 36.6917 178.061 36.6917C177.901 36.6917 177.772 36.4672 177.772 36.2105C177.772 35.9539 177.484 35.4727 177.131 35.184C176.778 34.8632 176.489 34.4461 176.489 34.2216C176.489 33.997 176.361 33.8045 176.168 33.8045C176.008 33.8045 175.848 33.58 175.848 33.3233C175.848 33.0667 175.559 32.5855 175.206 32.2967C174.853 31.9759 174.564 31.5589 174.564 31.3343C174.564 31.1098 174.34 30.9173 174.083 30.9173C173.827 30.9173 173.602 30.7569 173.602 30.5644C173.602 30.3719 173.025 29.6341 172.319 28.9604C171.613 28.2546 171.036 27.581 171.036 27.3885C171.036 27.2281 170.522 27.0677 169.913 27.0677C169.143 27.0677 168.79 26.9073 168.79 26.5865C168.79 26.3298 168.565 26.1053 168.309 26.1053C168.052 26.1053 167.828 26.3298 167.828 26.5865C167.828 26.8752 167.539 27.0677 167.026 27.0677C166.512 27.0677 166.224 27.2602 166.224 27.5489C166.224 27.8055 166.448 28.0301 166.705 28.0301C166.961 28.0301 167.186 28.2546 167.186 28.5113C167.186 28.7679 167.411 28.9925 167.667 28.9925C167.924 28.9925 168.148 29.217 168.148 29.4737C168.148 29.7303 168.373 29.9549 168.63 29.9549C168.886 29.9549 169.111 30.1795 169.111 30.4361C169.111 30.6927 169.335 30.9173 169.592 30.9173C169.849 30.9173 170.073 31.1419 170.073 31.3985C170.073 31.6551 170.298 31.8797 170.554 31.8797C170.811 31.8797 171.036 32.0401 171.036 32.2005C171.036 32.393 171.388 32.8742 171.838 33.2912C172.287 33.7083 172.64 34.1574 172.64 34.3178C172.64 34.4782 172.928 34.8632 173.281 35.184C173.634 35.4727 173.923 35.9539 173.923 36.2105C173.923 36.4672 174.051 36.6917 174.212 36.6917C174.372 36.6917 174.596 37.1088 174.725 37.6541C174.853 38.1674 175.046 38.6165 175.206 38.6165C175.334 38.6165 175.559 39.0015 175.687 39.4827C175.783 39.9639 176.072 40.4772 176.265 40.6055C176.81 40.9263 176.81 48.818 176.265 49.1388C176.072 49.2672 175.783 49.7805 175.687 50.2617C175.559 50.7429 175.334 51.1278 175.206 51.1278C175.046 51.1278 174.853 51.5769 174.725 52.0902C174.596 52.6356 174.308 53.0526 174.051 53.0526C173.794 53.0526 173.602 53.2772 173.602 53.5338C173.602 53.7905 173.474 54.015 173.281 54.015C173.121 54.015 172.96 54.2396 172.96 54.4962C172.96 54.7529 172.736 54.9774 172.479 54.9774C172.223 54.9774 171.998 55.202 171.998 55.4586C171.998 55.7153 171.773 55.9398 171.517 55.9398C171.26 55.9398 171.036 56.1644 171.036 56.4211C171.036 56.6777 170.811 56.9023 170.554 56.9023C170.266 56.9023 169.977 57.1268 169.881 57.3835C169.752 57.6401 169.496 57.8647 169.271 57.8647C169.015 57.8647 168.437 58.2817 167.924 58.7629C167.443 59.2762 166.769 59.7574 166.48 59.8857C166.159 59.982 165.903 60.2386 165.903 60.399C165.903 60.5594 165.486 60.784 164.94 60.9123C164.427 61.0406 163.978 61.2652 163.978 61.4256C163.978 61.586 163.753 61.7143 163.497 61.7143C163.24 61.7143 163.016 61.9388 163.016 62.1955C163.016 62.4521 162.791 62.6767 162.534 62.6767C162.246 62.6767 162.053 62.388 162.053 61.8747C162.053 60.3028 160.225 59.2441 158.941 60.0461C158.204 60.5273 158.107 61.9388 158.813 62.5805C159.743 63.4466 159.39 64.6015 158.204 64.6015C157.69 64.6015 157.081 64.8261 156.792 65.0827C156.535 65.3393 155.958 65.5639 155.509 65.5639C155.06 65.5639 154.578 65.7564 154.45 65.981C154.322 66.2376 153.616 66.5263 152.942 66.6226C152.237 66.7509 151.595 66.9434 151.499 67.1038C151.402 67.2642 150.761 67.4887 150.119 67.617C149.446 67.7454 148.9 67.9699 148.9 68.1303C148.9 68.2907 148.259 68.5153 147.457 68.6436C146.655 68.7399 146.013 68.9644 146.013 69.1248C146.013 69.2531 145.307 69.4777 144.409 69.606C143.543 69.7343 142.805 69.9268 142.805 70.0551C142.805 70.2155 141.939 70.408 140.88 70.5363C139.822 70.6647 138.955 70.8892 138.955 71.0175C138.955 71.1459 138.121 71.3704 137.127 71.4987C136.1 71.6271 135.202 71.8516 135.106 72.012C135.01 72.1404 133.919 72.3649 132.7 72.4932C131.449 72.6216 130.358 72.8461 130.262 73.0065C130.165 73.1348 128.882 73.3594 127.374 73.4877C125.899 73.584 124.616 73.7764 124.519 73.9048C124.423 74.0652 123.108 74.2576 121.568 74.386L118.745 74.6105V72.9744C118.745 71.7233 118.617 71.3383 118.264 71.3383C118.007 71.3383 117.782 71.1779 117.782 71.0175C117.782 70.8251 117.558 70.6967 117.301 70.6967C117.045 70.6967 116.82 70.8251 116.82 71.0175C116.82 71.1779 116.595 71.3383 116.339 71.3383C116.082 71.3383 115.858 71.6271 115.858 71.9799C115.858 72.3328 115.633 72.6216 115.376 72.6216C115.12 72.6216 114.895 72.7499 114.895 72.9424C114.895 73.1028 115.12 73.2632 115.376 73.2632C115.633 73.2632 115.858 73.5519 115.858 73.9048C115.858 74.2576 116.082 74.5464 116.339 74.5464C116.595 74.5464 116.82 74.6747 116.82 74.8351C116.82 75.1238 113.484 75.5088 110.821 75.5088H109.121V74.0972C109.121 72.782 109.057 72.6536 108.158 72.4612C107.645 72.3328 106.779 72.3328 106.234 72.4612C105.367 72.6536 105.271 72.782 105.271 73.9048C105.271 74.6747 105.432 75.188 105.752 75.3163C106.009 75.4125 106.234 75.605 106.234 75.7654C106.234 76.0862 100.17 76.5033 99.1759 76.2466C98.4381 76.0541 98.3098 75.188 99.0155 75.188C99.2722 75.188 99.4967 75.0276 99.4967 74.8672C99.4967 74.6747 99.2722 74.4501 99.0155 74.3539C98.7589 74.2256 98.5343 73.8085 98.5343 73.3915C98.5343 72.7499 98.3739 72.6216 97.5398 72.6216C96.1604 72.6216 95.6471 73.2952 95.6471 75.0276V76.5033L90.7709 76.407L85.8627 76.3108L85.9589 75.0917C86.0551 74.1614 85.9268 73.6802 85.4135 73.2311C84.6115 72.4612 84.2266 72.4612 83.4246 73.2311C82.9113 73.6802 82.783 74.1614 82.8792 75.0917L82.9754 76.3108L77.3614 76.1825C73.6722 76.1183 71.6511 75.9579 71.5228 75.7013C71.3624 75.5088 71.3624 74.7388 71.4586 73.9689C71.6511 72.7499 71.587 72.5574 70.9774 72.397C70.6246 72.3008 70.3038 72.1083 70.3038 71.9479C70.3038 71.7875 69.9509 71.6591 69.5018 71.6591C68.8922 71.6591 68.6997 71.8516 68.5393 72.6857C68.4431 73.2632 68.3789 74.0972 68.4431 74.5464L68.5393 75.3484L65.1709 75.2201C63.3103 75.1559 61.7383 74.9955 61.6421 74.8672C61.5459 74.7388 60.5835 74.5784 59.4927 74.4822C57.215 74.3218 56.7659 74.0972 57.6321 73.4556C58.0812 73.1348 58.1454 72.814 57.985 71.9158C57.7925 70.8571 57.215 70.408 56.1243 70.3759C55.5469 70.3759 54.9053 71.4987 54.9053 72.5253V73.6802L52.5955 73.4236C51.3123 73.3273 50.1895 73.1028 50.0932 72.9424C49.997 72.814 48.8742 72.5895 47.6231 72.4612C46.3398 72.3328 45.2812 72.1083 45.2812 71.9799C45.2812 71.8195 44.2867 71.595 43.0356 71.4667C41.7845 71.3704 40.79 71.1459 40.79 71.0175C40.79 70.8892 40.0521 70.6967 39.186 70.5684C38.2877 70.4401 37.582 70.2155 37.582 70.0872C37.582 69.9268 36.7799 69.7023 35.8175 69.5739C34.8551 69.4777 34.0531 69.2531 34.0531 69.0927C34.0531 68.9323 33.4115 68.7078 32.6095 68.5794C31.8075 68.4832 31.1659 68.2586 31.1659 68.1303C31.1659 67.9699 30.6847 67.7454 30.1393 67.6491C29.5619 67.5208 28.9845 67.2642 28.8882 67.1038C28.792 66.9434 28.0862 66.7188 27.3484 66.6226C26.6426 66.5263 26.0331 66.3338 26.0331 66.1734C26.0331 66.013 25.4556 65.7885 24.782 65.6922C24.0762 65.5639 23.4346 65.2752 23.3383 65.0506C23.2421 64.794 22.7288 64.6015 22.1835 64.6015C21.5419 64.6015 21.2211 64.4411 21.2211 64.1203C21.2211 63.7995 20.9002 63.6391 20.2586 63.6391C19.617 63.6391 19.2962 63.4787 19.2962 63.1579C19.2962 62.8371 18.9754 62.6767 18.3338 62.6767C17.6922 62.6767 17.3714 62.5163 17.3714 62.1955C17.3714 61.9388 17.1469 61.7143 16.8902 61.7143C16.6336 61.7143 16.409 61.586 16.409 61.4256C16.409 61.2652 15.992 61.0406 15.4466 60.9123C14.9333 60.784 14.4842 60.5915 14.4842 60.4311C14.4842 60.2707 14.0351 60.0782 13.5218 59.9499C12.9764 59.8216 12.5594 59.5328 12.5594 59.2762C12.5594 59.0196 12.3348 58.8271 12.0782 58.8271C11.8216 58.8271 11.597 58.6025 11.597 58.3459C11.597 58.0892 11.3724 57.8647 11.1158 57.8647C10.8591 57.8647 10.6346 57.7043 10.6346 57.5439C10.6346 57.3514 10.41 57.2231 10.1534 57.2231C9.89674 57.2231 9.67218 56.9985 9.67218 56.7419C9.67218 56.4852 9.44762 56.2607 9.19098 56.2607C8.93434 56.2607 8.70977 56.0361 8.70977 55.7794C8.70977 55.5228 8.48521 55.2982 8.22857 55.2982C7.97193 55.2982 7.74737 55.0095 7.74737 54.6566C7.74737 54.3038 7.52281 54.015 7.26617 54.015C7.00952 54.015 6.78496 53.7905 6.78496 53.5338C6.78496 53.2772 6.5604 53.0526 6.30376 53.0526C6.04712 53.0526 5.82256 52.8281 5.82256 52.5714C5.82256 52.3148 5.59799 52.0902 5.34135 52.0902C5.02055 52.0902 4.86015 51.7694 4.86015 51.1278C4.86015 50.4862 4.69975 50.1654 4.37895 50.1654C3.99398 50.1654 3.89774 49.7484 3.89774 48.2406C3.89774 46.7328 3.8015 46.3158 3.41654 46.3158C3.06366 46.3158 2.93534 45.9629 2.93534 45.0326C2.93534 44.1023 3.06366 43.7494 3.41654 43.7494C3.8015 43.7494 3.89774 43.3323 3.89774 41.8246C3.89774 40.3168 3.99398 39.8997 4.37895 39.8997C4.69975 39.8997 4.86015 39.5469 4.86015 38.7769C4.86015 38.007 5.02055 37.6541 5.34135 37.6541C5.63007 37.6541 5.82256 37.3654 5.82256 36.8521C5.82256 36.3388 6.01504 36.0501 6.30376 36.0501C6.5604 36.0501 6.78496 35.7614 6.78496 35.4085C6.78496 35.0556 7.00952 34.7669 7.26617 34.7669C7.52281 34.7669 7.74737 34.5424 7.74737 34.2857C7.74737 34.0291 7.97193 33.8045 8.22857 33.8045C8.48521 33.8045 8.70977 33.58 8.70977 33.3233C8.70977 33.0667 8.93434 32.8421 9.19098 32.8421C9.4797 32.8421 9.67218 32.5534 9.67218 32.0401C9.67218 31.5268 9.86466 31.2381 10.1534 31.2381C10.41 31.2381 10.6346 30.9494 10.6346 30.5965C10.6346 30.2436 10.8591 29.9549 11.1158 29.9549C11.3724 29.9549 11.597 29.7303 11.597 29.4737C11.597 29.217 11.8216 28.9925 12.0782 28.9925C12.3348 28.9925 12.5594 28.8642 12.5594 28.7038C12.5594 28.5434 12.9764 28.3188 13.5218 28.1905C14.0351 28.0622 14.4842 27.7734 14.4842 27.5168C14.4842 27.2602 14.7088 27.0677 14.9654 27.0677C15.2221 27.0677 15.4466 26.8431 15.4466 26.5865C15.4466 26.3298 15.6712 26.1053 15.9278 26.1053C16.1845 26.1053 16.409 25.8807 16.409 25.6241C16.409 25.3674 16.6336 25.1429 16.8902 25.1429C17.1469 25.1429 17.3714 24.9183 17.3714 24.6617C17.3714 24.3409 17.6922 24.1805 18.3338 24.1805C18.9754 24.1805 19.2962 24.0201 19.2962 23.6992C19.2962 23.4426 19.5208 23.218 19.7774 23.218C20.0341 23.218 20.2586 22.9935 20.2586 22.7368C20.2586 22.416 20.5794 22.2556 21.2211 22.2556C21.8627 22.2556 22.1835 22.0952 22.1835 21.7744C22.1835 21.5178 22.408 21.2932 22.6647 21.2932C22.9213 21.2932 23.1459 21.0687 23.1459 20.812C23.1459 20.4912 23.4667 20.3308 24.1083 20.3308C24.7499 20.3308 25.0707 20.1704 25.0707 19.8496C25.0707 19.593 25.3594 19.3684 25.7123 19.3684C26.0652 19.3684 26.3539 19.1439 26.3539 18.8872C26.3539 18.5985 26.6426 18.406 27.1559 18.406C27.6692 18.406 27.9579 18.2135 27.9579 17.9248C27.9579 17.604 28.2787 17.4436 28.9203 17.4436C29.5619 17.4436 29.8827 17.2832 29.8827 16.9624C29.8827 16.6416 30.2035 16.4812 30.8451 16.4812C31.4867 16.4812 31.8075 16.3208 31.8075 16C31.8075 15.6792 32.1604 15.5188 32.9303 15.5188C33.7002 15.5188 34.0531 15.6792 34.0531 16C34.0531 16.2566 34.2135 16.4812 34.3739 16.4812C34.5664 16.4812 34.6947 16.8982 34.6947 17.4436C34.6947 18.0531 34.8551 18.406 35.1439 18.406C35.4005 18.406 35.6251 18.9193 35.7534 19.7213C35.8496 20.4591 36.0742 21.1649 36.2346 21.2612C36.395 21.3574 36.6195 22.0311 36.7158 22.7368C36.8441 23.4426 37.0687 24.0521 37.2612 24.1163C37.4216 24.1805 37.582 24.8862 37.582 25.6561C37.582 26.6506 37.7103 27.0677 38.0311 27.0677C38.3198 27.0677 38.5123 27.613 38.6085 28.8642C38.7048 29.8586 38.8972 30.7569 39.0897 30.8531C39.2822 30.9815 39.5068 31.8797 39.5709 32.8421C39.6672 33.8045 39.9238 34.6386 40.1163 34.7028C40.3088 34.7669 40.4692 35.4727 40.4692 36.2426C40.4692 37.2692 40.5975 37.6541 40.9504 37.6541C41.207 37.6541 41.4316 37.8787 41.4316 38.1353C41.4316 38.4561 41.7524 38.6165 42.3619 38.6165C43.3885 38.6165 43.6772 38.0712 43.6772 35.9539C43.6772 35.3123 43.8055 34.7669 43.9659 34.7669C44.1263 34.7669 44.3188 32.8742 44.383 30.5965C44.4471 27.9338 44.6075 26.3298 44.8321 26.1694C45.0246 26.0411 45.2491 24.9504 45.3454 23.7634C45.4095 22.5444 45.6341 21.4857 45.7945 21.3574C45.987 21.2291 46.2436 20.5554 46.3398 19.8496C46.4682 19.1439 46.6927 18.5343 46.8852 18.4702C47.0456 18.406 47.206 17.9248 47.206 17.4115C47.206 16.8341 47.3664 16.4812 47.6551 16.4812C47.9118 16.4812 48.2005 16.0321 48.3288 15.5188C48.4571 14.9734 48.6496 14.5564 48.81 14.5564C48.9704 14.5564 49.1629 14.1073 49.2912 13.594C49.4195 13.0486 49.6441 12.6316 49.8045 12.6316C49.9649 12.6316 50.0932 12.407 50.0932 12.1504C50.0932 11.8937 50.3178 11.6692 50.5744 11.6692C50.8311 11.6692 51.0556 11.4767 51.0556 11.2521C51.0556 11.0276 51.3444 10.6105 51.6972 10.2897C52.0501 10.001 52.3388 9.5198 52.3388 9.26316C52.3388 9.00652 52.5634 8.78196 52.82 8.78196C53.0767 8.78196 53.3013 8.5574 53.3013 8.30075C53.3013 7.94787 53.6541 7.81955 54.5845 7.81955C55.5148 7.81955 55.8677 7.69123 55.8677 7.33835C55.8677 6.95338 56.2847 6.85715 57.7925 6.85715C59.2361 6.85715 59.7815 6.72882 59.9098 6.37594C60.0702 6.02306 60.6155 5.89474 61.9629 5.89474C63.214 5.89474 64.016 5.73434 64.3368 5.41354C64.6576 5.06065 65.4917 4.93233 67.1599 4.93233H69.5018L69.5338 15.3905C69.5338 22.1915 69.6622 25.9128 69.8867 26.0411C70.0792 26.1694 70.3038 27.7093 70.4321 29.4737C70.5604 31.2381 70.817 32.7459 70.9774 32.8421C71.1058 32.9383 71.3303 34.0612 71.4586 35.3444C71.619 36.9805 71.8115 37.6541 72.1003 37.6541C72.3569 37.6541 72.5494 37.8787 72.5494 38.1353C72.5494 38.4561 72.8702 38.6165 73.5118 38.6165C74.1213 38.6165 74.4742 38.4561 74.4742 38.1674C74.4742 37.9108 74.6667 37.6541 74.8591 37.59C75.1158 37.4937 75.3083 36.4992 75.3724 34.7348C75.4687 33.2591 75.6611 31.9439 75.8215 31.8476C76.014 31.7193 76.2386 30.8531 76.3348 29.9228C76.4311 28.9604 76.6236 28.0942 76.816 27.998C76.9764 27.8697 77.201 27.0035 77.2972 26.0732C77.3935 25.1108 77.586 24.2446 77.7464 24.1484C77.9068 24.0521 78.1313 23.3464 78.2276 22.6085C78.3238 21.9028 78.5163 21.2932 78.6767 21.2932C78.805 21.2932 78.9975 20.8441 79.1258 20.3308C79.2541 19.7855 79.4466 19.3684 79.607 19.3684C79.7353 19.3684 79.9599 18.9835 80.0882 18.5023C80.1845 18.0211 80.4411 17.5078 80.6336 17.4115C80.794 17.3153 81.0185 16.6095 81.1148 15.8717C81.2431 15.0697 81.4677 14.5564 81.7243 14.5564C81.9809 14.5564 82.1734 14.3318 82.1734 14.0752C82.1734 13.8186 82.3018 13.594 82.4622 13.594C82.6226 13.594 82.8471 13.1449 82.9754 12.6316C83.1038 12.0862 83.2962 11.6692 83.4566 11.6692C83.617 11.6692 83.8095 11.2201 83.9378 10.7068C84.0662 10.1614 84.3549 9.74436 84.6115 9.74436C84.8682 9.74436 85.0606 9.5198 85.0606 9.26316C85.0606 9.00652 85.2852 8.78196 85.5419 8.78196C85.7985 8.78196 86.0231 8.5574 86.0231 8.30075C86.0231 8.04411 86.1835 7.81955 86.3439 7.81955C86.5363 7.81955 86.6647 7.62707 86.6647 7.40251C86.6647 7.17795 86.9534 6.7609 87.3063 6.4401C87.6591 6.15138 87.9479 5.70226 87.9479 5.44562C87.9479 5.18897 88.3008 4.90025 88.7499 4.80401C89.2311 4.67569 89.616 4.29073 89.7444 3.80952L89.9368 3.00752H95.6471C99.593 3.00752 101.389 3.10376 101.486 3.3604C101.55 3.55289 102.352 3.80952 103.282 3.90577C104.405 4.00201 104.95 4.19449 104.95 4.48321C104.95 4.73985 104.822 4.93233 104.63 4.93233C104.469 4.93233 104.309 5.57394 104.309 6.37594C104.309 7.43459 104.18 7.81955 103.828 7.81955C103.443 7.81955 103.346 8.30075 103.346 10.2256C103.346 12.1504 103.25 12.6316 102.865 12.6316C102.48 12.6316 102.384 13.209 102.384 16C102.384 18.791 102.288 19.3684 101.903 19.3684C101.486 19.3684 101.422 20.2667 101.422 25.6561C101.422 30.789 101.518 32.008 101.903 32.393C102.256 32.7459 102.384 33.612 102.384 35.4406C102.384 36.8842 102.512 37.9749 102.705 37.9749C102.865 37.9749 103.09 38.3278 103.218 38.7769C103.378 39.4506 103.603 39.5789 104.63 39.5789C106.009 39.5789 106.234 39.2581 106.234 37.1409C106.234 36.1143 106.362 35.7293 106.715 35.7293C107.068 35.7293 107.196 35.3444 107.196 34.3178C107.196 33.5479 107.356 32.8421 107.549 32.7779C107.741 32.7138 107.966 31.9439 108.062 31.0777C108.158 30.1795 108.447 29.3454 108.672 29.217C108.928 29.0887 109.121 28.5434 109.121 28.0301C109.121 27.3885 109.281 27.0677 109.602 27.0677C109.923 27.0677 110.083 26.7469 110.083 26.1053C110.083 25.4637 110.244 25.1429 110.564 25.1429C110.917 25.1429 111.046 24.7579 111.046 23.6992C111.046 22.8972 111.174 22.2556 111.334 22.2556C111.495 22.2556 111.719 21.8065 111.848 21.2932C111.976 20.7479 112.265 20.3308 112.521 20.3308C112.778 20.3308 112.97 20.1063 112.97 19.8496C112.97 19.593 113.195 19.3684 113.452 19.3684C113.708 19.3684 113.933 19.1439 113.933 18.8872C113.933 18.6306 114.157 18.406 114.414 18.406C114.735 18.406 114.895 18.0852 114.895 17.4436C114.895 16.802 115.056 16.4812 115.376 16.4812C115.633 16.4812 115.858 16.2566 115.858 16C115.858 15.7434 116.082 15.5188 116.339 15.5188C116.595 15.5188 116.82 15.2942 116.82 15.0376C116.82 14.781 117.045 14.5564 117.301 14.5564C117.558 14.5564 117.782 14.3318 117.782 14.0752C117.782 13.8186 118.007 13.594 118.264 13.594C118.52 13.594 118.745 13.3694 118.745 13.1128C118.745 12.8561 118.52 12.6316 118.264 12.6316C118.007 12.6316 117.782 12.407 117.782 12.1504C117.782 11.8937 118.007 11.6692 118.264 11.6692C118.52 11.6692 118.745 11.7975 118.745 11.99C118.745 12.1504 118.969 12.3108 119.226 12.3108C119.483 12.3108 119.707 12.1504 119.707 11.99C119.707 11.7975 119.483 11.6692 119.226 11.6692C118.969 11.6692 118.745 11.4446 118.745 11.188C118.745 10.9313 118.52 10.7068 118.264 10.7068C118.007 10.7068 117.782 10.9313 117.782 11.188C117.782 11.4446 117.558 11.6692 117.301 11.6692C117.045 11.6692 116.82 11.8937 116.82 12.1504C116.82 12.407 116.595 12.6316 116.339 12.6316C116.082 12.6316 115.858 12.8561 115.858 13.1128C115.858 13.3694 116.082 13.594 116.339 13.594C116.595 13.594 116.82 13.8186 116.82 14.0752C116.82 14.396 116.499 14.5564 115.858 14.5564C114.991 14.5564 114.895 14.6526 114.895 15.5188C114.895 16.1604 114.735 16.4812 114.414 16.4812C114.157 16.4812 113.933 16.2566 113.933 16C113.933 15.7434 113.708 15.5188 113.452 15.5188C113.195 15.5188 112.97 15.7434 112.97 16C112.97 16.2566 112.746 16.4812 112.489 16.4812C112.233 16.4812 112.008 16.7058 112.008 16.9624C112.008 17.219 112.233 17.4436 112.489 17.4436C112.81 17.4436 112.97 17.7644 112.97 18.406C112.97 19.0476 112.81 19.3684 112.489 19.3684C112.233 19.3684 112.008 19.1439 112.008 18.8872C112.008 18.6306 111.783 18.406 111.527 18.406C111.27 18.406 111.046 18.6306 111.046 18.8872C111.046 19.1439 110.821 19.3684 110.564 19.3684C110.308 19.3684 110.083 19.593 110.083 19.8496C110.083 20.1063 109.891 20.3308 109.634 20.3308C109.377 20.3308 109.089 20.7479 108.96 21.2932C108.832 21.8065 108.64 22.2556 108.479 22.2556C108.319 22.2556 108.126 22.6727 107.998 23.218C107.87 23.7313 107.645 24.1805 107.485 24.1805C107.324 24.1805 107.196 24.5975 107.196 25.1429C107.196 25.7845 107.036 26.1053 106.715 26.1053C106.394 26.1053 106.234 26.4261 106.234 27.0677C106.234 27.8376 106.105 28.0301 105.56 28.0301C104.918 28.0301 104.886 27.9018 105.079 26.5544C105.175 25.7203 105.271 22.8972 105.271 20.2987C105.271 16.2566 105.335 15.5188 105.752 15.5188C106.137 15.5188 106.234 14.9734 106.234 12.6316C106.234 10.2897 106.33 9.74436 106.715 9.74436C107.1 9.74436 107.196 9.32732 107.196 7.81955C107.196 6.31178 107.292 5.89474 107.677 5.89474C107.998 5.89474 108.158 5.57394 108.158 4.93233C108.158 4.06617 108.255 3.96992 109.121 3.96992C109.73 3.96992 110.083 3.80952 110.083 3.52081C110.083 3.26416 110.532 2.97544 111.046 2.84712C111.591 2.7188 112.008 2.49424 112.008 2.33384C112.008 2.17344 111.591 2.04511 111.046 2.04511C110.404 2.04511 110.083 1.88471 110.083 1.56391C110.083 1.17895 109.602 1.08271 107.677 1.08271C105.752 1.08271 105.271 0.986465 105.271 0.601509C105.271 0.184464 104.277 0.1203 98.3098 0.1203C94.4601 0.1203 91.0276 0.0882263 90.6747 0.0240631C90.3218 -0.00801849 86.3439 -0.00801849 81.8526 0.0240631ZM85.0606 3.96992C85.0606 4.61153 84.9002 4.93233 84.5794 4.93233C84.3228 4.93233 84.0982 5.15689 84.0982 5.41354C84.0982 5.67018 83.8737 5.89474 83.617 5.89474C83.3604 5.89474 83.1358 6.1193 83.1358 6.37594C83.1358 6.63258 82.9434 6.85715 82.6867 6.85715C82.4301 6.85715 82.1413 7.27419 82.013 7.81955C81.8847 8.33283 81.6601 8.78196 81.4997 8.78196C81.3393 8.78196 81.211 9.00652 81.211 9.26316C81.211 9.5198 81.0185 9.74436 80.7619 9.74436C80.5053 9.74436 80.2165 10.1614 80.0882 10.7068C79.9599 11.2201 79.7674 11.6692 79.607 11.6692C79.4466 11.6692 79.2541 12.0862 79.1258 12.6316C78.9975 13.1449 78.805 13.594 78.6446 13.594C78.4842 13.594 78.2917 14.011 78.1634 14.5564C78.0351 15.0697 77.8426 15.5188 77.6822 15.5188C77.5218 15.5188 77.3293 15.9358 77.201 16.4812C77.0727 16.9945 76.8802 17.4436 76.7519 17.4436C76.5915 17.4436 76.399 18.0531 76.3028 18.7589C76.2065 19.4967 75.982 20.2025 75.8215 20.2987C75.6291 20.395 75.3724 20.9083 75.2762 21.3895C75.1479 21.8707 74.9233 22.2556 74.795 22.2556C74.6667 22.2556 74.4742 23.0576 74.41 24.0201C74.1534 27.1639 73.4476 26.8431 73.2551 23.5068C73.191 22.2877 72.9985 21.2932 72.8381 21.2932C72.6777 21.2932 72.5494 18.0531 72.5494 14.0752C72.5494 9.48772 72.6777 6.85715 72.8702 6.85715C73.0627 6.85715 73.191 6.21554 73.191 5.44562V4.03409L75.6611 3.90577C77.201 3.84161 78.1634 3.64912 78.2596 3.39249C78.3238 3.13584 79.3825 3.00752 81.7243 3.00752H85.0606V3.96992ZM47.206 10.7068C47.206 11.3484 47.0456 11.6692 46.7248 11.6692C46.4682 11.6692 46.2436 11.8937 46.2436 12.1504C46.2436 12.407 46.1153 12.6316 45.9549 12.6316C45.7945 12.6316 45.5699 13.0165 45.4416 13.4977C45.3454 13.979 45.0887 14.4922 44.8962 14.5885C44.7358 14.6847 44.5113 15.3905 44.415 16.1283C44.2867 16.9303 44.0622 17.4436 43.8055 17.4436C43.5168 17.4436 43.3564 17.7965 43.3564 18.3739C43.3564 18.8872 43.196 19.3684 42.9714 19.4326C42.7789 19.4967 42.5544 20.395 42.4581 21.3895C42.394 22.384 42.2015 23.218 42.0732 23.218C41.9128 23.218 41.7203 23.6351 41.592 24.1805C41.2391 25.7203 40.4692 25.3995 40.4692 23.6992C40.4692 22.6406 40.3409 22.2556 39.988 22.2556C39.6351 22.2556 39.5068 21.8707 39.5068 20.812C39.5068 19.7534 39.3784 19.3684 39.0256 19.3684C38.6727 19.3684 38.5444 18.9835 38.5444 17.9248C38.5444 16.8662 38.416 16.4812 38.0632 16.4812C37.7424 16.4812 37.582 16.1604 37.582 15.5188C37.582 14.9734 37.4536 14.5564 37.2612 14.5564C37.1007 14.5564 36.9403 14.3318 36.9403 14.0752C36.9403 13.7865 37.2291 13.594 37.7424 13.594C38.2556 13.594 38.5444 13.4015 38.5444 13.1128C38.5444 12.7599 38.9293 12.6316 39.988 12.6316C41.0466 12.6316 41.4316 12.5033 41.4316 12.1504C41.4316 11.8296 41.7524 11.6692 42.5223 11.6692C43.1318 11.6692 43.8376 11.4446 44.1263 11.188C44.383 10.9313 45.0246 10.7068 45.5699 10.7068C46.2436 10.7068 46.5644 10.5464 46.5644 10.2256C46.5644 9.96893 46.7248 9.74436 46.8852 9.74436C47.0777 9.74436 47.206 10.1614 47.206 10.7068ZM117.782 13.1128C117.782 13.3694 117.558 13.594 117.301 13.594C117.045 13.594 116.82 13.3694 116.82 13.1128C116.82 12.8561 117.045 12.6316 117.301 12.6316C117.558 12.6316 117.782 12.8561 117.782 13.1128ZM113.933 16.9624C113.933 17.219 113.708 17.4436 113.452 17.4436C113.195 17.4436 112.97 17.219 112.97 16.9624C112.97 16.7058 113.195 16.4812 113.452 16.4812C113.708 16.4812 113.933 16.7058 113.933 16.9624ZM112.008 19.8496C112.008 20.1063 111.783 20.3308 111.527 20.3308C111.27 20.3308 111.046 20.1063 111.046 19.8496C111.046 19.593 111.27 19.3684 111.527 19.3684C111.783 19.3684 112.008 19.593 112.008 19.8496Z" fill="#40AF49"/>
<path d="M113.933 2.36597C113.933 2.52637 114.157 2.68677 114.414 2.68677C114.671 2.68677 114.895 2.52637 114.895 2.36597C114.895 2.17348 114.671 2.04516 114.414 2.04516C114.157 2.04516 113.933 2.17348 113.933 2.36597Z" fill="#40AF49"/>
<path d="M117.783 3.00748V3.96988H115.377C114.061 3.96988 112.971 4.0982 112.971 4.2586C112.971 4.61149 114.126 4.93229 115.601 4.93229C116.243 4.93229 116.82 5.09269 116.884 5.31725C116.949 5.50973 117.847 5.73429 118.841 5.83053C120.381 5.95885 120.67 5.89469 120.67 5.44557C120.67 5.15685 120.895 4.93229 121.151 4.93229C121.472 4.93229 121.632 4.61149 121.632 4.00196C121.632 3.16788 121.504 3.07164 120.285 2.91124C119.515 2.815 118.873 2.55835 118.809 2.39795C118.553 1.59595 117.783 2.07715 117.783 3.00748Z" fill="#40AF49"/>
<path d="M122.595 5.89476C122.595 6.53636 122.434 6.85716 122.113 6.85716C121.857 6.85716 121.632 7.08172 121.632 7.33837C121.632 7.59501 121.408 7.81957 121.151 7.81957C120.894 7.81957 120.67 8.04413 120.67 8.30077C120.67 8.55741 120.445 8.78198 120.189 8.78198C119.932 8.78198 119.707 9.00654 119.707 9.26318C119.707 9.51982 119.483 9.74438 119.226 9.74438C118.488 9.74438 118.649 10.2897 119.483 10.5143C120.606 10.803 120.67 10.7709 120.67 9.74438C120.67 9.10278 120.83 8.78198 121.151 8.78198C121.408 8.78198 121.632 8.55741 121.632 8.30077C121.632 8.04413 121.857 7.81957 122.113 7.81957C122.37 7.81957 122.595 7.59501 122.595 7.33837C122.595 7.01756 122.915 6.85716 123.557 6.85716C124.199 6.85716 124.519 7.01756 124.519 7.33837C124.519 7.59501 124.744 7.81957 125.001 7.81957C125.257 7.81957 125.482 7.59501 125.482 7.33837C125.482 7.08172 125.706 6.85716 125.963 6.85716C126.284 6.85716 126.444 6.53636 126.444 5.89476C126.444 5.02859 126.348 4.93235 125.482 4.93235C124.84 4.93235 124.519 5.09275 124.519 5.41355C124.519 5.6702 124.744 5.89476 125.001 5.89476C125.257 5.89476 125.482 6.11932 125.482 6.37596C125.482 6.6326 125.257 6.85716 125.001 6.85716C124.744 6.85716 124.519 6.6326 124.519 6.37596C124.519 6.11932 124.295 5.89476 124.038 5.89476C123.781 5.89476 123.557 5.6702 123.557 5.41355C123.557 5.15691 123.332 4.93235 123.076 4.93235C122.755 4.93235 122.595 5.25315 122.595 5.89476Z" fill="#40AF49"/>
<path d="M128.369 6.37586C128.369 6.6325 128.145 6.85706 127.888 6.85706C127.022 6.85706 127.375 7.43451 128.369 7.65907C128.914 7.78739 129.332 8.07611 129.332 8.33275C129.332 8.58939 129.652 8.78188 130.166 8.78188C130.647 8.78188 131.192 9.00644 131.385 9.26308C131.609 9.5518 131.994 9.64804 132.475 9.5518C133.181 9.35932 133.47 8.78188 132.86 8.78188C132.7 8.78188 132.54 8.46107 132.54 8.04403C132.507 6.11922 132.283 5.89466 130.262 5.89466C128.786 5.89466 128.369 5.9909 128.369 6.37586Z" fill="#40AF49"/>
<path d="M133.181 7.30629C133.181 7.56293 133.405 7.97997 133.662 8.26869C133.919 8.52533 134.143 8.97446 134.143 9.2311C134.143 9.58398 134.432 9.74438 135.106 9.74438C135.651 9.74438 136.068 9.8727 136.068 10.0652C136.068 10.2256 136.517 10.386 137.031 10.386C137.576 10.386 137.993 10.2256 137.993 10.0652C137.993 9.8727 137.768 9.74438 137.512 9.74438C137.255 9.74438 137.031 9.51982 137.031 9.26318C137.031 8.94238 136.71 8.78198 136.068 8.78198C135.427 8.78198 135.106 8.62158 135.106 8.30077C135.106 8.04413 134.881 7.81957 134.625 7.81957C134.368 7.81957 134.143 7.59501 134.143 7.33837C134.143 7.08173 133.919 6.85716 133.662 6.85716C133.405 6.85716 133.181 7.04965 133.181 7.30629Z" fill="#40AF49"/>
<path d="M139.918 9.26316C139.918 9.5198 139.693 9.74436 139.437 9.74436C139.18 9.74436 138.955 9.93684 138.955 10.1935C138.955 10.4501 139.18 10.8672 139.437 11.1559C139.982 11.7013 140.078 12.6316 139.597 12.6316C139.437 12.6316 139.276 12.8561 139.276 13.1128C139.276 13.3694 139.437 13.594 139.597 13.594C139.789 13.594 139.918 14.011 139.918 14.5564C139.918 15.198 139.757 15.5188 139.437 15.5188C139.116 15.5188 138.955 15.198 138.955 14.5564C138.955 14.011 138.827 13.594 138.635 13.594C138.474 13.594 138.314 14.011 138.314 14.5564C138.314 15.0697 138.474 15.5188 138.635 15.5188C138.827 15.5188 138.955 15.7434 138.955 16C138.955 16.3208 139.276 16.4812 139.918 16.4812C140.688 16.4812 140.88 16.3529 140.88 15.7434C140.88 14.2677 141.265 13.594 142.035 13.594C142.516 13.594 142.805 13.4015 142.805 13.1128C142.805 12.8561 143.03 12.6316 143.286 12.6316C143.543 12.6316 143.767 12.8561 143.767 13.1128C143.767 13.3694 143.992 13.594 144.249 13.594C144.505 13.594 144.73 13.3694 144.73 13.1128C144.73 12.8561 144.505 12.6316 144.249 12.6316C143.992 12.6316 143.767 12.407 143.767 12.1504C143.767 11.8937 143.992 11.6692 144.249 11.6692C144.505 11.6692 144.73 11.4446 144.73 11.188C144.73 10.9313 144.505 10.7068 144.249 10.7068C143.992 10.7068 143.767 10.4822 143.767 10.2256C143.767 9.87268 143.414 9.74436 142.484 9.74436C141.618 9.74436 141.105 9.58396 141.008 9.26316C140.88 9.00651 140.623 8.78195 140.367 8.78195C140.11 8.78195 139.918 9.00651 139.918 9.26316Z" fill="#40AF49"/>
<path d="M145.692 12.1504C145.692 12.407 145.917 12.6316 146.173 12.6316C146.43 12.6316 146.655 12.8561 146.655 13.1128C146.655 13.3694 146.43 13.594 146.173 13.594C145.917 13.594 145.692 13.8186 145.692 14.0752C145.692 14.3318 145.917 14.5564 146.173 14.5564C146.43 14.5564 146.655 14.3318 146.655 14.0752C146.655 13.8186 146.943 13.594 147.296 13.594C147.649 13.594 147.938 13.3694 147.938 13.1128C147.938 12.8561 147.649 12.6316 147.296 12.6316C146.943 12.6316 146.655 12.407 146.655 12.1504C146.655 11.8937 146.43 11.6692 146.173 11.6692C145.917 11.6692 145.692 11.8937 145.692 12.1504Z" fill="#40AF49"/>
<path d="M148.579 14.0752C148.579 14.3318 148.451 14.5564 148.258 14.5564C148.098 14.5564 147.938 14.7809 147.938 15.0376C147.938 15.2942 148.098 15.5188 148.258 15.5188C148.451 15.5188 148.579 15.7433 148.579 16C148.579 16.3208 148.9 16.4812 149.542 16.4812C150.408 16.4812 150.504 16.5774 150.504 17.4436C150.504 18.0852 150.344 18.406 150.023 18.406C149.766 18.406 149.542 18.6306 149.542 18.8872C149.542 19.1438 149.413 19.3684 149.221 19.3684C149.06 19.3684 148.9 19.593 148.9 19.8496C148.9 20.1062 148.675 20.3308 148.419 20.3308C148.162 20.3308 147.938 20.5554 147.938 20.812C147.938 21.1007 148.226 21.2932 148.74 21.2932C149.253 21.2932 149.542 21.1007 149.542 20.812C149.542 20.5554 149.83 20.3308 150.183 20.3308C150.536 20.3308 150.825 20.5554 150.825 20.812C150.825 21.0687 150.985 21.2932 151.146 21.2932C151.338 21.2932 151.466 21.0687 151.466 20.812C151.466 20.5554 151.659 20.3308 151.915 20.3308C152.429 20.3308 152.75 19.3684 152.75 17.6682C152.75 16.6095 152.846 16.4812 153.552 16.4812C154.065 16.4812 154.354 16.2887 154.354 16C154.354 15.7113 154.065 15.5188 153.552 15.5188C153.038 15.5188 152.75 15.3263 152.75 15.0376C152.75 14.7809 152.461 14.5564 152.108 14.5564C151.755 14.5564 151.466 14.3318 151.466 14.0752C151.466 13.7223 151.081 13.594 150.023 13.594C148.964 13.594 148.579 13.7223 148.579 14.0752Z" fill="#40AF49"/>
<path d="M137.352 17.4436C137.352 17.9569 137.512 18.406 137.672 18.406C137.865 18.406 137.993 18.6306 137.993 18.8872C137.993 19.1438 138.218 19.3684 138.474 19.3684C138.731 19.3684 138.956 19.1438 138.956 18.8872C138.956 18.6306 138.731 18.406 138.474 18.406C138.154 18.406 137.993 18.0852 137.993 17.4436C137.993 16.8982 137.865 16.4812 137.672 16.4812C137.512 16.4812 137.352 16.8982 137.352 17.4436Z" fill="#40AF49"/>
<path d="M155.316 16.9624C155.316 17.2832 154.995 17.4436 154.354 17.4436C153.712 17.4436 153.391 17.604 153.391 17.9248C153.391 18.2456 153.712 18.406 154.354 18.406C154.995 18.406 155.316 18.2456 155.316 17.9248C155.316 17.6682 155.541 17.4436 155.797 17.4436C156.054 17.4436 156.279 17.219 156.279 16.9624C156.279 16.7058 156.054 16.4812 155.797 16.4812C155.541 16.4812 155.316 16.7058 155.316 16.9624Z" fill="#40AF49"/>
<path d="M155.637 18.8872C155.637 19.1438 155.797 19.3684 155.958 19.3684C156.15 19.3684 156.278 19.1438 156.278 18.8872C156.278 18.6306 156.15 18.406 155.958 18.406C155.797 18.406 155.637 18.6306 155.637 18.8872Z" fill="#40AF49"/>
<path d="M158.203 18.8872C158.203 19.1438 158.428 19.3684 158.684 19.3684C158.941 19.3684 159.166 19.5929 159.166 19.8496C159.166 20.1062 159.037 20.3308 158.845 20.3308C158.684 20.3308 158.524 20.5554 158.524 20.812C158.524 21.0686 158.684 21.2932 158.845 21.2932C159.037 21.2932 159.166 21.0686 159.166 20.812C159.166 20.5554 159.39 20.3308 159.647 20.3308C160 20.3308 160.128 20.7158 160.128 21.7744C160.128 22.833 160.256 23.218 160.609 23.218C160.866 23.218 161.09 23.4426 161.09 23.6992C161.09 23.9559 161.379 24.1804 161.732 24.1804C162.085 24.1804 162.374 24.405 162.374 24.6616C162.374 24.9183 162.534 25.1428 162.694 25.1428C162.887 25.1428 163.015 24.9183 163.015 24.6616C163.015 24.405 163.24 24.1804 163.496 24.1804C163.753 24.1804 163.978 23.9559 163.978 23.6992C163.978 23.4426 163.849 23.218 163.657 23.218C163.496 23.218 163.336 22.8972 163.336 22.4802C163.336 21.0045 162.951 20.3308 162.181 20.3308C161.7 20.3308 161.411 20.1383 161.411 19.8496C161.411 19.5288 161.058 19.3684 160.288 19.3684C159.518 19.3684 159.166 19.208 159.166 18.8872C159.166 18.6305 158.941 18.406 158.684 18.406C158.428 18.406 158.203 18.6305 158.203 18.8872Z" fill="#40AF49"/>
<path d="M136.389 19.8175C136.389 20.0421 136.292 20.9082 136.196 21.7423C136.004 22.9614 136.068 23.218 136.517 23.218C136.934 23.218 137.03 22.8651 137.03 21.2932C137.03 20.2346 136.902 19.3684 136.709 19.3684C136.549 19.3684 136.389 19.5609 136.389 19.8175Z" fill="#40AF49"/>
<path d="M156.6 19.8496C156.6 20.1062 156.76 20.3308 156.92 20.3308C157.113 20.3308 157.241 20.1062 157.241 19.8496C157.241 19.593 157.113 19.3684 156.92 19.3684C156.76 19.3684 156.6 19.593 156.6 19.8496Z" fill="#40AF49"/>
<path d="M146.654 23.218C146.654 24.0842 146.751 24.1804 147.617 24.1804C148.258 24.1804 148.579 24.02 148.579 23.6992C148.579 23.4426 148.355 23.218 148.098 23.218C147.841 23.218 147.617 22.9935 147.617 22.7368C147.617 22.4802 147.392 22.2556 147.135 22.2556C146.815 22.2556 146.654 22.5764 146.654 23.218Z" fill="#40AF49"/>
<path d="M148.9 22.7368C148.9 22.9935 149.061 23.218 149.221 23.218C149.414 23.218 149.542 22.9935 149.542 22.7368C149.542 22.4802 149.414 22.2556 149.221 22.2556C149.061 22.2556 148.9 22.4802 148.9 22.7368Z" fill="#40AF49"/>
<path d="M164.94 23.6992C164.94 23.9559 165.165 24.1804 165.421 24.1804C165.678 24.1804 165.903 24.405 165.903 24.6616C165.903 24.9183 166.127 25.1428 166.384 25.1428C166.64 25.1428 166.865 24.9183 166.865 24.6616C166.865 24.405 166.64 24.1804 166.384 24.1804C166.127 24.1804 165.903 23.9559 165.903 23.6992C165.903 23.4426 165.678 23.218 165.421 23.218C165.165 23.218 164.94 23.4426 164.94 23.6992Z" fill="#40AF49"/>
<path d="M135.427 24.8862C135.427 26.1374 135.042 27.0677 134.592 27.0677C134.24 27.0677 134.143 27.8376 134.143 30.9173C134.143 34.1253 134.24 34.767 134.625 34.767C135.009 34.767 135.106 35.2161 135.106 36.8201C135.106 38.2316 135.266 39.0336 135.587 39.3865C135.844 39.6431 136.068 40.0923 136.068 40.3489C136.068 40.6376 136.293 40.8622 136.549 40.8622C136.806 40.8622 137.031 40.9905 137.031 41.183C137.031 41.6321 137.961 41.568 138.442 41.0868C138.699 40.8622 138.987 40.1885 139.116 39.6431C139.212 39.0657 139.469 38.6166 139.629 38.6166C139.789 38.6166 139.918 38.1675 139.918 37.6542C139.918 37.0126 140.078 36.6918 140.399 36.6918C140.72 36.6918 140.88 36.371 140.88 35.7294C140.88 35.0878 141.041 34.767 141.361 34.767C141.682 34.767 141.843 34.4461 141.843 33.8045C141.843 33.195 142.003 32.8421 142.292 32.8421C142.548 32.8421 142.837 32.393 142.965 31.8797C143.094 31.3344 143.318 30.9173 143.479 30.9173C143.639 30.9173 143.767 30.6928 143.767 30.4361C143.767 30.1795 143.96 29.9549 144.216 29.9549C144.473 29.9549 144.762 29.5058 144.89 28.9925C145.018 28.4472 145.243 28.0301 145.403 28.0301C145.564 28.0301 145.692 27.581 145.692 27.0677C145.692 26.4261 145.853 26.1053 146.173 26.1053C146.43 26.1053 146.655 25.8807 146.655 25.6241C146.655 25.3675 146.43 25.1429 146.173 25.1429C145.917 25.1429 145.692 24.9183 145.692 24.6617C145.692 24.405 145.468 24.1805 145.211 24.1805C144.954 24.1805 144.73 24.405 144.73 24.6617C144.73 24.9183 144.954 25.1429 145.211 25.1429C145.468 25.1429 145.692 25.3675 145.692 25.6241C145.692 25.977 145.307 26.1053 144.249 26.1053C143.19 26.1053 142.805 26.2336 142.805 26.5865C142.805 26.8431 142.58 27.0677 142.324 27.0677C142.067 27.0677 141.843 27.2923 141.843 27.5489C141.843 27.8055 141.618 28.0301 141.361 28.0301C141.105 28.0301 140.88 28.3188 140.88 28.6717C140.88 29.0246 140.752 29.3133 140.559 29.3133C140.399 29.3133 140.174 29.6662 140.046 30.1153C139.95 30.5644 139.661 30.9173 139.404 30.9173C139.116 30.9173 138.955 31.2702 138.955 31.8797C138.955 32.5213 138.795 32.8421 138.474 32.8421C138.089 32.8421 137.993 32.2968 137.993 29.9549C137.993 27.6131 137.897 27.0677 137.512 27.0677C137.255 27.0677 137.031 26.8431 137.031 26.5865C137.031 26.3299 136.806 26.1053 136.549 26.1053C136.293 26.1053 136.068 25.8807 136.068 25.6241C136.068 25.3675 136.293 25.1429 136.549 25.1429C136.806 25.1429 137.031 24.9183 137.031 24.6617C137.031 24.373 136.742 24.1805 136.229 24.1805C135.619 24.1805 135.427 24.3409 135.427 24.8862Z" fill="#40AF49"/>
<path d="M162.053 27.6771C162.053 28.03 161.861 28.3829 161.668 28.4791C161.348 28.6395 161.348 28.7037 161.668 28.8641C161.861 28.9603 162.053 29.217 162.053 29.4415C162.053 29.8586 163.176 30.9172 163.657 30.9172C163.85 30.9172 163.978 30.6927 163.978 30.436C163.978 30.1794 164.203 29.9548 164.459 29.9548C164.812 29.9548 164.941 29.5699 164.941 28.5112V27.0676H163.497C162.278 27.0676 162.053 27.1639 162.053 27.6771Z" fill="#40AF49"/>
<path d="M167.186 32.361C167.186 32.6177 166.961 32.8422 166.705 32.8422C166.384 32.8422 166.223 33.163 166.223 33.8046C166.223 34.4462 166.384 34.767 166.705 34.767C166.961 34.767 167.186 34.9916 167.186 35.2482C167.186 35.954 168.341 35.8578 169.111 35.0878C169.784 34.4141 170.009 32.8422 169.431 32.8422C169.271 32.8422 169.111 32.6177 169.111 32.361C169.111 32.0402 168.79 31.8798 168.148 31.8798C167.507 31.8798 167.186 32.0402 167.186 32.361Z" fill="#40AF49"/>
<path d="M160.353 33.0666C160.064 33.3232 160.064 34.9914 160.321 35.9538C160.481 36.5633 160.738 36.6917 161.732 36.6917C162.855 36.6917 162.983 36.5954 163.176 35.7292C163.304 35.1839 163.304 34.3177 163.176 33.8044C162.983 32.9383 162.823 32.842 161.764 32.842C161.091 32.842 160.449 32.9383 160.353 33.0666Z" fill="#40AF49"/>
<path d="M167.058 39.3222C166.641 40.9583 166.801 41.4075 167.956 41.632C169.785 41.9849 170.715 41.5999 170.715 40.5092C170.715 39.9959 170.587 39.5789 170.394 39.5789C170.234 39.5789 170.073 39.3543 170.073 39.0977C170.073 38.7448 169.688 38.6165 168.662 38.6165C167.475 38.6165 167.218 38.7448 167.058 39.3222Z" fill="#40AF49"/>
<path d="M157.466 40.7659C157.177 41.0226 157.177 42.2416 157.434 42.9153C157.69 43.6211 160.449 43.6531 160.449 42.9474C160.449 42.6907 160.609 42.4662 160.77 42.4662C161.283 42.4662 161.123 40.9584 160.577 40.7338C159.904 40.4772 157.722 40.4772 157.466 40.7659Z" fill="#40AF49"/>
<path d="M162.791 41.7285C162.246 41.9209 162.278 43.3645 162.823 43.942C163.08 44.1986 163.657 44.3911 164.138 44.3911C164.62 44.3911 165.197 44.1986 165.454 43.942C166.063 43.3325 166.031 41.953 165.39 41.6964C164.812 41.4718 163.368 41.4718 162.791 41.7285Z" fill="#40AF49"/>
<path d="M172.833 44.1343C172.48 45.4496 172.64 46.3158 173.218 46.5403C173.506 46.6686 173.859 46.8932 174.02 47.0857C174.18 47.3102 174.372 47.2461 174.597 46.8611C174.757 46.5724 175.142 46.3158 175.367 46.3158C175.88 46.3158 175.976 45.4175 175.656 44.1343C175.495 43.5569 175.239 43.4285 174.244 43.4285C173.25 43.4285 172.993 43.5569 172.833 44.1343Z" fill="#40AF49"/>
<path d="M153.391 46.7648C153.391 47.0214 153.167 47.2781 152.91 47.4064C152.654 47.5026 152.429 47.9517 152.429 48.4009C152.429 48.9783 152.589 49.2029 153.071 49.2029C153.423 49.2029 153.712 49.4274 153.712 49.6841C153.712 49.9728 154.001 50.1653 154.514 50.1653C155.027 50.1653 155.316 49.9728 155.316 49.6841C155.316 49.4274 155.541 49.2029 155.797 49.2029C156.471 49.2029 156.407 47.7593 155.733 46.9573C155.092 46.2194 153.391 46.059 153.391 46.7648Z" fill="#40AF49"/>
<path d="M167.764 49.235C167.154 49.9086 166.994 51.1277 167.507 51.1277C167.7 51.1277 167.828 51.3522 167.828 51.6089C167.828 51.9618 168.213 52.0901 169.271 52.0901H170.715V50.6465C170.715 49.5878 170.587 49.2029 170.234 49.2029C169.977 49.2029 169.753 49.0425 169.753 48.8821C169.753 48.3367 168.341 48.5933 167.764 49.235Z" fill="#40AF49"/>
<path d="M160.129 49.6841C160.129 49.9408 159.904 50.1653 159.647 50.1653C158.91 50.1653 159.038 51.8335 159.808 52.5072C160.61 53.1809 162.053 53.245 162.053 52.5713C162.053 52.3147 162.278 52.0901 162.535 52.0901C162.823 52.0901 163.016 51.8014 163.016 51.3202C163.016 50.9032 162.791 50.4861 162.535 50.3578C162.278 50.2616 162.053 49.9728 162.053 49.6841C162.053 49.3633 161.733 49.2029 161.091 49.2029C160.449 49.2029 160.129 49.3633 160.129 49.6841Z" fill="#40AF49"/>
<path d="M148.58 49.8447C148.58 50.0051 148.355 50.1655 148.098 50.1655C147.746 50.1655 147.617 50.5505 147.617 51.6091V53.0527H149.221C150.44 53.0527 150.825 52.9244 150.825 52.5715C150.825 52.3149 150.986 52.0903 151.146 52.0903C151.338 52.0903 151.467 51.962 151.467 51.7695C151.467 51.2883 150.408 50.1655 149.959 50.1655C149.734 50.1655 149.542 50.0051 149.542 49.8447C149.542 49.6522 149.317 49.5239 149.061 49.5239C148.804 49.5239 148.58 49.6522 148.58 49.8447Z" fill="#40AF49"/>
<path d="M141.393 53.566C140.816 54.1114 140.816 54.2076 141.072 55.2021C141.297 56.0041 142.131 56.2928 143.639 56.0362C144.665 55.8758 144.73 55.7796 144.73 54.6567C144.73 53.8547 144.569 53.3735 144.216 53.2452C143.286 52.8923 141.907 53.0527 141.393 53.566Z" fill="#40AF49"/>
<path d="M155.028 54.8171C154.419 55.4587 154.322 55.8437 154.483 56.7419C154.707 57.8006 154.772 57.8647 155.959 57.8647C157.145 57.8647 157.21 57.8006 157.434 56.7419C157.595 55.8437 157.498 55.4587 156.889 54.8171C156.472 54.4001 156.055 54.0151 155.959 54.0151C155.862 54.0151 155.445 54.4001 155.028 54.8171Z" fill="#40AF49"/>
<path d="M149.734 54.817C149.638 55.0736 149.349 55.2982 149.061 55.2982C148.323 55.2982 148.483 56.6456 149.349 57.4476C150.536 58.5704 152.429 57.8004 152.429 56.1644C152.429 55.5228 152.237 55.2982 151.467 55.1378C150.953 55.0095 150.504 54.7849 150.504 54.6245C150.504 54.1433 149.959 54.3037 149.734 54.817Z" fill="#40AF49"/>
<path d="M163.016 54.6567C163.016 54.8171 162.791 54.9775 162.535 54.9775C162.278 54.9775 162.053 55.2662 162.053 55.5871C162.053 55.9399 161.861 56.2928 161.668 56.3891C161.348 56.5495 161.348 56.6136 161.668 56.774C161.861 56.8703 162.053 57.159 162.053 57.4156C162.053 57.7364 162.47 57.8647 163.465 57.8647C164.556 57.8647 164.908 57.7364 165.037 57.2552C165.261 56.3249 164.908 54.9775 164.427 54.9775C164.171 54.9775 163.978 54.8171 163.978 54.6567C163.978 54.4642 163.754 54.3359 163.497 54.3359C163.24 54.3359 163.016 54.4642 163.016 54.6567Z" fill="#40AF49"/>
<path d="M137.03 56.2928C137.03 56.5174 136.805 56.8382 136.517 57.0627C135.779 57.576 136.228 58.763 137.222 59.0196C137.639 59.1159 137.992 59.3404 137.992 59.5008C137.992 59.6612 138.217 59.7896 138.473 59.7896C138.73 59.7896 138.955 59.565 138.955 59.3083C138.955 59.0517 139.179 58.8271 139.436 58.8271C139.789 58.8271 139.917 58.4743 139.917 57.576C139.917 56.5495 139.789 56.2928 139.211 56.1324C138.056 55.8437 137.03 55.9078 137.03 56.2928Z" fill="#40AF49"/>
<path d="M143.318 57.4156C142.644 58.0572 142.644 59.7895 143.286 59.7895C143.575 59.7895 143.863 60.0141 143.96 60.2708C144.088 60.5274 144.505 60.752 144.922 60.752C145.403 60.752 145.692 60.5595 145.692 60.2708C145.692 60.0141 145.916 59.7895 146.173 59.7895C146.847 59.7895 146.783 58.3459 146.109 57.5439C145.435 56.774 144.024 56.7098 143.318 57.4156Z" fill="#40AF49"/>
<path d="M129.909 58.0892C129.492 58.1855 129.332 58.5704 129.332 59.4687C129.332 60.4632 129.46 60.7198 130.07 60.8802C131.481 61.2652 132.219 61.1048 132.219 60.4311C132.219 60.0782 132.444 59.7895 132.7 59.7895C132.957 59.7895 133.182 59.6612 133.182 59.5008C133.182 59.3404 132.957 59.1479 132.7 59.0196C132.444 58.9233 132.219 58.6346 132.219 58.3459C132.219 57.8647 131.193 57.7364 129.909 58.0892Z" fill="#40AF49"/>
<path d="M125.097 60.9765C124.327 61.169 124.263 63.6392 125.001 63.6392C125.257 63.6392 125.482 63.8637 125.482 64.1204C125.482 64.377 125.706 64.6016 125.963 64.6016C126.22 64.6016 126.444 64.4412 126.444 64.2808C126.444 64.0883 126.669 63.96 126.925 63.96C127.278 63.96 127.407 63.575 127.407 62.3559C127.407 60.8161 127.375 60.7519 126.54 60.784C126.027 60.8161 125.386 60.8803 125.097 60.9765Z" fill="#40AF49"/>
<path d="M135.683 60.9765C135.362 61.0407 135.106 61.3294 135.106 61.586C135.106 61.8427 134.881 62.0351 134.625 62.0351C134.336 62.0351 134.143 62.3239 134.143 62.8372C134.143 63.3504 134.336 63.6392 134.625 63.6392C134.881 63.6392 135.106 63.8637 135.106 64.1204C135.106 64.4412 135.427 64.6016 136.068 64.6016C136.613 64.6016 137.031 64.4412 137.031 64.2808C137.031 64.0883 137.255 63.96 137.512 63.96C137.833 63.96 137.993 63.6071 137.993 62.8372C137.993 62.0672 137.833 61.7143 137.512 61.7143C137.255 61.7143 137.031 61.4898 137.031 61.2331C137.031 60.7519 136.742 60.6878 135.683 60.9765Z" fill="#40AF49"/>
<path d="M150.12 60.9764C149.286 61.2009 149.35 63.3182 150.184 64.0561C150.922 64.6656 151.467 64.7618 151.467 64.2806C151.467 64.0881 151.692 63.9598 151.948 63.9598C152.301 63.9598 152.43 63.5749 152.43 62.5483C152.43 60.848 151.916 60.4952 150.12 60.9764Z" fill="#40AF49"/>
<path d="M116.82 62.3559C116.82 62.5163 116.595 62.6767 116.339 62.6767C116.018 62.6767 115.857 63.0296 115.857 63.7996C115.857 64.5695 116.018 64.9224 116.339 64.9224C116.595 64.9224 116.82 65.0507 116.82 65.2432C116.82 65.4036 117.269 65.564 117.782 65.564C118.424 65.564 118.745 65.4036 118.745 65.0828C118.745 64.8261 118.969 64.6016 119.226 64.6016C119.515 64.6016 119.707 64.3128 119.707 63.7996C119.707 63.2863 119.515 62.9975 119.226 62.9975C118.969 62.9975 118.745 62.773 118.745 62.5163C118.745 62.1955 118.424 62.0351 117.782 62.0351C117.269 62.0351 116.82 62.1635 116.82 62.3559Z" fill="#40AF49"/>
<path d="M144.954 62.9013C144.826 62.9975 144.73 63.6391 144.73 64.3128C144.73 65.2752 144.858 65.5319 145.468 65.6923C146.847 66.0452 147.681 65.9168 147.842 65.2431C147.938 64.8903 148.13 64.6015 148.291 64.6015C148.74 64.6015 148.611 64.0241 148.034 63.3183C147.489 62.6767 145.436 62.388 144.954 62.9013Z" fill="#40AF49"/>
<path d="M138.57 63.8637C137.8 64.0562 137.736 66.5264 138.474 66.5264C138.731 66.5264 138.955 66.7509 138.955 67.0076C138.955 67.3284 139.276 67.4888 139.885 67.4888C140.591 67.4888 140.848 67.2963 141.008 66.6868C141.137 66.2376 141.361 65.8848 141.522 65.8848C142.035 65.8848 141.907 65.0186 141.361 64.794C141.105 64.6978 140.88 64.4091 140.88 64.1203C140.88 63.6391 139.853 63.5108 138.57 63.8637Z" fill="#40AF49"/>
<path d="M106.234 64.2807C106.234 64.4412 106.009 64.6016 105.753 64.6016C105.432 64.6016 105.271 64.9544 105.271 65.7244C105.271 66.4943 105.432 66.8472 105.753 66.8472C106.009 66.8472 106.234 66.9755 106.234 67.168C106.234 67.3284 106.683 67.4888 107.196 67.4888C107.838 67.4888 108.159 67.3284 108.159 67.0076C108.159 66.7509 108.383 66.5264 108.64 66.5264C108.961 66.5264 109.121 66.2056 109.121 65.564C109.121 64.9224 108.961 64.6016 108.64 64.6016C108.383 64.6016 108.159 64.4412 108.159 64.2807C108.159 64.0883 107.742 63.9599 107.196 63.9599C106.683 63.9599 106.234 64.0883 106.234 64.2807Z" fill="#40AF49"/>
<path d="M97.1868 65.7885C96.7698 65.8848 96.6094 66.2697 96.6094 67.168C96.6094 68.4833 96.9623 68.772 98.5663 68.772C99.4645 68.772 99.4966 68.7399 99.4966 67.168C99.4966 65.6281 99.4645 65.564 98.6304 65.596C98.1171 65.6281 97.4755 65.6923 97.1868 65.7885Z" fill="#40AF49"/>
<path d="M132.218 66.3658C132.218 66.6225 131.994 66.847 131.737 66.847C131.416 66.847 131.256 67.1678 131.256 67.8094C131.256 68.3227 131.416 68.7719 131.609 68.7719C131.833 68.7719 132.154 68.9964 132.379 69.2851C132.667 69.7022 133.02 69.7663 133.919 69.6059C135.073 69.3814 135.105 69.3493 135.105 67.9698C135.105 66.9112 134.977 66.5262 134.624 66.5262C134.368 66.5262 134.143 66.3658 134.143 66.2054C134.143 66.013 133.726 65.8846 133.181 65.8846C132.539 65.8846 132.218 66.045 132.218 66.3658Z" fill="#40AF49"/>
<path d="M45.9547 67.3284C45.3452 68.002 45.2489 68.3549 45.4093 69.2532C45.6018 70.2797 45.7301 70.376 46.7246 70.376C47.9116 70.376 49.1306 69.4777 49.1306 68.6116C49.1306 68.0341 48.1362 66.9755 47.3021 66.7188C46.9492 66.6226 46.468 66.8151 45.9547 67.3284Z" fill="#40AF49"/>
<path d="M53.1083 66.9755C53.0121 67.2642 52.7233 67.4888 52.4667 67.4888C52.178 67.4888 52.0176 67.8737 52.0176 68.6116C52.0176 69.3815 52.178 69.7344 52.4988 69.7344C52.7554 69.7344 52.98 69.8627 52.98 70.0552C52.98 70.2156 53.397 70.376 53.9103 70.376C54.6802 70.376 54.9048 70.2156 55.0652 69.4457C55.2898 68.4512 54.969 66.8472 54.584 66.8472C54.4236 66.8472 54.1028 66.7509 53.8141 66.6547C53.4933 66.5264 53.2366 66.6547 53.1083 66.9755Z" fill="#40AF49"/>
<path d="M61.6744 66.7509C60.9687 67.0396 60.0383 68.0983 60.0383 68.6116C60.0383 69.2211 61.5461 70.6968 62.1556 70.6968C62.7651 70.6968 62.7331 71.2101 62.1235 71.4667C61.4178 71.7234 61.5461 73.0066 62.4123 73.8086C63.4388 74.8031 64.4654 74.4822 64.722 73.1028C64.9787 71.6271 64.6579 70.793 63.7276 70.5685C62.9576 70.376 62.6047 69.7344 63.2464 69.7344C63.7917 69.7344 63.5992 67.8737 63.0218 67.168C62.4443 66.4943 62.3802 66.4622 61.6744 66.7509Z" fill="#40AF49"/>
<path d="M85.6059 67.168C85.3172 67.5208 85.0605 67.97 85.0605 68.1304C85.0605 68.7399 86.1834 69.7344 86.825 69.7344C88.3327 69.7344 88.9102 69.3494 88.9102 68.4512C88.9102 66.6547 86.7608 65.8206 85.6059 67.168Z" fill="#40AF49"/>
<path d="M68.9563 67.4566C68.3468 68.0662 68.2185 69.2852 68.6676 70.023C68.828 70.2797 69.4375 70.4722 69.9829 70.4722C70.5283 70.4722 71.1378 70.2797 71.2982 70.023C71.619 69.5098 71.6831 68.0982 71.3944 67.3604C71.1378 66.6867 69.6621 66.7509 68.9563 67.4566Z" fill="#40AF49"/>
<path d="M77.3616 67.168C77.3616 67.3284 77.137 67.4888 76.8804 67.4888C76.5275 67.4888 76.3992 67.8738 76.3992 68.9004C76.3992 70.2156 76.4633 70.344 77.3616 70.5364C78.324 70.761 78.7089 71.3385 77.8749 71.3385C77.3937 71.3385 77.0408 72.6858 77.2653 73.6161C77.4578 74.2578 78.5165 74.6748 79.5109 74.4823C79.928 74.4182 80.1205 74.0332 80.1846 73.0066C80.2809 71.8197 80.1846 71.5951 79.6393 71.4347C79.0939 71.3064 78.9977 71.1139 79.1901 70.4081C79.2864 69.959 79.5109 69.5099 79.6714 69.4778C80.0242 69.3174 79.9922 68.4512 79.6393 68.4512C79.4789 68.4512 79.2543 68.0984 79.1581 67.6492C78.9977 67.0718 78.741 66.8472 78.1636 66.8472C77.7145 66.8472 77.3616 66.9755 77.3616 67.168Z" fill="#40AF49"/>
<path d="M122.595 67.1358C122.595 67.2962 122.178 67.5208 121.632 67.6491C120.894 67.8095 120.67 68.0341 120.67 68.6436C120.67 69.1248 120.862 69.4135 121.151 69.4135C121.408 69.4135 121.632 69.7022 121.632 70.0551C121.632 70.7288 122.37 70.8892 123.814 70.5042C124.391 70.3438 124.52 70.0872 124.52 68.9002C124.52 67.8737 124.391 67.4887 124.038 67.4887C123.782 67.4887 123.557 67.3283 123.557 67.1679C123.557 66.9754 123.333 66.8471 123.076 66.8471C122.819 66.8471 122.595 66.9754 122.595 67.1358Z" fill="#40AF49"/>
<path d="M113.548 67.7133C112.778 67.9058 112.714 70.6968 113.452 70.6968C113.708 70.6968 113.933 70.8251 113.933 71.0176C113.933 71.178 114.158 71.3384 114.414 71.3384C114.671 71.3384 114.895 71.178 114.895 71.0176C114.895 70.8251 115.12 70.6968 115.377 70.6968C115.633 70.6968 115.858 70.4722 115.858 70.2156C115.858 69.9589 116.082 69.7344 116.339 69.7344C116.596 69.7344 116.82 69.5098 116.82 69.2532C116.82 68.9965 116.596 68.772 116.339 68.772C116.082 68.772 115.858 68.4832 115.858 68.1304C115.858 67.6492 115.665 67.4888 114.992 67.5208C114.478 67.5529 113.837 67.6171 113.548 67.7133Z" fill="#40AF49"/>
<path d="M127.406 67.9379C127.406 68.2266 127.182 68.4512 126.925 68.4512C126.604 68.4512 126.444 68.804 126.444 69.574C126.444 70.3439 126.604 70.6968 126.925 70.6968C127.182 70.6968 127.406 70.8251 127.406 71.0176C127.406 71.178 127.856 71.3384 128.369 71.3384C128.914 71.3384 129.331 71.178 129.331 71.0176C129.331 70.8251 129.556 70.6968 129.813 70.6968C130.133 70.6968 130.294 70.3439 130.294 69.574C130.294 68.804 130.133 68.4512 129.845 68.4512C129.588 68.4512 129.331 68.3228 129.267 68.1624C129.235 68.002 128.786 67.7454 128.305 67.6492C127.599 67.4567 127.406 67.5208 127.406 67.9379Z" fill="#40AF49"/>
<path d="M101.037 69.6381C100.267 69.8306 100.203 72.6216 100.941 72.6216C101.197 72.6216 101.422 72.7499 101.422 72.9424C101.422 73.1028 101.647 73.2632 101.903 73.2632C102.16 73.2632 102.384 73.1349 102.384 72.9745C102.384 72.8141 102.833 72.5895 103.347 72.4612C104.149 72.3008 104.309 72.1083 104.309 71.3063C104.309 70.6968 104.149 70.376 103.828 70.376C103.571 70.376 103.347 70.1514 103.347 69.8948C103.347 69.4136 102.288 69.2852 101.037 69.6381Z" fill="#40AF49"/>
<path d="M90.7071 71.4987C90.5788 71.9478 90.3542 72.3007 90.1938 72.3007C89.2635 72.3007 90.5467 74.001 91.7658 74.3859C92.2149 74.5142 92.5036 74.418 92.6319 74.0972C92.7282 73.8085 93.0169 73.5839 93.2735 73.5839C93.5622 73.5839 93.7226 73.231 93.7226 72.6857C93.7226 70.9213 91.1241 69.8626 90.7071 71.4987Z" fill="#40AF49"/>
</svg>
