<svg width="50" height="44" viewBox="0 0 50 44" fill="none" xmlns="http://www.w3.org/2000/svg">
<path d="M49 33V29L42.6 23.4H36.2" stroke="#FB8F2C" stroke-width="2" stroke-miterlimit="10" stroke-linecap="round" stroke-linejoin="round"/>
<path d="M18.6004 42.6C20.3677 42.6 21.8004 41.1673 21.8004 39.4C21.8004 37.6326 20.3677 36.2 18.6004 36.2C16.8331 36.2 15.4004 37.6326 15.4004 39.4C15.4004 41.1673 16.8331 42.6 18.6004 42.6Z" stroke="#FB8F2C" stroke-width="2" stroke-miterlimit="10" stroke-linecap="round" stroke-linejoin="round"/>
<path d="M42.6004 42.6C44.3677 42.6 45.8004 41.1673 45.8004 39.4C45.8004 37.6326 44.3677 36.2 42.6004 36.2C40.8331 36.2 39.4004 37.6326 39.4004 39.4C39.4004 41.1673 40.8331 42.6 42.6004 42.6Z" stroke="#FB8F2C" stroke-width="2" stroke-miterlimit="10" stroke-linecap="round" stroke-linejoin="round"/>
<path d="M39.4 39.4H21.8M15.4 39.4H12.2V33M12.2 33H49V39.4H45.8M12.2 33V20.04M19 15.4H36.2V33M1 26.6H5.8M4.2 33H5.8" stroke="#FB8F2C" stroke-width="2" stroke-miterlimit="10" stroke-linecap="round" stroke-linejoin="round"/>
<path d="M10.6 20.2C15.9019 20.2 20.2 15.9019 20.2 10.6C20.2 5.29807 15.9019 1 10.6 1C5.29807 1 1 5.29807 1 10.6C1 15.9019 5.29807 20.2 10.6 20.2Z" stroke="#FB8F2C" stroke-width="2" stroke-miterlimit="10" stroke-linecap="round" stroke-linejoin="round"/>
<path d="M10.5996 5.80005V12.2H15.3996" stroke="#FB8F2C" stroke-width="2" stroke-miterlimit="10" stroke-linecap="round" stroke-linejoin="round"/>
</svg>
