<svg width="109" height="34" viewBox="0 0 109 34" fill="none" xmlns="http://www.w3.org/2000/svg">
<path d="M40.8635 25C39.6155 25 38.6155 24.696 37.8635 24.088C37.1115 23.48 36.7355 22.4 36.7355 20.848V15.664H34.6955V13.096H36.7355L37.0955 9.904H39.8075V13.096H43.0235V15.664H39.8075V20.872C39.8075 21.448 39.9275 21.848 40.1675 22.072C40.4235 22.28 40.8555 22.384 41.4635 22.384H42.9515V25H40.8635ZM49.7651 25.288C48.7411 25.288 47.9011 25.128 47.2451 24.808C46.5891 24.472 46.1011 24.032 45.7811 23.488C45.4611 22.944 45.3011 22.344 45.3011 21.688C45.3011 20.584 45.7331 19.688 46.5971 19C47.4611 18.312 48.7571 17.968 50.4851 17.968H53.5091V17.68C53.5091 16.864 53.2771 16.264 52.8131 15.88C52.3491 15.496 51.7731 15.304 51.0851 15.304C50.4611 15.304 49.9171 15.456 49.4531 15.76C48.9891 16.048 48.7011 16.48 48.5891 17.056H45.5891C45.6691 16.192 45.9571 15.44 46.4531 14.8C46.9651 14.16 47.6211 13.672 48.4211 13.336C49.2211 12.984 50.1171 12.808 51.1091 12.808C52.8051 12.808 54.1411 13.232 55.1171 14.08C56.0931 14.928 56.5811 16.128 56.5811 17.68V25H53.9651L53.6771 23.08C53.3251 23.72 52.8291 24.248 52.1891 24.664C51.5651 25.08 50.7571 25.288 49.7651 25.288ZM50.4611 22.888C51.3411 22.888 52.0211 22.6 52.5011 22.024C52.9971 21.448 53.3091 20.736 53.4371 19.888H50.8211C50.0051 19.888 49.4211 20.04 49.0691 20.344C48.7171 20.632 48.5411 20.992 48.5411 21.424C48.5411 21.888 48.7171 22.248 49.0691 22.504C49.4211 22.76 49.8851 22.888 50.4611 22.888ZM62.3771 25L58.0091 13.096H61.2251L64.2491 22.096L67.2731 13.096H70.4891L66.0971 25H62.3771ZM77.6248 25.288C76.4248 25.288 75.3608 25.032 74.4328 24.52C73.5048 24.008 72.7768 23.288 72.2488 22.36C71.7208 21.432 71.4568 20.36 71.4568 19.144C71.4568 17.912 71.7128 16.816 72.2248 15.856C72.7528 14.896 73.4728 14.152 74.3848 13.624C75.3128 13.08 76.4008 12.808 77.6488 12.808C78.8168 12.808 79.8488 13.064 80.7448 13.576C81.6408 14.088 82.3368 14.792 82.8328 15.688C83.3448 16.568 83.6008 17.552 83.6008 18.64C83.6008 18.816 83.5928 19 83.5768 19.192C83.5768 19.384 83.5688 19.584 83.5528 19.792H74.5048C74.5688 20.72 74.8888 21.448 75.4648 21.976C76.0568 22.504 76.7688 22.768 77.6008 22.768C78.2248 22.768 78.7448 22.632 79.1608 22.36C79.5928 22.072 79.9128 21.704 80.1208 21.256H83.2408C83.0168 22.008 82.6408 22.696 82.1128 23.32C81.6008 23.928 80.9608 24.408 80.1928 24.76C79.4408 25.112 78.5848 25.288 77.6248 25.288ZM77.6488 15.304C76.8968 15.304 76.2328 15.52 75.6568 15.952C75.0808 16.368 74.7128 17.008 74.5528 17.872H80.4808C80.4328 17.088 80.1448 16.464 79.6168 16C79.0888 15.536 78.4328 15.304 77.6488 15.304ZM86.1845 25V13.096H88.9205L89.2085 15.328C89.6405 14.56 90.2245 13.952 90.9605 13.504C91.7125 13.04 92.5925 12.808 93.6005 12.808V16.048H92.7365C92.0645 16.048 91.4645 16.152 90.9365 16.36C90.4085 16.568 89.9925 16.928 89.6885 17.44C89.4005 17.952 89.2565 18.664 89.2565 19.576V25H86.1845ZM95.7001 25V13.096H98.4121L98.6521 15.112C99.0201 14.408 99.5481 13.848 100.236 13.432C100.94 13.016 101.764 12.808 102.708 12.808C104.18 12.808 105.324 13.272 106.14 14.2C106.956 15.128 107.364 16.488 107.364 18.28V25H104.292V18.568C104.292 17.544 104.084 16.76 103.668 16.216C103.252 15.672 102.604 15.4 101.724 15.4C100.86 15.4 100.148 15.704 99.5881 16.312C99.0441 16.92 98.7721 17.768 98.7721 18.856V25H95.7001Z" fill="#121110"/>
<circle cx="18.2957" cy="22.7779" r="5.72222" stroke="#121110" stroke-width="3"/>
<circle cx="4.81433" cy="15.5555" r="3.31482" stroke="#121110" stroke-width="3"/>
<circle cx="21.1844" cy="8.81482" r="3.31482" stroke="#121110" stroke-width="3"/>
</svg>
