<svg width="50" height="50" viewBox="0 0 50 50" fill="none" xmlns="http://www.w3.org/2000/svg">
<path d="M15.3996 1.67707C13.4834 0.95951 11.4012 0.808531 9.40159 1.24215C7.40195 1.67578 5.56933 2.67568 4.12251 4.12251C2.67568 5.56933 1.67578 7.40195 1.24215 9.40159C0.808531 11.4012 0.95951 13.4834 1.67707 15.3996L15.3996 1.67707ZM34.5998 1.67707C36.5159 0.95951 38.5981 0.808531 40.5978 1.24215C42.5974 1.67578 44.43 2.67568 45.8769 4.12251C47.3237 5.56933 48.3236 7.40195 48.7572 9.40159C49.1908 11.4012 49.0399 13.4834 48.3223 15.3996L34.5998 1.67707Z" stroke="#FB8F2C" stroke-width="2" stroke-miterlimit="10" stroke-linecap="round" stroke-linejoin="round"/>
<path d="M24.9997 48.2C36.4873 48.2 45.7999 38.8874 45.7999 27.3998C45.7999 15.9122 36.4873 6.59961 24.9997 6.59961C13.512 6.59961 4.19946 15.9122 4.19946 27.3998C4.19946 38.8874 13.512 48.2 24.9997 48.2Z" stroke="#FB8F2C" stroke-width="2" stroke-miterlimit="10" stroke-linecap="round" stroke-linejoin="round"/>
<path d="M4.19946 49.0001L10.6971 42.5024M45.7999 49.0001L39.3022 42.5024" stroke="#FB8F2C" stroke-width="2" stroke-miterlimit="10" stroke-linecap="round" stroke-linejoin="round"/>
<path d="M33.8001 28.1997H25V12.9995" stroke="#FB8F2C" stroke-width="2" stroke-miterlimit="10" stroke-linecap="round" stroke-linejoin="round"/>
</svg>
